<svg width="32" height="32" viewBox="0 0 32 32" fill="none" xmlns="http://www.w3.org/2000/svg">
<rect width="32" height="32" rx="5" fill="#3F674E"/>
<g clip-path="url(#clip0_8444_5678)">
<path d="M12.0018 22.2077C11.1246 22.2077 10.3718 21.9858 9.74325 21.5419C9.11825 21.0945 8.63707 20.4499 8.29972 19.6083C7.96591 18.7631 7.79901 17.7457 7.79901 16.5561C7.80256 15.3665 7.97124 14.3544 8.30504 13.5199C8.6424 12.6818 9.12358 12.0426 9.74858 11.6023C10.3771 11.1619 11.1282 10.9418 12.0018 10.9418C12.8754 10.9418 13.6264 11.1619 14.255 11.6023C14.8835 12.0426 15.3647 12.6818 15.6985 13.5199C16.0359 14.358 16.2045 15.37 16.2045 16.5561C16.2045 17.7493 16.0359 18.7685 15.6985 19.6136C15.3647 20.4553 14.8835 21.098 14.255 21.5419C13.63 21.9858 12.8789 22.2077 12.0018 22.2077ZM12.0018 20.5405C12.6836 20.5405 13.2216 20.2049 13.6158 19.5337C14.0135 18.859 14.2124 17.8665 14.2124 16.5561C14.2124 15.6896 14.1218 14.9616 13.9407 14.3722C13.7596 13.7827 13.5039 13.3388 13.1737 13.0405C12.8434 12.7386 12.4528 12.5877 12.0018 12.5877C11.3235 12.5877 10.7873 12.9251 10.3931 13.5998C9.99893 14.271 9.80007 15.2564 9.79652 16.5561C9.79297 17.4261 9.87997 18.1577 10.0575 18.7507C10.2386 19.3437 10.4943 19.7912 10.8246 20.093C11.1548 20.3913 11.5472 20.5405 12.0018 20.5405ZM22.4115 11.0909V22H20.4353V13.0138H20.3714L17.8199 14.6438V12.8327L20.5312 11.0909H22.4115Z" fill="white"/>
</g>
<defs>
<clipPath id="clip0_8444_5678">
<rect width="20" height="20" fill="white" transform="translate(6 6)"/>
</clipPath>
</defs>
</svg>
