<svg width="32" height="32" viewBox="0 0 32 32" fill="none" xmlns="http://www.w3.org/2000/svg">
<rect width="32" height="32" rx="5" fill="#3F674E"/>
<g clip-path="url(#clip0_8444_5679)">
<path d="M10.0018 22.2077C9.12464 22.2077 8.3718 21.9858 7.74325 21.5419C7.11825 21.0945 6.63707 20.4499 6.29972 19.6083C5.96591 18.7631 5.79901 17.7457 5.79901 16.5561C5.80256 15.3665 5.97124 14.3544 6.30504 13.5199C6.6424 12.6818 7.12358 12.0426 7.74858 11.6023C8.37713 11.1619 9.1282 10.9418 10.0018 10.9418C10.8754 10.9418 11.6264 11.1619 12.255 11.6023C12.8835 12.0426 13.3647 12.6818 13.6985 13.5199C14.0359 14.358 14.2045 15.37 14.2045 16.5561C14.2045 17.7493 14.0359 18.7685 13.6985 19.6136C13.3647 20.4553 12.8835 21.098 12.255 21.5419C11.63 21.9858 10.8789 22.2077 10.0018 22.2077ZM10.0018 20.5405C10.6836 20.5405 11.2216 20.2049 11.6158 19.5337C12.0135 18.859 12.2124 17.8665 12.2124 16.5561C12.2124 15.6896 12.1218 14.9616 11.9407 14.3722C11.7596 13.7827 11.5039 13.3388 11.1737 13.0405C10.8434 12.7386 10.4528 12.5877 10.0018 12.5877C9.32351 12.5877 8.78729 12.9251 8.39311 13.5998C7.99893 14.271 7.80007 15.2564 7.79652 16.5561C7.79297 17.4261 7.87997 18.1577 8.05753 18.7507C8.23864 19.3437 8.49432 19.7912 8.82457 20.093C9.15483 20.3913 9.54723 20.5405 10.0018 20.5405ZM15.9743 22V20.5724L19.7616 16.8597C20.1238 16.494 20.4257 16.169 20.6672 15.8849C20.9086 15.6009 21.0898 15.3256 21.2105 15.0593C21.3312 14.793 21.3916 14.5089 21.3916 14.207C21.3916 13.8626 21.3135 13.5678 21.1572 13.3228C21.001 13.0742 20.7861 12.8825 20.5127 12.7475C20.2393 12.6126 19.9285 12.5451 19.5805 12.5451C19.2219 12.5451 18.9076 12.6197 18.6377 12.7688C18.3678 12.9144 18.1583 13.1222 18.0091 13.392C17.8635 13.6619 17.7907 13.9833 17.7907 14.3562H15.9104C15.9104 13.6637 16.0684 13.0618 16.3845 12.5504C16.7006 12.0391 17.1356 11.6431 17.6895 11.3626C18.2471 11.082 18.8863 10.9418 19.6072 10.9418C20.3387 10.9418 20.9814 11.0785 21.5354 11.3519C22.0894 11.6254 22.5191 12 22.8245 12.4759C23.1334 12.9517 23.2879 13.495 23.2879 14.1058C23.2879 14.5142 23.2098 14.9155 23.0535 15.3097C22.8973 15.7038 22.6221 16.1406 22.2279 16.62C21.8373 17.0994 21.2886 17.68 20.5819 18.3619L18.7016 20.2741V20.3487H23.453V22H15.9743Z" fill="white"/>
</g>
<defs>
<clipPath id="clip0_8444_5679">
<rect width="20" height="20" fill="white" transform="translate(6 6)"/>
</clipPath>
</defs>
</svg>
