<svg width="32" height="32" viewBox="0 0 32 32" fill="none" xmlns="http://www.w3.org/2000/svg">
<rect width="32" height="32" rx="5" fill="#3F674E"/>
<g clip-path="url(#clip0_8444_5680)">
<path d="M10.0018 22.2077C9.12464 22.2077 8.3718 21.9858 7.74325 21.5419C7.11825 21.0945 6.63707 20.4499 6.29972 19.6083C5.96591 18.7631 5.79901 17.7457 5.79901 16.5561C5.80256 15.3665 5.97124 14.3544 6.30504 13.5199C6.6424 12.6818 7.12358 12.0426 7.74858 11.6023C8.37713 11.1619 9.1282 10.9418 10.0018 10.9418C10.8754 10.9418 11.6264 11.1619 12.255 11.6023C12.8835 12.0426 13.3647 12.6818 13.6985 13.5199C14.0359 14.358 14.2045 15.37 14.2045 16.5561C14.2045 17.7493 14.0359 18.7685 13.6985 19.6136C13.3647 20.4553 12.8835 21.098 12.255 21.5419C11.63 21.9858 10.8789 22.2077 10.0018 22.2077ZM10.0018 20.5405C10.6836 20.5405 11.2216 20.2049 11.6158 19.5337C12.0135 18.859 12.2124 17.8665 12.2124 16.5561C12.2124 15.6896 12.1218 14.9616 11.9407 14.3722C11.7596 13.7827 11.5039 13.3388 11.1737 13.0405C10.8434 12.7386 10.4528 12.5877 10.0018 12.5877C9.32351 12.5877 8.78729 12.9251 8.39311 13.5998C7.99893 14.271 7.80007 15.2564 7.79652 16.5561C7.79297 17.4261 7.87997 18.1577 8.05753 18.7507C8.23864 19.3437 8.49432 19.7912 8.82457 20.093C9.15483 20.3913 9.54723 20.5405 10.0018 20.5405ZM19.8895 22.1491C19.1224 22.1491 18.4406 22.0178 17.844 21.755C17.251 21.4922 16.7822 21.1264 16.4378 20.6577C16.0933 20.1889 15.9104 19.6474 15.8891 19.033H17.892C17.9097 19.3278 18.0074 19.5852 18.1849 19.8054C18.3625 20.022 18.5986 20.1907 18.8934 20.3114C19.1881 20.4322 19.5184 20.4925 19.8841 20.4925C20.2748 20.4925 20.621 20.4251 20.9229 20.2901C21.2247 20.1516 21.4608 19.9599 21.6313 19.7148C21.8018 19.4698 21.8852 19.1875 21.8817 18.8679C21.8852 18.5376 21.8 18.2464 21.626 17.9943C21.452 17.7422 21.1998 17.5451 20.8696 17.4031C20.5429 17.261 20.1487 17.19 19.6871 17.19H18.7229V15.6665H19.6871C20.067 15.6665 20.3991 15.6009 20.6832 15.4695C20.9708 15.3381 21.1963 15.1534 21.3596 14.9155C21.523 14.674 21.6029 14.3952 21.5993 14.0792C21.6029 13.7702 21.5336 13.5021 21.3916 13.2749C21.2531 13.044 21.056 12.8647 20.8003 12.7369C20.5482 12.609 20.2517 12.5451 19.9108 12.5451C19.577 12.5451 19.268 12.6055 18.9839 12.7262C18.6998 12.8469 18.4708 13.0192 18.2968 13.2429C18.1228 13.4631 18.0305 13.7259 18.0198 14.0312H16.1182C16.1324 13.4205 16.3081 12.8842 16.6455 12.4226C16.9864 11.9574 17.441 11.5952 18.0091 11.3359C18.5773 11.0732 19.2148 10.9418 19.9214 10.9418C20.6494 10.9418 21.2815 11.0785 21.8177 11.3519C22.3575 11.6218 22.7748 11.9858 23.0695 12.4439C23.3643 12.902 23.5116 13.408 23.5116 13.962C23.5152 14.5763 23.3341 15.0913 22.9683 15.5067C22.6061 15.9222 22.1302 16.1939 21.5407 16.3217V16.407C22.3078 16.5135 22.8955 16.7976 23.3039 17.2592C23.7158 17.7173 23.92 18.2873 23.9165 18.9691C23.9165 19.5799 23.7425 20.1268 23.3944 20.6097C23.05 21.0891 22.5741 21.4656 21.9669 21.739C21.3632 22.0124 20.6707 22.1491 19.8895 22.1491Z" fill="white"/>
</g>
<defs>
<clipPath id="clip0_8444_5680">
<rect width="20" height="20" fill="white" transform="translate(6 6)"/>
</clipPath>
</defs>
</svg>
