<svg width="32" height="32" viewBox="0 0 32 32" fill="none" xmlns="http://www.w3.org/2000/svg">
<rect width="32" height="32" rx="5" fill="#3F674E"/>
<g clip-path="url(#clip0_8444_6311)">
<path d="M11.0018 22.2077C10.1246 22.2077 9.3718 21.9858 8.74325 21.5419C8.11825 21.0945 7.63707 20.4499 7.29972 19.6083C6.96591 18.7631 6.79901 17.7457 6.79901 16.5561C6.80256 15.3665 6.97124 14.3544 7.30504 13.5199C7.6424 12.6818 8.12358 12.0426 8.74858 11.6023C9.37713 11.1619 10.1282 10.9418 11.0018 10.9418C11.8754 10.9418 12.6264 11.1619 13.255 11.6023C13.8835 12.0426 14.3647 12.6818 14.6985 13.5199C15.0359 14.358 15.2045 15.37 15.2045 16.5561C15.2045 17.7493 15.0359 18.7685 14.6985 19.6136C14.3647 20.4553 13.8835 21.098 13.255 21.5419C12.63 21.9858 11.8789 22.2077 11.0018 22.2077ZM11.0018 20.5405C11.6836 20.5405 12.2216 20.2049 12.6158 19.5337C13.0135 18.859 13.2124 17.8665 13.2124 16.5561C13.2124 15.6896 13.1218 14.9616 12.9407 14.3722C12.7596 13.7827 12.5039 13.3388 12.1737 13.0405C11.8434 12.7386 11.4528 12.5877 11.0018 12.5877C10.3235 12.5877 9.78729 12.9251 9.39311 13.5998C8.99893 14.271 8.80007 15.2564 8.79652 16.5561C8.79297 17.4261 8.87997 18.1577 9.05753 18.7507C9.23864 19.3437 9.49432 19.7912 9.82457 20.093C10.1548 20.3913 10.5472 20.5405 11.0018 20.5405ZM16.7773 19.9759V18.4045L21.4062 11.0909H22.7165V13.3281H21.9175L18.8014 18.266V18.3512H25.2627V19.9759H16.7773ZM21.9814 22V19.4964L22.0028 18.7933V11.0909H23.8671V22H21.9814Z" fill="white"/>
</g>
<defs>
<clipPath id="clip0_8444_6311">
<rect width="20" height="20" fill="white" transform="translate(6 6)"/>
</clipPath>
</defs>
</svg>
