<svg width="33" height="32" viewBox="0 0 33 32" fill="none" xmlns="http://www.w3.org/2000/svg">
<rect x="0.280273" width="32" height="32" rx="5" fill="#3F674E"/>
<g clip-path="url(#clip0_8308_24479)">
<path d="M11.0018 22.2077C10.1246 22.2077 9.3718 21.9858 8.74325 21.5419C8.11825 21.0945 7.63707 20.4499 7.29972 19.6083C6.96591 18.7631 6.79901 17.7457 6.79901 16.5561C6.80256 15.3665 6.97124 14.3544 7.30504 13.5199C7.6424 12.6818 8.12358 12.0426 8.74858 11.6023C9.37713 11.1619 10.1282 10.9418 11.0018 10.9418C11.8754 10.9418 12.6264 11.1619 13.255 11.6023C13.8835 12.0426 14.3647 12.6818 14.6985 13.5199C15.0359 14.358 15.2045 15.37 15.2045 16.5561C15.2045 17.7493 15.0359 18.7685 14.6985 19.6136C14.3647 20.4553 13.8835 21.098 13.255 21.5419C12.63 21.9858 11.8789 22.2077 11.0018 22.2077ZM11.0018 20.5405C11.6836 20.5405 12.2216 20.2049 12.6158 19.5337C13.0135 18.859 13.2124 17.8665 13.2124 16.5561C13.2124 15.6896 13.1218 14.9616 12.9407 14.3722C12.7596 13.7827 12.5039 13.3388 12.1737 13.0405C11.8434 12.7386 11.4528 12.5877 11.0018 12.5877C10.3235 12.5877 9.78729 12.9251 9.39311 13.5998C8.99893 14.271 8.80007 15.2564 8.79652 16.5561C8.79297 17.4261 8.87997 18.1577 9.05753 18.7507C9.23864 19.3437 9.49432 19.7912 9.82457 20.093C10.1548 20.3913 10.5472 20.5405 11.0018 20.5405ZM20.767 22.1491C20.0567 22.1491 19.4211 22.016 18.86 21.7496C18.2989 21.4798 17.8532 21.1104 17.523 20.6417C17.1963 20.1729 17.0223 19.6367 17.001 19.033H18.9186C18.9541 19.4805 19.1476 19.8462 19.4992 20.1303C19.8508 20.4109 20.2733 20.5511 20.767 20.5511C21.154 20.5511 21.4985 20.4624 21.8003 20.2848C22.1022 20.1072 22.3401 19.8604 22.5141 19.5444C22.6881 19.2283 22.7733 18.8679 22.7698 18.4631C22.7733 18.0511 22.6863 17.6854 22.5088 17.3658C22.3312 17.0462 22.088 16.7958 21.779 16.6147C21.4701 16.43 21.115 16.3377 20.7137 16.3377C20.387 16.3342 20.0656 16.3945 19.7496 16.5188C19.4335 16.6431 19.1831 16.8065 18.9985 17.0089L17.214 16.7159L17.784 11.0909H24.1121V12.7422H19.4193L19.105 15.6346H19.1689C19.3714 15.3967 19.6572 15.1996 20.0265 15.0433C20.3959 14.8835 20.8007 14.8036 21.241 14.8036C21.9015 14.8036 22.491 14.9599 23.0095 15.2724C23.528 15.5813 23.9363 16.0075 24.2346 16.5508C24.5329 17.0941 24.6821 17.7156 24.6821 18.4151C24.6821 19.136 24.5152 19.7788 24.1814 20.3434C23.8511 20.9045 23.3912 21.3466 22.8018 21.6697C22.2158 21.9893 21.5376 22.1491 20.767 22.1491Z" fill="white"/>
</g>
<defs>
<clipPath id="clip0_8308_24479">
<rect width="20" height="20" fill="white" transform="translate(6.28027 6)"/>
</clipPath>
</defs>
</svg>
