<svg width="44" height="44" viewBox="0 0 44 44" fill="none" xmlns="http://www.w3.org/2000/svg">
<g clip-path="url(#clip0_9442_19787)">
<path d="M43.2896 21.9998C43.2896 10.2415 33.7576 0.709473 21.9993 0.709473C10.241 0.709473 0.708984 10.2415 0.708984 21.9998C0.708984 33.7581 10.241 43.2901 21.9993 43.2901C33.7576 43.2901 43.2896 33.7581 43.2896 21.9998Z" fill="white"/>
<path d="M15.6875 28.7314L27.7311 16.6878" stroke="#2E2E2E" stroke-width="1.08387" stroke-linecap="round" stroke-linejoin="round"/>
<path d="M15.6875 16.6875L27.7311 28.7311" stroke="#2E2E2E" stroke-width="1.08387" stroke-linecap="round" stroke-linejoin="round"/>
<path d="M43.2896 21.9998C43.2896 10.2415 33.7576 0.709473 21.9993 0.709473C10.241 0.709473 0.708984 10.2415 0.708984 21.9998C0.708984 33.7581 10.241 43.2901 21.9993 43.2901C33.7576 43.2901 43.2896 33.7581 43.2896 21.9998Z" stroke="white" stroke-width="0.903226"/>
</g>
<defs>
<clipPath id="clip0_9442_19787">
<rect width="44" height="44" fill="white"/>
</clipPath>
</defs>
</svg>
