<svg width="118" height="106" viewBox="0 0 118 106" fill="none" xmlns="http://www.w3.org/2000/svg">
<path d="M39.5684 105.302C34.4389 105.302 29.3593 104.287 24.6203 102.313C19.8814 100.339 15.5753 97.4467 11.9472 93.8002C8.32074 90.1535 5.44266 85.8243 3.48021 81.0598C1.51775 76.2951 0.506836 71.1885 0.506836 66.0315C0.506836 60.8744 1.51775 55.7678 3.48021 51.0032C5.44266 46.2387 8.32074 41.9095 11.9472 38.2628C15.5753 34.6163 19.8814 31.7236 24.6203 29.75C29.3593 27.7764 34.4389 26.7607 39.5684 26.7607V105.302Z" fill="#00B840" fill-opacity="0.2"/>
<path d="M54.9834 -0.0100098C63.1934 -0.0100098 71.3233 1.35274 78.9081 4.00035C86.4929 6.64805 93.385 10.5287 99.1905 15.421C104.996 20.3131 109.601 26.121 112.743 32.5129C115.885 38.9049 117.502 45.7558 117.502 52.6744C117.502 59.593 115.885 66.4439 112.743 72.8359C109.601 79.2279 104.996 85.0357 99.1905 89.9278C93.385 94.8201 86.4929 98.7008 78.9081 101.348C71.3233 103.996 63.1934 105.359 54.9834 105.359V-0.0100098Z" fill="#00B840"/>
</svg>
