<svg width="60" height="60" viewBox="0 0 60 60" fill="none" xmlns="http://www.w3.org/2000/svg">
<rect width="60" height="60" rx="5" fill="#F7F7F7"/>
<g clip-path="url(#clip0_8302_18822)">
<path d="M27.1599 49.9588C36.0848 49.9588 43.3199 48.6535 43.3199 47.0434C43.3199 45.4332 36.0848 44.1279 27.1599 44.1279C18.235 44.1279 11 45.4332 11 47.0434C11 48.6535 18.235 49.9588 27.1599 49.9588Z" fill="#2E2E2E"/>
<path fill-rule="evenodd" clip-rule="evenodd" d="M31.5742 24.0936C31.5742 23.9588 31.7945 23.8771 31.899 23.9633C32.436 24.406 33.7116 25.0519 36.2504 24.4416C38.5902 23.8791 37.9265 23.267 39.8512 22.4476C42.5629 21.2933 45.5269 25.4982 45.5269 25.4982L44.581 27.8448L39.6148 28.3141L36.7769 30.426L35.1215 28.0794C33.1254 27.9474 31.5742 26.3022 31.5742 24.3171V24.0936Z" fill="#00B840"/>
<path d="M44.4109 32.6182H27.9064C27.1883 32.6182 26.5246 32.238 26.1654 31.6208C25.8064 31.0035 25.8064 30.2432 26.1654 29.6261C26.5246 29.0088 27.1883 28.6287 27.9064 28.6287H29.9167V27.2987H27.9064C26.7094 27.2987 25.6034 27.9325 25.0047 28.9611C24.4064 29.9897 24.4064 31.2571 25.0047 32.2856C25.6034 33.3144 26.7094 33.948 27.9064 33.948H44.0962C43.8323 34.867 43.4776 35.7577 43.0374 36.6077H37.958C37.0693 36.6077 36.2171 36.9579 35.589 37.5815C34.9606 38.2049 34.6076 39.0504 34.6076 39.9322V43.822C33.0963 44.328 31.5119 44.5865 29.9168 44.5867V42.2594C29.9168 41.6422 29.6698 41.0503 29.2299 40.6139C28.7901 40.1773 28.1935 39.9322 27.5716 39.9322H26.2312C25.9647 39.9322 25.7092 39.8272 25.5205 39.6401C25.332 39.4531 25.2261 39.1994 25.2261 38.9349C25.2261 38.3177 24.9791 37.7258 24.5393 37.2892C24.0993 36.8528 23.5028 36.6077 22.8808 36.6077H16.7896C16.4565 35.9648 16.172 35.298 15.9387 34.613H20.2004C21.0384 34.613 21.8127 34.1693 22.2316 33.4493C22.6505 32.7293 22.6505 31.8421 22.2316 31.1222C21.8127 30.4019 21.0384 29.9585 20.2004 29.9585H15.1747C15.1758 29.2913 15.2229 28.6248 15.3156 27.9638H20.8706C21.6705 27.9638 22.4373 27.6485 23.0029 27.0875C23.5684 26.5262 23.886 25.7653 23.886 24.9716C23.886 24.5308 24.0626 24.1081 24.3767 23.7961C24.6908 23.4845 25.1169 23.3093 25.5614 23.3093H26.9015C27.9789 23.3093 28.9744 22.7391 29.5129 21.8132C30.0516 20.8875 30.0516 19.7469 29.5129 18.8211C28.9744 17.8954 27.9789 17.325 26.9015 17.325H22.4991C24.7485 16.0168 27.3094 15.3283 29.917 15.3302V14.0005C26.5673 14.0012 23.3015 15.0397 20.5749 16.9712C17.8487 18.9028 15.7982 21.6306 14.71 24.7741C13.6217 27.9178 13.5499 31.3203 14.5047 34.5062V34.6127C15.6104 38.2943 18.0174 41.4563 21.284 43.5189C24.5505 45.5811 28.4573 46.4051 32.2866 45.8392C36.1158 45.2732 39.611 43.3555 42.1302 40.4382C44.6491 37.5208 46.0231 33.7997 45.9995 29.9583H44.6594C44.6585 30.8506 44.5757 31.7407 44.4115 32.618L44.4109 32.6182ZM20.2001 31.2882C20.5593 31.2882 20.8912 31.4784 21.0706 31.7869C21.2501 32.0955 21.2501 32.4757 21.0706 32.7843C20.8912 33.0929 20.5593 33.283 20.2001 33.283H15.5633C15.4073 32.6264 15.2976 31.9599 15.2348 31.2882H20.2001ZM20.5688 18.6546L26.9012 18.6549C27.4998 18.6549 28.0528 18.9717 28.3519 19.4859C28.6512 20.0002 28.6512 20.6338 28.3519 21.1483C28.0528 21.6626 27.4998 21.9794 26.9012 21.9794H25.5611C24.7612 21.9794 23.9944 22.2946 23.4287 22.8557C22.8633 23.4169 22.5456 24.1778 22.5456 24.9715C22.5456 25.4123 22.3691 25.8351 22.0549 26.147C21.7406 26.4587 21.3145 26.6339 20.8703 26.6339H15.5633C16.3018 23.5002 18.0611 20.6956 20.5688 18.6546ZM17.5735 37.9376H22.8806C23.1471 37.9376 23.4029 38.0427 23.5914 38.2297C23.7799 38.4167 23.8857 38.6705 23.8857 38.935C23.8857 39.5521 24.1328 40.1441 24.5727 40.5807C25.0125 41.017 25.6091 41.2621 26.231 41.2621H27.5713C27.8379 41.2621 28.0934 41.3672 28.2821 41.5542C28.4706 41.7414 28.5765 41.995 28.5765 42.2595V44.5269C26.36 44.3241 24.2187 43.6257 22.313 42.4845C20.4075 41.3434 18.7871 39.7889 17.5735 37.9376ZM35.9476 43.3034V39.9324C35.9476 39.4034 36.1594 38.896 36.5363 38.5217C36.9135 38.1478 37.4248 37.9376 37.9579 37.9376H42.2598C40.7144 40.2868 38.5243 42.1486 35.9476 43.3034Z" fill="black"/>
<path d="M43.9886 14H33.2669C32.7338 14 32.2225 14.2102 31.8455 14.5842C31.4684 14.9584 31.2566 15.4658 31.2566 15.9947V26.6336C31.2566 27.1626 31.4684 27.67 31.8455 28.0439C32.2225 28.4182 32.7338 28.6284 33.2669 28.6284H35.2772V31.2881C35.2756 31.5583 35.4389 31.8024 35.6905 31.9059C35.9417 32.0094 36.2314 31.9518 36.4232 31.7601L39.5726 28.6284H43.9885C44.5216 28.6284 45.033 28.4182 45.4101 28.044C45.787 27.67 45.9988 27.1626 45.9988 26.6336V15.9948C45.9988 15.4658 45.787 14.9584 45.4101 14.5842C45.0329 14.2102 44.5217 14 43.9886 14ZM44.6588 26.6336C44.6588 26.8099 44.5881 26.9789 44.4625 27.1038C44.3368 27.2285 44.1663 27.2984 43.9886 27.2984H39.2979C39.1197 27.2975 38.9485 27.3667 38.8222 27.4911L36.6176 29.6854V27.9633C36.6176 27.787 36.5469 27.6178 36.4213 27.4932C36.2957 27.3685 36.1251 27.2984 35.9474 27.2984H33.267C32.897 27.2984 32.597 27.0007 32.597 26.6336V15.9947C32.597 15.6276 32.897 15.3298 33.267 15.3298H43.9887C44.1664 15.3298 44.3369 15.3999 44.4626 15.5246C44.5882 15.6492 44.6589 15.8184 44.6589 15.9947L44.6588 26.6336Z" fill="black"/>
<path d="M37.9595 20.1011C37.9595 19.8419 38.1713 19.6318 38.4325 19.6318C38.6937 19.6318 38.9055 19.8419 38.9055 20.1011V23.5119C39.1883 23.6742 39.3785 23.9776 39.3785 24.325C39.3785 24.8434 38.955 25.2636 38.4325 25.2636C37.9101 25.2636 37.4866 24.8434 37.4866 24.325C37.4866 23.9776 37.6768 23.6742 37.9595 23.5119V20.1011Z" fill="#0F0F0F"/>
<path fill-rule="evenodd" clip-rule="evenodd" d="M36.5406 22.9171V18.2239C36.5406 18.1246 36.5528 18.0246 36.5692 17.9268C36.5965 17.7641 36.6521 17.5399 36.7679 17.3101C36.8846 17.0784 37.0672 16.8325 37.3498 16.6455C37.6354 16.4566 37.995 16.3467 38.4325 16.3467C38.87 16.3467 39.2295 16.4566 39.5152 16.6455C39.7978 16.8325 39.9803 17.0784 40.0971 17.3101C40.2129 17.5399 40.2684 17.7641 40.2958 17.9268C40.3122 18.0245 40.3242 18.1243 40.3244 18.2235V22.9171C40.4578 23.0937 40.5663 23.2891 40.6457 23.4983C40.8261 23.9737 40.8461 24.4944 40.7027 24.9821C40.5594 25.4699 40.2604 25.8982 39.8507 26.2029C39.4409 26.5076 38.9426 26.6721 38.4306 26.6716C37.9186 26.6713 37.4206 26.506 37.0114 26.2007C36.6021 25.8954 36.3038 25.4665 36.1612 24.9786C36.0186 24.4906 36.0395 23.9699 36.2206 23.4948C36.2999 23.2869 36.4079 23.0926 36.5406 22.9171ZM37.4865 22.9171V18.2268C37.4912 18.0569 37.5378 17.8811 37.614 17.7299C37.6746 17.6095 37.7581 17.5035 37.8745 17.4265C37.988 17.3514 38.1605 17.2853 38.4325 17.2853C38.7045 17.2853 38.877 17.3514 38.9904 17.4265C39.1069 17.5035 39.1904 17.6095 39.251 17.7299C39.3269 17.8805 39.3727 18.0548 39.3783 18.2238L39.3784 22.9171C39.3784 23.1081 39.4246 23.2806 39.5479 23.4321C39.6431 23.5492 39.7196 23.6813 39.7737 23.824C39.8831 24.1122 39.8952 24.4277 39.8083 24.7233C39.7214 25.0189 39.5402 25.2784 39.2919 25.4631C39.0436 25.6477 38.7416 25.7474 38.4314 25.7472C38.1211 25.7469 37.8193 25.6467 37.5712 25.4617C37.3232 25.2767 37.1424 25.0168 37.056 24.7211C36.9696 24.4254 36.9822 24.1099 37.0921 23.8219C37.1464 23.6793 37.2231 23.5473 37.3185 23.4303C37.4431 23.2777 37.4865 23.1092 37.4865 22.9171Z" fill="#0F0F0F"/>
</g>
<defs>
<clipPath id="clip0_8302_18822">
<rect width="35" height="36" fill="white" transform="translate(11 14)"/>
</clipPath>
</defs>
</svg>
