<svg width="29" height="28" viewBox="0 0 29 28" fill="none" xmlns="http://www.w3.org/2000/svg">
<g clip-path="url(#clip0_8315_16144)">
<path d="M28.0484 14C28.0484 6.51748 21.9826 0.45166 14.5 0.45166C7.01748 0.45166 0.95166 6.51748 0.95166 14C0.95166 21.4826 7.01748 27.5484 14.5 27.5484C21.9826 27.5484 28.0484 21.4826 28.0484 14Z" fill="#F7F7F7"/>
<path d="M11.1309 18.2947L18.7729 10.6086" stroke="#2E2E2E" stroke-width="1.08387" stroke-linecap="round" stroke-linejoin="round"/>
<path d="M11.1089 10.6305L18.795 18.2726" stroke="#2E2E2E" stroke-width="1.08387" stroke-linecap="round" stroke-linejoin="round"/>
<path d="M28.0484 14C28.0484 6.51748 21.9826 0.45166 14.5 0.45166C7.01748 0.45166 0.95166 6.51748 0.95166 14C0.95166 21.4826 7.01748 27.5484 14.5 27.5484C21.9826 27.5484 28.0484 21.4826 28.0484 14Z" stroke="#F7F7F7" stroke-width="0.903226"/>
</g>
<defs>
<clipPath id="clip0_8315_16144">
<rect width="28" height="28" fill="white" transform="translate(0.5)"/>
</clipPath>
</defs>
</svg>
