<svg width="213" height="217" viewBox="0 0 213 217" fill="none" xmlns="http://www.w3.org/2000/svg">
<g clip-path="url(#clip0_9692_33277)">
<path d="M76.4873 -9.56641C79.124 -10.7383 81.6143 -11.3242 83.958 -11.3242C87.1807 -11.3242 89.9639 -10.4453 92.3076 -8.6875C94.7979 -7.07617 96.043 -4.73242 96.043 -1.65625C96.043 0.833984 95.2373 3.39746 93.626 6.03418C87.0342 13.2119 81.6875 21.1221 77.5859 29.7646C73.6309 38.4072 70.7012 46.6836 68.7969 54.5938C67.0391 62.5039 66.1602 69.0225 66.1602 74.1494C66.1602 75.7607 66.3066 77.5918 66.5996 79.6426C66.7461 80.375 68.4307 81.4004 71.6533 82.7188C74.876 83.8906 78.5381 85.7217 82.6396 88.2119C86.7412 90.7021 90.3301 94.291 93.4062 98.9785C96.6289 103.52 98.2402 109.599 98.2402 117.216C98.2402 127.323 94.5781 135.819 87.2539 142.704C79.9297 149.589 71.0674 153.031 60.667 153.031C54.6611 153.031 48.3623 151.64 41.7705 148.856C35.3252 146.073 29.9053 141.093 25.5107 133.915C21.1162 126.737 18.9189 116.63 18.9189 103.593C18.9189 92.3135 21.043 80.668 25.291 68.6562C29.6855 56.6445 35.1055 45.292 41.5508 34.5986C47.9961 23.7588 54.3682 14.457 60.667 6.69336C67.1123 -1.2168 72.3857 -6.63672 76.4873 -9.56641ZM182.615 -9.56641C185.252 -10.7383 187.742 -11.3242 190.086 -11.3242C193.309 -11.3242 196.092 -10.4453 198.436 -8.6875C200.926 -7.07617 202.171 -4.73242 202.171 -1.65625C202.171 0.833984 201.365 3.39746 199.754 6.03418C193.162 13.2119 187.815 21.1221 183.714 29.7646C179.759 38.4072 176.829 46.6836 174.925 54.5938C173.167 62.5039 172.288 69.0225 172.288 74.1494C172.288 75.7607 172.435 77.5918 172.728 79.6426C172.874 80.375 174.559 81.4004 177.781 82.7188C181.004 83.8906 184.666 85.7217 188.768 88.2119C192.869 90.7021 196.458 94.291 199.534 98.9785C202.757 103.52 204.368 109.599 204.368 117.216C204.368 127.323 200.706 135.819 193.382 142.704C186.058 149.589 177.195 153.031 166.795 153.031C160.789 153.031 154.49 151.64 147.898 148.856C141.453 146.073 136.033 141.093 131.639 133.915C127.244 126.737 125.047 116.63 125.047 103.593C125.047 92.3135 127.171 80.668 131.419 68.6562C135.813 56.6445 141.233 45.292 147.679 34.5986C154.124 23.7588 160.496 14.457 166.795 6.69336C173.24 -1.2168 178.514 -6.63672 182.615 -9.56641Z" fill="#21CB5C"/>
</g>
<defs>
<clipPath id="clip0_9692_33277">
<rect width="213" height="217" fill="white"/>
</clipPath>
</defs>
</svg>
