<svg width="60" height="60" viewBox="0 0 60 60" fill="none" xmlns="http://www.w3.org/2000/svg">
<rect width="60" height="60" rx="5" fill="#F7F7F7"/>
<g clip-path="url(#clip0_8302_18839)">
<path d="M30 49.7792C20.3171 49.7792 12.4675 48.3908 12.4675 46.6782C12.4675 44.9655 20.3171 43.5771 30 43.5771C39.6829 43.5771 47.5325 44.9655 47.5325 46.6782C47.5325 48.3908 39.6829 49.7792 30 49.7792Z" fill="#2E2E2E"/>
<path fill-rule="evenodd" clip-rule="evenodd" d="M28.94 39.6593C28.94 39.1617 28.0522 38.8907 27.6861 39.229C26.7062 40.1343 25.1463 40.9046 22.9873 39.9923C20.4012 38.8996 21.2341 36.4102 19.1066 34.8183C16.1095 32.5756 13.0522 33.0336 13.0522 33.0336V46.0579H23.7971C26.6374 46.0579 28.94 43.7633 28.94 40.9329V39.6593Z" fill="#00B840"/>
<path d="M18.004 29.4055L18.6188 30.4599C16.6686 31.7418 15.9738 34.552 15.9738 36.755H14.8049C14.8049 34.2183 15.6447 30.9548 18.004 29.4055Z" fill="black"/>
<path fill-rule="evenodd" clip-rule="evenodd" d="M24.1559 22.7568L16.0757 27.8369C13.8268 29.299 12.4592 31.8999 12.4676 34.6988V45.4376C12.4676 46.1227 12.9909 46.678 13.6364 46.678H24.1559C27.0594 46.6746 29.4124 44.1775 29.4156 41.0962V40.0847L33.8227 34.602C33.9139 34.4993 33.9979 34.3897 34.074 34.274H39.9351C40.9034 34.274 41.6884 33.4409 41.6884 32.4133V29.7111L42.4206 29.9096C42.728 29.992 43.0412 29.7994 43.1266 29.4755L43.5181 28.0006L44.9541 27.8468C45.2697 27.814 45.5031 27.5201 45.48 27.1844L45.3748 25.6563L46.6751 24.9914C46.9609 24.8455 47.0848 24.4844 46.9545 24.1777L46.3637 22.781L47.3671 21.6801C47.5876 21.4394 47.5876 21.0562 47.3671 20.8156L46.3637 19.7184L46.9545 18.3211C47.0844 18.0145 46.9605 17.6539 46.6751 17.508L45.3772 16.8438L45.4818 15.3156C45.5049 14.9799 45.2715 14.686 44.9558 14.6532L43.5199 14.4994L43.1284 13.0252C43.0429 12.7012 42.7297 12.5086 42.4224 12.591L41.6884 12.7876V11.3264C41.6884 10.2988 40.9034 9.46582 39.9351 9.46582H25.9091C24.9408 9.46582 24.1559 10.2988 24.1559 11.3264V22.7568ZM43.0069 26.8092C42.7681 26.8348 42.5682 27.0129 42.5032 27.2582L42.1584 28.5582L40.9247 28.227C40.8779 28.2142 40.8298 28.2077 40.7815 28.2078C40.5939 28.2079 40.4178 28.3037 40.3081 28.4651L39.563 29.5604L38.511 28.7994C38.3125 28.6559 38.0515 28.6559 37.853 28.7994L36.801 29.5604L36.0594 28.4683C35.9194 28.2621 35.675 28.1675 35.4429 28.2295L34.2091 28.5606L33.8643 27.2582C33.7993 27.0129 33.5995 26.8348 33.3606 26.8092L32.0942 26.674L32.1865 25.3263C32.2039 25.0727 32.0737 24.8335 31.8581 24.7228L30.712 24.1367L31.2345 22.9056C31.332 22.673 31.2857 22.4008 31.1176 22.2191L30.231 21.2497L31.117 20.2834C31.2853 20.1016 31.3317 19.829 31.2339 19.5962L30.7114 18.3658L31.8575 17.7796C32.0734 17.6688 32.2036 17.4294 32.1859 17.1755L32.093 15.8285L33.3594 15.6926C33.5983 15.667 33.7981 15.4889 33.8632 15.2436L34.208 13.9412L35.4394 14.2724C35.6714 14.3345 35.9157 14.2401 36.0559 14.0342L36.801 12.9389L37.853 13.7C38.0515 13.8435 38.3125 13.8435 38.511 13.7L39.563 12.9389L40.3075 14.0311C40.4476 14.2372 40.6919 14.3319 40.9241 14.2699L42.1578 13.9387L42.5026 15.2411C42.5676 15.4864 42.7675 15.6646 43.0064 15.6902L44.2728 15.8254L44.1804 17.1731C44.163 17.4267 44.2932 17.6659 44.5089 17.7765L45.652 18.3626L45.1295 19.5938C45.032 19.8263 45.0784 20.0986 45.2464 20.2803L46.133 21.2497L45.2494 22.2191C45.0813 22.4008 45.0349 22.673 45.1325 22.9056L45.6549 24.1361L44.5089 24.7222C44.293 24.833 44.1628 25.0725 44.1804 25.3263L44.2734 26.6734L43.0069 26.8092ZM39.9353 33.0336C40.258 33.0336 40.5197 32.7559 40.5197 32.4133V30.273L40.1778 30.7754C39.9927 31.048 39.6366 31.1146 39.3748 30.9255L38.182 30.0628L36.9892 30.9248C36.7275 31.114 36.3714 31.0474 36.1862 30.7748L35.3418 29.5344L33.9392 29.9065C33.6318 29.9889 33.3186 29.7963 33.2332 29.4723L32.8417 27.9981L31.4057 27.8443C31.0901 27.8116 30.8567 27.5176 30.8797 27.1819L30.9844 25.6537L29.684 24.9883C29.3987 24.8424 29.2748 24.4818 29.4047 24.1752L30.0002 22.781L28.9968 21.6838C28.7763 21.4431 28.7763 21.06 28.9968 20.8193L30.0002 19.7184L29.407 18.3217C29.2767 18.015 29.4007 17.6539 29.6864 17.508L30.9891 16.8462L30.8839 15.3181C30.8608 14.9824 31.0942 14.6884 31.4098 14.6557L32.8457 14.5019L33.2373 13.027C33.3227 12.7031 33.6359 12.5105 33.9433 12.5929L35.3459 12.9687L36.1909 11.7283C36.3747 11.4574 36.7275 11.3895 36.9892 11.5745L38.182 12.4366L39.3748 11.5745C39.6366 11.3854 39.9927 11.452 40.1778 11.7246L40.5197 12.2263V11.3264C40.5197 10.9839 40.258 10.7062 39.9353 10.7062H25.9093C25.5865 10.7062 25.3249 10.9839 25.3249 11.3264V32.4133C25.3249 32.7559 25.5865 33.0336 25.9093 33.0336H26.9653L29.6572 30.2507C30.7994 29.0409 32.649 29.0409 33.7913 30.2507C34.4771 30.9799 34.7793 32.0213 34.599 33.0336H39.9353ZM24.1555 45.4376H13.636V34.6988C13.628 32.3339 14.7819 30.1356 16.6808 28.898L24.1555 24.1988V32.4133C24.1579 33.3839 24.8645 34.1887 25.7766 34.2597L21.9931 38.1713L22.8113 39.0594L30.4777 31.1339C31.1708 30.4243 32.2681 30.4216 32.9644 31.1277C33.6481 31.8555 33.6481 33.0332 32.9644 33.7611L28.3861 39.4533C28.2959 39.5655 28.2463 39.7083 28.2464 39.8558V41.0962C28.2438 43.4928 26.4137 45.4349 24.1555 45.4376Z" fill="black"/>
<path d="M16.0757 27.8371L16.0247 27.759L16.0259 27.7582L16.0757 27.8371ZM24.1559 22.7569H24.2494V22.8083L24.2058 22.8358L24.1559 22.7569ZM29.4156 40.0848H29.3221V40.0521L29.3426 40.0265L29.4156 40.0848ZM33.8227 34.6022L33.7496 34.5439L33.7526 34.5405L33.8227 34.6022ZM34.074 34.2742L33.9958 34.223L34.0235 34.181H34.074V34.2742ZM41.6884 29.7113H41.5948V29.5894L41.7129 29.6214L41.6884 29.7113ZM43.5181 28.0008L43.4278 27.9769L43.4442 27.915L43.5082 27.9081L43.5181 28.0008ZM45.3748 25.6564L45.2816 25.6628L45.2773 25.6015L45.3322 25.5735L45.3748 25.6564ZM46.3637 22.7812L46.2775 22.8174L46.2543 22.7625L46.2944 22.7185L46.3637 22.7812ZM46.3637 19.7186L46.2946 19.7814L46.2543 19.7373L46.2775 19.6824L46.3637 19.7186ZM45.3772 16.8439L45.3344 16.9268L45.2797 16.8988L45.2839 16.8376L45.3772 16.8439ZM43.5199 14.4996L43.5099 14.5922L43.4459 14.5853L43.4295 14.5234L43.5199 14.4996ZM41.6884 12.7878L41.7126 12.8778L41.5948 12.9093V12.7878H41.6884ZM42.1584 28.5583L42.2488 28.5821L42.2248 28.6727L42.134 28.6483L42.1584 28.5583ZM39.563 29.5606L39.6404 29.6129L39.5862 29.6925L39.5081 29.636L39.563 29.5606ZM36.801 29.5606L36.856 29.636L36.7778 29.6925L36.7236 29.6128L36.801 29.5606ZM34.2091 28.5608L34.2335 28.6508L34.1427 28.6751L34.1188 28.5846L34.2091 28.5608ZM32.0942 26.6742L32.0842 26.7668L31.9947 26.7573L32.0009 26.6678L32.0942 26.6742ZM30.712 24.1369L30.6693 24.2198L30.5921 24.1803L30.6259 24.1006L30.712 24.1369ZM31.1176 22.2192L31.0489 22.2824L31.0485 22.282L31.1176 22.2192ZM30.231 21.2499L30.1619 21.3126L30.1044 21.2498L30.162 21.187L30.231 21.2499ZM30.7114 18.3659L30.6253 18.4022L30.5915 18.3225L30.6688 18.283L30.7114 18.3659ZM32.093 15.8286L31.9997 15.8351L31.9936 15.7456L32.083 15.736L32.093 15.8286ZM34.208 13.9414L34.1176 13.9176L34.1416 13.827L34.2324 13.8514L34.208 13.9414ZM36.801 12.9391L36.7236 12.8868L36.7778 12.8072L36.856 12.8637L36.801 12.9391ZM39.563 12.9391L39.5081 12.8637L39.5861 12.8072L39.6403 12.8868L39.563 12.9391ZM42.1578 13.9389L42.1335 13.8489L42.2242 13.8246L42.2482 13.9151L42.1578 13.9389ZM44.2728 15.8256L44.2827 15.7329L44.3722 15.7424L44.3661 15.8319L44.2728 15.8256ZM45.652 18.3628L45.6948 18.28L45.7719 18.3195L45.7381 18.3991L45.652 18.3628ZM45.2464 20.2805L45.3152 20.2173L45.3156 20.2177L45.2464 20.2805ZM46.133 21.2499L46.2021 21.1871L46.2594 21.2498L46.2022 21.3125L46.133 21.2499ZM45.2494 22.2192L45.3186 22.2819L45.3181 22.2824L45.2494 22.2192ZM45.6549 24.1363L45.7411 24.1L45.7749 24.1797L45.6976 24.2192L45.6549 24.1363ZM44.2734 26.6735L44.3667 26.6671L44.3728 26.7566L44.2834 26.7662L44.2734 26.6735ZM40.5197 30.2732L40.4423 30.2209L40.6132 29.9698V30.2732H40.5197ZM38.182 30.0629L38.1271 29.9875L38.182 29.9478L38.2369 29.9876L38.182 30.0629ZM35.3418 29.5346L35.3177 29.4445L35.3819 29.4275L35.4192 29.4822L35.3418 29.5346ZM32.8417 27.9983L32.8516 27.9056L32.9156 27.9125L32.932 27.9745L32.8417 27.9983ZM30.9844 25.6539L31.0271 25.571L31.0819 25.5991L31.0777 25.6603L30.9844 25.6539ZM30.0002 22.7812L30.0693 22.7183L30.1098 22.7626L30.0863 22.8176L30.0002 22.7812ZM30.0002 19.7186L30.0863 19.6823L30.1096 19.7371L30.0694 19.7812L30.0002 19.7186ZM30.9891 16.8464L31.0823 16.84L31.0865 16.9015L31.0315 16.9294L30.9891 16.8464ZM32.8457 14.502L32.9361 14.5259L32.9197 14.5878L32.8557 14.5947L32.8457 14.502ZM35.3459 12.9689L35.4232 13.0212L35.3858 13.0761L35.3216 13.0589L35.3459 12.9689ZM36.9892 11.5747L37.0433 11.4987L37.0441 11.4992L36.9892 11.5747ZM38.182 12.4368L38.2369 12.5122L38.182 12.5519L38.1271 12.5122L38.182 12.4368ZM40.5197 12.2265H40.6132V12.5296L40.4423 12.2789L40.5197 12.2265ZM26.9653 33.0337L27.0327 33.0984L27.0051 33.1269H26.9653V33.0337ZM29.6572 30.2509L29.7253 30.3147L29.7245 30.3156L29.6572 30.2509ZM34.599 33.0337V33.1269H34.4874L34.5069 33.0174L34.599 33.0337ZM13.636 45.4378V45.531H13.5425V45.4378H13.636ZM16.6808 28.8982L16.6296 28.8202L16.6309 28.8194L16.6808 28.8982ZM24.1555 24.1989L24.1056 24.1201L24.249 24.0299V24.1989H24.1555ZM25.7766 34.2598L25.7839 34.1669L25.9815 34.1823L25.844 34.3245L25.7766 34.2598ZM21.9931 38.1715L21.9243 38.2345L21.8647 38.1699L21.9258 38.1068L21.9931 38.1715ZM22.8113 39.0596L22.8786 39.1243L22.8097 39.1956L22.7424 39.1226L22.8113 39.0596ZM32.9644 31.1278L33.0311 31.0625L33.0326 31.0641L32.9644 31.1278ZM32.9644 33.7612L32.8914 33.7029L32.8936 33.7002L32.8961 33.6975L32.9644 33.7612ZM16.0259 27.7582L24.106 22.6781L24.2058 22.8358L16.1256 27.9158L16.0259 27.7582ZM12.3741 34.6992C12.3656 31.8705 13.7477 29.2393 16.0247 27.759L16.1268 27.9151C13.9059 29.359 12.5528 31.9297 12.5611 34.6987L12.3741 34.6992ZM12.3741 45.4378V34.6992L12.5611 34.6987V45.4378H12.3741ZM13.6364 46.7714C12.9338 46.7714 12.3741 46.1687 12.3741 45.4378H12.5611C12.5611 46.077 13.048 46.585 13.6364 46.585V46.7714ZM24.156 46.7714H13.6364V46.585H24.1559L24.156 46.7714ZM29.5091 41.0964C29.5059 44.2235 27.1165 46.7679 24.156 46.7714L24.1559 46.585C27.0024 46.5816 29.3189 44.1318 29.3221 41.0963L29.5091 41.0964ZM29.5091 40.0848V41.0964L29.3221 41.0963V40.0848H29.5091ZM33.8957 34.6605L29.4886 40.1431L29.3426 40.0265L33.7496 34.5439L33.8957 34.6605ZM34.1522 34.3252C34.0736 34.4446 33.9869 34.5578 33.8927 34.664L33.7526 34.5405C33.8409 34.4411 33.9221 34.335 33.9958 34.223L34.1522 34.3252ZM39.9351 34.3673H34.074V34.181H39.9351V34.3673ZM41.7819 32.4135C41.7819 33.487 40.9605 34.3673 39.9351 34.3673V34.181C40.8463 34.181 41.5948 33.3953 41.5948 32.4135H41.7819ZM41.7819 29.7113V32.4135H41.5948V29.7113H41.7819ZM42.3963 29.9997L41.6638 29.8012L41.7129 29.6214L42.4451 29.8198L42.3963 29.9997ZM43.217 29.4993C43.1197 29.8685 42.7583 30.0968 42.3963 29.9997L42.4451 29.8198C42.6978 29.8876 42.9627 29.7307 43.0362 29.4519L43.217 29.4993ZM43.6086 28.0246L43.217 29.4993L43.0362 29.4519L43.4278 27.9769L43.6086 28.0246ZM44.9641 27.9396L43.5281 28.0934L43.5082 27.9081L44.9441 27.7543L44.9641 27.9396ZM45.5733 27.1782C45.5995 27.5587 45.3349 27.9011 44.9641 27.9396L44.9441 27.7543C45.2045 27.7273 45.4067 27.4818 45.3868 27.1909L45.5733 27.1782ZM45.4681 25.65L45.5733 27.1782L45.3868 27.1909L45.2816 25.6628L45.4681 25.65ZM46.7178 25.0745L45.4175 25.7393L45.3322 25.5735L46.6325 24.9086L46.7178 25.0745ZM47.0406 24.1415C47.1887 24.4902 47.0499 24.9049 46.7178 25.0745L46.6325 24.9086C46.8717 24.7864 46.9809 24.4789 46.8684 24.2142L47.0406 24.1415ZM46.4498 22.745L47.0406 24.1415L46.8684 24.2142L46.2775 22.8174L46.4498 22.745ZM47.4363 21.7429L46.4329 22.8438L46.2944 22.7185L47.2979 21.6176L47.4363 21.7429ZM47.4362 20.7529C47.6892 21.0292 47.6894 21.4666 47.4363 21.7429L47.2979 21.6176C47.4858 21.4125 47.4859 21.0837 47.298 20.8785L47.4362 20.7529ZM46.4328 19.6558L47.4362 20.7529L47.298 20.8785L46.2946 19.7814L46.4328 19.6558ZM47.0407 18.3574L46.4498 19.7547L46.2775 19.6824L46.8683 18.2851L47.0407 18.3574ZM46.7178 17.4252C47.0495 17.5948 47.1884 18.0089 47.0407 18.3574L46.8683 18.2851C46.9804 18.0205 46.8715 17.7133 46.6325 17.5911L46.7178 17.4252ZM45.4199 16.761L46.7178 17.4252L46.6325 17.5911L45.3344 16.9268L45.4199 16.761ZM45.5751 15.3221L45.4705 16.8503L45.2839 16.8376L45.3885 15.3094L45.5751 15.3221ZM44.9655 14.5607C45.3363 14.5992 45.6012 14.9416 45.5751 15.3221L45.3885 15.3094C45.4085 15.0186 45.2066 14.7731 44.9461 14.746L44.9655 14.5607ZM43.5299 14.4069L44.9655 14.5607L44.9461 14.746L43.5099 14.5922L43.5299 14.4069ZM43.2187 13.0015L43.6103 14.4757L43.4295 14.5234L43.0379 13.0492L43.2187 13.0015ZM42.3981 12.5012C42.7601 12.4041 43.1214 12.6323 43.2187 13.0015L43.0379 13.0492C42.9644 12.7705 42.6993 12.6134 42.4467 12.6812L42.3981 12.5012ZM41.6641 12.6978L42.3981 12.5012L42.4467 12.6812L41.7126 12.8778L41.6641 12.6978ZM41.7819 11.3266V12.7878H41.5948V11.3266H41.7819ZM39.9351 9.3728C40.9605 9.3728 41.7819 10.2532 41.7819 11.3266H41.5948C41.5948 10.3449 40.8463 9.55917 39.9351 9.55917V9.3728ZM25.9091 9.3728H39.9351V9.55917H25.9091V9.3728ZM24.0624 11.3266C24.0624 10.2532 24.8837 9.3728 25.9091 9.3728V9.55917C24.9979 9.55917 24.2494 10.3449 24.2494 11.3266H24.0624ZM24.0624 22.7569V11.3266H24.2494V22.7569H24.0624ZM42.4128 27.2345C42.4869 26.9549 42.7165 26.7468 42.9969 26.7167L43.0169 26.902C42.8195 26.9232 42.6495 27.0713 42.5936 27.2822L42.4128 27.2345ZM42.068 28.5345L42.4128 27.2345L42.5936 27.2822L42.2488 28.5821L42.068 28.5345ZM40.949 28.1372L42.1827 28.4684L42.134 28.6483L40.9004 28.3171L40.949 28.1372ZM40.7814 28.1147C40.8381 28.1147 40.8942 28.1222 40.949 28.1372L40.9004 28.3171C40.8616 28.3066 40.8215 28.3011 40.7815 28.3011L40.7814 28.1147ZM40.2307 28.413C40.3569 28.2274 40.5613 28.115 40.7814 28.1147L40.7815 28.3011C40.6265 28.3012 40.4788 28.3804 40.3855 28.5176L40.2307 28.413ZM39.4856 29.5083L40.2307 28.413L40.3855 28.5176L39.6404 29.6129L39.4856 29.5083ZM38.5659 28.7241L39.6179 29.4852L39.5081 29.636L38.4561 28.875L38.5659 28.7241ZM37.7981 28.7242C38.0293 28.557 38.3347 28.557 38.5659 28.7241L38.4561 28.875C38.2904 28.7552 38.0737 28.7552 37.9079 28.875L37.7981 28.7242ZM36.7461 29.4852L37.7981 28.7242L37.9079 28.875L36.856 29.636L36.7461 29.4852ZM36.1369 28.4161L36.8785 29.5084L36.7236 29.6128L35.982 28.5206L36.1369 28.4161ZM35.4186 28.1396C35.6912 28.0668 35.9757 28.1789 36.1369 28.4161L35.982 28.5206C35.8631 28.3456 35.6588 28.2685 35.467 28.3196L35.4186 28.1396ZM34.1848 28.4708L35.4186 28.1396L35.467 28.3196L34.2335 28.6508L34.1848 28.4708ZM33.9548 27.2345L34.2996 28.537L34.1188 28.5846L33.774 27.2822L33.9548 27.2345ZM33.3705 26.7167C33.6509 26.7468 33.8806 26.9549 33.9548 27.2345L33.774 27.2822C33.718 27.0712 33.548 26.9232 33.3506 26.902L33.3705 26.7167ZM32.1041 26.5815L33.3705 26.7167L33.3506 26.902L32.0842 26.7668L32.1041 26.5815ZM32.2798 25.3328L32.1874 26.6805L32.0009 26.6678L32.0932 25.3201L32.2798 25.3328ZM31.9007 24.6401C32.1518 24.7689 32.2996 25.0446 32.2798 25.3328L32.0932 25.3201C32.1082 25.1011 31.9956 24.8984 31.8152 24.8058L31.9007 24.6401ZM30.7547 24.054L31.9007 24.6401L31.8152 24.8058L30.6693 24.2198L30.7547 24.054ZM31.3208 22.9417L30.7981 24.1732L30.6259 24.1006L31.1483 22.8695L31.3208 22.9417ZM31.1864 22.1561C31.3798 22.3652 31.432 22.6764 31.3208 22.9417L31.1483 22.8695C31.2321 22.6696 31.1915 22.4367 31.0489 22.2824L31.1864 22.1561ZM30.3001 21.1871L31.1867 22.1565L31.0485 22.282L30.1619 21.3126L30.3001 21.1871ZM31.186 20.3464L30.3001 21.3127L30.162 21.187L31.048 20.2207L31.186 20.3464ZM31.32 19.5601C31.4316 19.8256 31.3798 20.1371 31.186 20.3464L31.048 20.2207C31.1908 20.0664 31.2317 19.8324 31.1476 19.6324L31.32 19.5601ZM30.7976 18.3296L31.32 19.5601L31.1476 19.6324L30.6253 18.4022L30.7976 18.3296ZM31.9003 17.8626L30.7541 18.4488L30.6688 18.283L31.8148 17.6969L31.9003 17.8626ZM32.2792 17.1693C32.2993 17.4577 32.1515 17.7337 31.9003 17.8626L31.8148 17.6969C31.9953 17.6043 32.1079 17.4013 32.0926 17.1822L32.2792 17.1693ZM32.1863 15.8222L32.2792 17.1693L32.0926 17.1822L31.9997 15.8351L32.1863 15.8222ZM33.3694 15.7855L32.103 15.9213L32.083 15.736L33.3494 15.6002L33.3694 15.7855ZM33.9536 15.2676C33.8794 15.5472 33.6498 15.7554 33.3694 15.7855L33.3494 15.6002C33.5468 15.579 33.7168 15.4309 33.7728 15.22L33.9536 15.2676ZM34.2984 13.9651L33.9536 15.2676L33.7728 15.22L34.1176 13.9176L34.2984 13.9651ZM35.4151 14.3625L34.1836 14.0313L34.2324 13.8514L35.4637 14.1826L35.4151 14.3625ZM36.1333 14.0867C35.972 14.3236 35.6877 14.4355 35.4151 14.3625L35.4637 14.1826C35.6554 14.2338 35.8595 14.1569 35.9785 13.9821L36.1333 14.0867ZM36.8784 12.9914L36.1333 14.0867L35.9785 13.9821L36.7236 12.8868L36.8784 12.9914ZM37.7981 13.7756L36.7461 13.0145L36.856 12.8637L37.9079 13.6247L37.7981 13.7756ZM38.566 13.7755C38.3347 13.9427 38.0293 13.9427 37.7981 13.7756L37.9079 13.6247C38.0737 13.7445 38.2904 13.7445 38.4561 13.6247L38.566 13.7755ZM39.6179 13.0145L38.566 13.7755L38.4561 13.6247L39.5081 12.8637L39.6179 13.0145ZM40.2302 14.0837L39.4856 12.9915L39.6403 12.8868L40.3849 13.9789L40.2302 14.0837ZM40.9484 14.36C40.6757 14.4328 40.3913 14.3209 40.2302 14.0837L40.3849 13.9789C40.5037 14.1539 40.7082 14.2312 40.8999 14.1801L40.9484 14.36ZM42.1821 14.0289L40.9484 14.36L40.8999 14.1801L42.1335 13.8489L42.1821 14.0289ZM42.4122 15.2651L42.0674 13.9627L42.2482 13.9151L42.593 15.2175L42.4122 15.2651ZM42.9964 15.783C42.716 15.753 42.4864 15.5448 42.4122 15.2651L42.593 15.2175C42.649 15.4285 42.8189 15.5765 43.0164 15.5977L42.9964 15.783ZM44.2628 15.9182L42.9964 15.783L43.0164 15.5977L44.2827 15.7329L44.2628 15.9182ZM44.0872 17.1669L44.1795 15.8192L44.3661 15.8319L44.2738 17.1796L44.0872 17.1669ZM44.4661 17.8596C44.215 17.7307 44.0673 17.4552 44.0872 17.1669L44.2738 17.1796C44.2587 17.3985 44.3714 17.6013 44.5517 17.6938L44.4661 17.8596ZM45.6092 18.4456L44.4661 17.8596L44.5517 17.6938L45.6948 18.28L45.6092 18.4456ZM45.0433 19.558L45.5659 18.3265L45.7381 18.3991L45.2156 19.6302L45.0433 19.558ZM45.1777 20.3436C44.9842 20.1345 44.932 19.8233 45.0433 19.558L45.2156 19.6302C45.1318 19.8301 45.1725 20.0631 45.3152 20.2173L45.1777 20.3436ZM46.0639 21.3126L45.1773 20.3432L45.3156 20.2177L46.2021 21.1871L46.0639 21.3126ZM45.1801 22.1566L46.0638 21.1872L46.2022 21.3125L45.3186 22.2819L45.1801 22.1566ZM45.0464 22.9421C44.9351 22.6767 44.9871 22.3652 45.1806 22.1561L45.3181 22.2824C45.1754 22.4366 45.135 22.67 45.2187 22.8699L45.0464 22.9421ZM45.5688 24.1726L45.0464 22.9421L45.2187 22.8699L45.7411 24.1L45.5688 24.1726ZM44.4661 24.6395L45.6123 24.0534L45.6976 24.2192L44.5516 24.8053L44.4661 24.6395ZM44.0872 25.3329C44.0671 25.0444 44.2148 24.7684 44.4661 24.6395L44.5516 24.8053C44.3711 24.8979 44.2585 25.1009 44.2738 25.32L44.0872 25.3329ZM44.1801 26.6799L44.0872 25.3329L44.2738 25.32L44.3667 26.6671L44.1801 26.6799ZM42.9969 26.7167L44.2634 26.5809L44.2834 26.7662L43.0169 26.902L42.9969 26.7167ZM40.6132 32.4135C40.6132 32.8019 40.3151 33.1269 39.9353 33.1269V32.9405C40.2009 32.9405 40.4262 32.7102 40.4262 32.4135H40.6132ZM40.6132 30.2732V32.4135H40.4262V30.2732H40.6132ZM40.1004 30.7233L40.4423 30.2209L40.5971 30.3255L40.2552 30.8279L40.1004 30.7233ZM39.4297 30.8502C39.6471 31.0072 39.9437 30.954 40.1004 30.7233L40.2552 30.8279C40.0416 31.1425 39.6261 31.2223 39.3199 31.0011L39.4297 30.8502ZM38.2369 29.9876L39.4297 30.8502L39.3199 31.0011L38.1271 30.1384L38.2369 29.9876ZM36.9343 30.8496L38.1271 29.9875L38.2369 30.1384L37.0441 31.0004L36.9343 30.8496ZM36.2636 30.7226C36.4203 30.9533 36.7169 31.0066 36.9343 30.8496L37.0441 31.0004C36.738 31.2216 36.3224 31.1418 36.1088 30.8272L36.2636 30.7226ZM35.4192 29.4822L36.2636 30.7226L36.1088 30.8272L35.2644 29.5868L35.4192 29.4822ZM33.9149 29.8167L35.3177 29.4445L35.3658 29.6246L33.9632 29.9967L33.9149 29.8167ZM33.3236 29.4487C33.3971 29.7274 33.6622 29.8844 33.9149 29.8167L33.9632 29.9967C33.6012 30.0938 33.2401 29.8654 33.1427 29.4962L33.3236 29.4487ZM32.932 27.9745L33.3236 29.4487L33.1427 29.4962L32.7512 28.0221L32.932 27.9745ZM31.4154 27.7518L32.8516 27.9056L32.8316 28.0909L31.3957 27.9371L31.4154 27.7518ZM30.973 27.1884C30.9531 27.4792 31.1549 27.7248 31.4154 27.7518L31.3957 27.9371C31.0249 27.8987 30.7603 27.5563 30.7865 27.1757L30.973 27.1884ZM31.0777 25.6603L30.973 27.1884L30.7865 27.1757L30.8911 25.6476L31.0777 25.6603ZM29.7267 24.9055L31.0271 25.571L30.9416 25.7368L29.6413 25.0713L29.7267 24.9055ZM29.4908 24.2116C29.3787 24.4762 29.4877 24.7834 29.7267 24.9055L29.6413 25.0713C29.3096 24.9017 29.1709 24.4877 29.3186 24.1391L29.4908 24.2116ZM30.0863 22.8176L29.4908 24.2116L29.3186 24.1391L29.9142 22.7446L30.0863 22.8176ZM29.0658 21.6212L30.0693 22.7183L29.9311 22.8439L28.9277 21.7467L29.0658 21.6212ZM29.066 20.8821C28.8781 21.0872 28.878 21.416 29.0658 21.6212L28.9277 21.7467C28.6746 21.4705 28.6746 21.0329 28.9277 20.7566L29.066 20.8821ZM30.0694 19.7812L29.066 20.8821L28.9277 20.7566L29.931 19.6559L30.0694 19.7812ZM29.4931 18.2856L30.0863 19.6823L29.9141 19.7549L29.3209 18.3582L29.4931 18.2856ZM29.729 17.5911C29.4897 17.7133 29.3807 18.0208 29.4931 18.2856L29.3209 18.3582C29.1728 18.0095 29.3116 17.5948 29.6437 17.4252L29.729 17.5911ZM31.0315 16.9294L29.729 17.5911L29.6437 17.4252L30.9466 16.7634L31.0315 16.9294ZM30.9771 15.3118L31.0823 16.84L30.8957 16.8528L30.7905 15.3246L30.9771 15.3118ZM31.4198 14.7485C31.1593 14.7756 30.9571 15.021 30.9771 15.3118L30.7905 15.3246C30.7644 14.9441 31.0294 14.6017 31.4001 14.5632L31.4198 14.7485ZM32.8557 14.5947L31.4198 14.7485L31.4001 14.5632L32.8357 14.4094L32.8557 14.5947ZM33.3277 13.0509L32.9361 14.5259L32.7553 14.4782L33.1469 13.0034L33.3277 13.0509ZM33.919 12.683C33.6664 12.6153 33.4012 12.7722 33.3277 13.0509L33.1469 13.0034C33.2442 12.6342 33.6056 12.406 33.9676 12.5031L33.919 12.683ZM35.3216 13.0589L33.919 12.683L33.9676 12.5031L35.3701 12.8789L35.3216 13.0589ZM36.2684 11.7807L35.4232 13.0212L35.2685 12.9166L36.1135 11.6762L36.2684 11.7807ZM36.9351 11.6507C36.7178 11.497 36.4239 11.5514 36.2684 11.7807L36.1135 11.6762C36.3256 11.3636 36.7371 11.2822 37.0433 11.4987L36.9351 11.6507ZM38.1271 12.5122L36.9343 11.6501L37.0441 11.4992L38.2369 12.3613L38.1271 12.5122ZM39.4297 11.6501L38.2369 12.5122L38.1271 12.3613L39.3199 11.4992L39.4297 11.6501ZM40.1004 11.7771C39.9438 11.5464 39.6471 11.4931 39.4297 11.6501L39.3199 11.4992C39.6261 11.2781 40.0416 11.358 40.2552 11.6725L40.1004 11.7771ZM40.4423 12.2789L40.1004 11.7771L40.2552 11.6725L40.597 12.1742L40.4423 12.2789ZM40.6132 11.3266V12.2265H40.4262V11.3266H40.6132ZM39.9353 10.6132C40.3151 10.6132 40.6132 10.9382 40.6132 11.3266H40.4262C40.4262 11.0299 40.2009 10.7996 39.9353 10.7996V10.6132ZM25.9093 10.6132H39.9353V10.7996H25.9093V10.6132ZM25.2314 11.3266C25.2314 10.9382 25.5294 10.6132 25.9093 10.6132V10.7996C25.6436 10.7996 25.4184 11.0299 25.4184 11.3266H25.2314ZM25.2314 32.4135V11.3266H25.4184V32.4135H25.2314ZM25.9093 33.1269C25.5294 33.1269 25.2314 32.8019 25.2314 32.4135H25.4184C25.4184 32.7102 25.6436 32.9405 25.9093 32.9405V33.1269ZM26.9653 33.1269H25.9093V32.9405H26.9653V33.1269ZM29.7245 30.3156L27.0327 33.0984L26.898 32.969L29.5898 30.1862L29.7245 30.3156ZM33.7232 30.3147C32.6178 29.144 30.8306 29.144 29.7253 30.3147L29.589 30.187C30.7682 28.938 32.6802 28.938 33.8594 30.187L33.7232 30.3147ZM34.5069 33.0174C34.6823 32.0331 34.3881 31.0217 33.7232 30.3147L33.8594 30.187C34.5661 30.9383 34.8764 32.0098 34.691 33.05L34.5069 33.0174ZM39.9353 33.1269H34.599V32.9405H39.9353V33.1269ZM13.636 45.3446H24.1555L24.1556 45.531H13.636V45.3446ZM13.7295 34.6986V45.4378H13.5425V34.699L13.7295 34.6986ZM16.732 28.9762C14.861 30.1956 13.7216 32.3636 13.7295 34.6986L13.5425 34.699C13.5344 32.3043 14.7028 30.076 16.6296 28.8202L16.732 28.9762ZM24.2053 24.2777L16.7307 28.977L16.6309 28.8194L24.1056 24.1201L24.2053 24.2777ZM24.062 32.4137V24.1989H24.249V32.4135L24.062 32.4137ZM25.7693 34.3528C24.8038 34.2776 24.0645 33.4279 24.062 32.4137L24.249 32.4135C24.2513 33.3405 24.9252 34.1001 25.7839 34.1669L25.7693 34.3528ZM21.9258 38.1068L25.7093 34.1952L25.844 34.3245L22.0605 38.2362L21.9258 38.1068ZM22.7424 39.1226L21.9243 38.2345L22.062 38.1085L22.8802 38.9966L22.7424 39.1226ZM30.545 31.1987L22.8786 39.1243L22.744 38.9949L30.4103 31.0693L30.545 31.1987ZM32.8977 31.1931C32.2382 30.5244 31.2016 30.5266 30.545 31.1987L30.4103 31.0693C31.1401 30.3224 32.298 30.3191 33.0311 31.0625L32.8977 31.1931ZM32.8961 33.6975C33.5462 33.0055 33.5462 31.8835 32.8961 31.1915L33.0326 31.0641C33.75 31.8278 33.75 33.0612 33.0326 33.8249L32.8961 33.6975ZM28.313 39.3952L32.8914 33.7029L33.0373 33.8195L28.459 39.5117L28.313 39.3952ZM28.1529 39.856C28.1528 39.6879 28.2092 39.5245 28.313 39.3952L28.459 39.5117C28.3825 39.607 28.3398 39.729 28.3399 39.8559L28.1529 39.856ZM28.1529 41.0964V39.856L28.3399 39.8559V41.0964H28.1529ZM24.1555 45.3446C26.3567 45.342 28.1503 43.4472 28.1529 41.0964H28.3399C28.3373 43.5387 26.4709 45.5282 24.1556 45.531L24.1555 45.3446Z" fill="black"/>
<path d="M21.8184 13.187H20.6495V11.9466H19.4807V10.7062H20.6495V9.46582H21.8184V10.7062H22.9872V11.9466H21.8184V13.187Z" fill="#3F674E"/>
<path d="M45.1948 13.187H44.026V11.9466H42.8572V10.7062H44.026V9.46582H45.1948V10.7062H46.3637V11.9466H45.1948V13.187Z" fill="#00B840"/>
<path d="M19.4804 14.4277V15.6681H18.3115V16.9085H17.1427V15.6681H15.9739V14.4277H17.1427V13.1873H18.3115V14.4277H19.4804Z" fill="#00B840"/>
<path d="M31.7103 12.6426H26.5789V13.5502H31.7103V12.6426Z" fill="black"/>
<path d="M31.1384 15.8193H26.5845V16.7269H31.1384V15.8193Z" fill="black"/>
<path d="M30.8607 17.6345H26.5845V18.5421H30.8607V17.6345Z" fill="black"/>
<path fill-rule="evenodd" clip-rule="evenodd" d="M41.7223 17.0191C41.2555 16.5539 40.4986 16.5539 40.0318 17.0191L34.3905 22.6408C34.2236 22.8071 34.1098 23.0189 34.0636 23.2495L33.8296 24.4151C33.7181 24.9708 34.2097 25.4607 34.7674 25.3496L35.937 25.1165C36.1684 25.0704 36.381 24.957 36.5478 24.7907L42.1892 19.169C42.656 18.7038 42.656 17.9495 42.1892 17.4843L41.7223 17.0191ZM40.5953 17.5806C40.7509 17.4256 41.0032 17.4256 41.1588 17.5806L41.6257 18.0458C41.7813 18.2009 41.7813 18.4523 41.6257 18.6074L40.5611 19.6682L39.5307 18.6415L40.5953 17.5806ZM38.9673 19.203L34.954 23.2023C34.8984 23.2578 34.8605 23.3284 34.845 23.4053L34.6111 24.5709L35.7807 24.3377C35.8578 24.3223 35.9287 24.2846 35.9843 24.2291L39.9976 20.2298L38.9673 19.203Z" fill="black"/>
</g>
<defs>
<clipPath id="clip0_8302_18839">
<rect width="36" height="41" fill="white" transform="translate(12 9)"/>
</clipPath>
</defs>
</svg>
