<svg width="60" height="61" viewBox="0 0 60 61" fill="none" xmlns="http://www.w3.org/2000/svg">
<rect y="0.800049" width="60" height="60" rx="5" fill="#F7F7F7"/>
<g clip-path="url(#clip0_8302_18766)">
<path d="M30.607 47.6644C40.328 47.6644 48.2084 46.4299 48.2084 44.907C48.2084 43.3842 40.328 42.1497 30.607 42.1497C20.886 42.1497 13.0056 43.3842 13.0056 44.907C13.0056 46.4299 20.886 47.6644 30.607 47.6644Z" fill="#2E2E2E"/>
<path fill-rule="evenodd" clip-rule="evenodd" d="M17.2324 35.532C17.2324 35.532 20.5599 26.2093 27.8432 31.6717C35.1266 37.1341 37.9269 25.4773 37.9269 25.4773V43.3262C37.9269 43.3262 37.7479 44.0875 37.43 44.3556C37.1121 44.6237 36.0698 44.8924 36.0698 44.8924C36.0698 44.8924 34.8141 44.8204 34.2489 44.3556C33.6837 43.8907 33.4186 42.7119 33.4186 42.7119V41.5097H17.2324V35.532Z" fill="#00B840"/>
<path d="M36.0695 44.3555H14.2195C12.8787 44.3555 11.7917 43.3678 11.7917 42.1496V41.0466H33.6417V42.1496C33.6417 43.3678 34.7287 44.3555 36.0695 44.3555Z" fill="#3F674E"/>
<path d="M42.9908 17.5496H38.1353V16.4466C38.1353 15.2283 39.2222 14.2407 40.563 14.2407C41.9038 14.2407 42.9908 15.2283 42.9908 16.4466V17.5496Z" fill="#3F674E"/>
<path d="M30.0495 17.8322C30.6737 16.9297 29.5252 15.8808 28.5366 16.4509C28.2787 15.4099 26.6541 15.4099 26.3967 16.4509C25.4081 15.8811 24.2593 16.93 24.8838 17.8322C23.7435 18.0676 23.7435 19.5509 24.8838 19.7858C24.2596 20.6883 25.4081 21.7372 26.3967 21.1671C26.6546 22.2081 28.2793 22.2081 28.5366 21.1671C29.5252 21.7369 30.674 20.6883 30.0495 19.7858C31.1898 19.5507 31.1898 18.0673 30.0495 17.8322Z" fill="#00B840" stroke="#2E2E2E" stroke-width="1.5"/>
<path d="M42.7457 21.1936C41.74 21.1936 40.9248 21.8709 40.9248 22.7062V38.8407H44.5665V22.7062C44.5665 21.8709 43.7513 21.1936 42.7457 21.1936Z" fill="#00B840"/>
<path d="M40.9248 38.8408L42.7457 42.1496L44.5665 38.8408H40.9248Z" fill="#00B840"/>
<path fill-rule="evenodd" clip-rule="evenodd" d="M42.7684 17.7377C43.0912 17.7377 43.3528 17.499 43.3528 17.2045V16.1384C43.351 14.6669 42.0437 13.4746 40.4305 13.4729H19.3898C17.7766 13.4746 16.4693 14.6669 16.4675 16.1384V41.1936H12.3762C12.0534 41.1936 11.7917 41.4323 11.7917 41.7267V42.7929C11.7936 44.2643 13.1009 45.4567 14.7141 45.4584H35.7548C37.368 45.4567 38.6753 44.2643 38.6771 42.7929V17.7377H42.7684ZM33.4169 41.1936H17.6364V16.1384C17.6375 15.2555 18.4219 14.5401 19.3898 14.5391H38.094C37.7132 14.9998 37.5075 15.5613 37.5082 16.1384V42.7929C37.5082 43.6761 36.7232 44.3922 35.7548 44.3922C34.7864 44.3922 34.0014 43.6761 34.0014 42.7929V41.7267C34.0014 41.4323 33.7398 41.1936 33.4169 41.1936ZM14.7138 44.3922C13.7459 44.3912 12.9615 43.6757 12.9604 42.7929V42.2598H32.8323V42.7929C32.8315 43.3699 33.0372 43.9314 33.4181 44.3922H14.7138ZM42.184 16.1383C42.1828 15.2555 41.3985 14.5401 40.4305 14.5391C39.4627 14.5401 38.6783 15.2555 38.6772 16.1383V16.6714H42.184V16.1383Z" fill="black"/>
<path d="M16.4674 41.1937V41.2883H16.5601V41.1937H16.4674ZM38.677 17.7378V17.6431H38.5843V17.7378H38.677ZM17.6363 41.1937H17.5436V41.2883H17.6363V41.1937ZM38.094 14.5392L38.1648 14.6002L38.2934 14.4446H38.094V14.5392ZM12.9603 42.2599V42.1653H12.8677V42.2599H12.9603ZM32.8322 42.2599H32.9248V42.1653H32.8322V42.2599ZM33.418 44.3923V44.4869H33.6175L33.4888 44.3313L33.418 44.3923ZM38.6771 16.6716H38.5844V16.7661H38.6771V16.6716ZM42.1839 16.6716V16.7661H42.2766V16.6716H42.1839ZM43.2601 17.2047C43.2601 17.4371 43.05 17.6431 42.7683 17.6431V17.8324C43.1322 17.8324 43.4454 17.561 43.4454 17.2047H43.2601ZM43.2601 16.1385V17.2047H43.4454V16.1385H43.2601ZM40.4304 13.5676C42.0025 13.5692 43.2583 14.7289 43.2601 16.1385H43.4454C43.4436 14.6052 42.0848 13.3801 40.4305 13.3784L40.4304 13.5676ZM19.3897 13.5676H40.4304L40.4305 13.3784H19.3897V13.5676ZM16.5601 16.1386C16.5618 14.729 17.8176 13.5692 19.3897 13.5676V13.3784C17.7354 13.3801 16.3766 14.6051 16.3747 16.1383L16.5601 16.1386ZM16.5601 41.1937V16.1386L16.3747 16.1383V41.1937H16.5601ZM12.3761 41.2883H16.4674V41.0991H12.3761V41.2883ZM11.8843 41.7268C11.8843 41.4944 12.0944 41.2883 12.3761 41.2883V41.0991C12.0122 41.0991 11.699 41.3705 11.699 41.7268H11.8843ZM11.8843 42.793V41.7268H11.699V42.793H11.8843ZM14.7141 45.3639C13.1419 45.3623 11.8861 44.2026 11.8843 42.793H11.699C11.7009 44.3263 13.0596 45.5514 14.7139 45.5531L14.7141 45.3639ZM35.7547 45.3639H14.7141L14.7139 45.5531H35.7547V45.3639ZM38.5843 42.7929C38.5826 44.2024 37.3269 45.3623 35.7547 45.3639V45.5531C37.409 45.5514 38.7679 44.3264 38.7697 42.7931L38.5843 42.7929ZM38.5843 17.7378V42.7929L38.7697 42.7931V17.7378H38.5843ZM42.7683 17.6431H38.677V17.8324H42.7683V17.6431ZM17.6363 41.2883H33.4169V41.0991H17.6363V41.2883ZM17.5436 16.1383V41.1937H17.729V16.1385L17.5436 16.1383ZM19.3897 14.4446C18.3807 14.4457 17.5448 15.1937 17.5436 16.1383L17.729 16.1385C17.73 15.3175 18.463 14.6348 19.3898 14.6338L19.3897 14.4446ZM38.094 14.4446H19.3897L19.3898 14.6338H38.094V14.4446ZM37.6008 16.1385C37.6001 15.5849 37.7974 15.0447 38.1648 14.6002L38.0232 14.4782C37.6288 14.9552 37.4147 15.5381 37.4154 16.1386L37.6008 16.1385ZM37.6008 42.793V16.1385L37.4154 16.1386V42.793H37.6008ZM35.7547 44.4869C36.7642 44.4869 37.6008 43.7382 37.6008 42.793H37.4154C37.4154 43.6143 36.682 44.2977 35.7547 44.2977V44.4869ZM33.9086 42.793C33.9086 43.7382 34.7452 44.4869 35.7547 44.4869V44.2977C34.8274 44.2977 34.094 43.6143 34.094 42.793H33.9086ZM33.9086 41.7268V42.793H34.094V41.7268H33.9086ZM33.4169 41.2883C33.6985 41.2883 33.9086 41.4944 33.9086 41.7268H34.094C34.094 41.3705 33.7808 41.0991 33.4169 41.0991V41.2883ZM12.8677 42.793C12.8688 43.7377 13.7047 44.4858 14.7136 44.4869L14.7138 44.2977C13.787 44.2968 13.054 43.6139 13.053 42.7929L12.8677 42.793ZM12.8677 42.2599V42.793L13.053 42.7929V42.2599H12.8677ZM32.8322 42.1653H12.9603V42.3545H32.8322V42.1653ZM32.9248 42.7931V42.2599H32.7395V42.793L32.9248 42.7931ZM33.4888 44.3313C33.1214 43.8868 32.9242 43.3467 32.9248 42.7931L32.7395 42.793C32.7387 43.3935 32.9528 43.9763 33.3472 44.4533L33.4888 44.3313ZM14.7136 44.4869H33.418V44.2977H14.7138L14.7136 44.4869ZM40.4304 14.6338C41.3572 14.6348 42.0901 15.3176 42.0912 16.1386L42.2766 16.1385C42.2754 15.1938 41.4395 14.4457 40.4306 14.4446L40.4304 14.6338ZM38.7698 16.1386C38.7708 15.3176 39.5035 14.6348 40.4304 14.6338L40.4306 14.4446C39.4216 14.4457 38.5856 15.1937 38.5844 16.1383L38.7698 16.1386ZM38.7698 16.6716V16.1386L38.5844 16.1383V16.6716H38.7698ZM42.1839 16.577H38.6771V16.7661H42.1839V16.577ZM42.0912 16.1386V16.6716H42.2766V16.1385L42.0912 16.1386Z" fill="black"/>
<path d="M23.9307 25.6055H30.0001V26.7084H23.9307V25.6055Z" fill="black"/>
<path d="M26.3584 23.3994H32.4278V24.5024H26.3584V23.3994Z" fill="black"/>
<path d="M22.7168 23.3994H25.1446V24.5024H22.7168V23.3994Z" fill="black"/>
<path d="M21.5029 28.9143H36.0696V30.0173H21.5029V28.9143Z" fill="black"/>
<path d="M19.0752 28.9143H20.2891V30.0173H19.0752V28.9143Z" fill="black"/>
<path d="M21.5029 32.2231H36.0696V33.3261H21.5029V32.2231Z" fill="black"/>
<path d="M19.0752 32.2231H20.2891V33.3261H19.0752V32.2231Z" fill="black"/>
<path d="M21.5029 35.532H25.1446V36.635H21.5029V35.532Z" fill="black"/>
<path d="M26.3584 35.532H36.0695V36.635H26.3584V35.532Z" fill="black"/>
<path d="M21.5029 37.7378H31.214V38.8408H21.5029V37.7378Z" fill="black"/>
<path d="M19.0752 37.7378H20.2891V38.8408H19.0752V37.7378Z" fill="black"/>
<path d="M32.428 37.7378H36.0696V38.8408H32.428V37.7378Z" fill="black"/>
<path fill-rule="evenodd" clip-rule="evenodd" d="M44.9711 22.2452H45.4769C46.3145 22.2462 46.9933 22.9691 46.9942 23.8612V29.7863H45.9827V23.8612C45.9824 23.5638 45.7561 23.3228 45.4769 23.3225H44.9711V39.4821C44.9711 39.5657 44.9527 39.6482 44.9173 39.7228L43.4003 42.9548C43.3146 43.1372 43.1395 43.2524 42.9479 43.2524C42.7564 43.2524 42.5813 43.1372 42.4956 42.9548L40.9782 39.7228C40.9429 39.6482 40.9249 39.5657 40.9248 39.4821V22.2452C40.9248 21.0553 41.8306 20.0906 42.9479 20.0906C44.0653 20.0906 44.9711 21.0553 44.9711 22.2452ZM43.9597 22.2452C43.9591 21.6505 43.5065 21.1686 42.9482 21.1679C42.3898 21.1686 41.9372 21.6505 41.9366 22.2452H43.9597ZM43.9597 38.9435H41.9366V30.8637H43.9597V38.9435ZM41.9366 29.7863H43.9597V28.709H41.9366V29.7863ZM42.9479 41.5095L42.2489 40.0208H43.6469L42.9479 41.5095ZM41.9366 27.6318H43.9597V23.3225H41.9366V27.6318Z" fill="black"/>
<path d="M44.9711 22.2454H44.9479V22.2691H44.9711V22.2454ZM46.9942 29.7865V29.8102H47.0174V29.7865H46.9942ZM45.9827 29.7865H45.9595V29.8102H45.9827V29.7865ZM44.9711 23.3227V23.2991H44.9479V23.3227H44.9711ZM44.9173 39.723L44.8964 39.7127L44.8804 39.7467H44.9173V39.723ZM44.9173 39.723L44.9386 39.7333L44.9545 39.6994H44.9177L44.9173 39.723ZM40.9782 39.723V39.6994H40.9414L40.9573 39.7333L40.9782 39.723ZM40.9782 39.723L40.9786 39.7467H41.0155L40.9994 39.7127L40.9782 39.723ZM43.9597 22.2454V22.2691H43.9829L43.9829 22.2454L43.9597 22.2454ZM41.9366 22.2454L41.9134 22.2454L41.9133 22.2691H41.9366V22.2454ZM41.9366 38.9437H41.9134V38.9673H41.9366V38.9437ZM43.9597 38.9437V38.9673H43.9829V38.9437H43.9597ZM41.9366 30.8639V30.8402H41.9134V30.8639H41.9366ZM43.9597 30.8639H43.9829V30.8402H43.9597V30.8639ZM43.9597 29.7865V29.8102H43.9829V29.7865H43.9597ZM41.9366 29.7865H41.9134V29.8102H41.9366V29.7865ZM43.9597 28.7093H43.9829V28.6856H43.9597V28.7093ZM41.9366 28.7093V28.6856H41.9134V28.7093H41.9366ZM42.2489 40.021V39.9973H42.2121L42.228 40.0312L42.2489 40.021ZM42.9479 41.5097L42.927 41.52L42.9479 41.5645L42.9688 41.52L42.9479 41.5097ZM43.6469 40.021L43.6678 40.0312L43.6837 39.9973H43.6469V40.021ZM43.9597 27.632V27.6556H43.9829V27.632H43.9597ZM41.9366 27.632H41.9134V27.6556H41.9366V27.632ZM43.9597 23.3227H43.9829V23.2991H43.9597V23.3227ZM41.9366 23.3227V23.2991H41.9134V23.3227H41.9366ZM45.4769 22.2218H44.9711V22.2691H45.4769L45.4769 22.2218ZM47.0174 23.8614C47.0164 22.9572 46.3282 22.2228 45.4769 22.2218L45.4769 22.2691C46.3008 22.2701 46.9701 22.9815 46.971 23.8614H47.0174ZM47.0174 29.7865V23.8614H46.971V29.7865H47.0174ZM45.9827 29.8102H46.9942V29.7629H45.9827V29.8102ZM45.9595 23.8614V29.7865H46.0058V23.8614H45.9595ZM45.4769 23.3464C45.7423 23.3467 45.9592 23.5761 45.9595 23.8614H46.0058C46.0055 23.552 45.7698 23.2994 45.4769 23.2991L45.4769 23.3464ZM44.9711 23.3464H45.4769L45.4769 23.2991H44.9711V23.3464ZM44.9943 39.4823V23.3227H44.9479V39.4823H44.9943ZM44.9386 39.7333C44.9754 39.6554 44.9942 39.5695 44.9943 39.4823H44.9479C44.9479 39.5625 44.9302 39.6413 44.8964 39.7127L44.9386 39.7333ZM43.4212 42.9652L44.9386 39.7333L44.8964 39.7127L43.3794 42.9447L43.4212 42.9652ZM42.9479 43.2763C43.1488 43.2763 43.3318 43.1555 43.4212 42.9652L43.3794 42.9447C43.2974 43.1194 43.1302 43.229 42.9479 43.229V43.2763ZM42.4747 42.9652C42.5641 43.1555 42.7471 43.2763 42.9479 43.2763V43.229C42.7657 43.229 42.5985 43.1194 42.5165 42.9447L42.4747 42.9652ZM40.9573 39.7333L42.4747 42.9652L42.5165 42.9447L40.9994 39.7127L40.9573 39.7333ZM40.9016 39.4823C40.9017 39.5695 40.9204 39.6554 40.9573 39.7333L40.9994 39.7127C40.9657 39.6413 40.948 39.5624 40.948 39.4823L40.9016 39.4823ZM40.9016 22.2454V39.4823L40.948 39.4823V22.2454H40.9016ZM42.9479 20.0671C41.8169 20.0671 40.9016 21.0434 40.9016 22.2454H40.948C40.948 21.0675 41.8443 20.1144 42.9479 20.1144V20.0671ZM44.9943 22.2454C44.9943 21.0434 44.079 20.0671 42.9479 20.0671V20.1144C44.0516 20.1144 44.9479 21.0675 44.9479 22.2454H44.9943ZM42.9481 21.1917C43.4928 21.1924 43.9359 21.6628 43.9365 22.2454L43.9829 22.2454C43.9822 21.6386 43.5202 21.1452 42.9481 21.1444L42.9481 21.1917ZM41.9597 22.2454C41.9604 21.6628 42.4034 21.1924 42.9481 21.1917L42.9481 21.1444C42.3761 21.1452 41.914 21.6386 41.9134 22.2454L41.9597 22.2454ZM43.9597 22.2218H41.9366V22.2691H43.9597V22.2218ZM41.9366 38.9673H43.9597V38.92H41.9366V38.9673ZM41.9134 30.8639V38.9437H41.9597V30.8639H41.9134ZM43.9597 30.8402H41.9366V30.8875H43.9597V30.8402ZM43.9829 38.9437V30.8639H43.9365V38.9437H43.9829ZM43.9597 29.7629H41.9366V29.8102H43.9597V29.7629ZM43.9365 28.7093V29.7865H43.9829V28.7093H43.9365ZM41.9366 28.7329H43.9597V28.6856H41.9366V28.7329ZM41.9597 29.7865V28.7093H41.9134V29.7865H41.9597ZM42.228 40.0312L42.927 41.52L42.9688 41.4995L42.2698 40.0108L42.228 40.0312ZM43.6469 39.9973H42.2489V40.0446H43.6469V39.9973ZM42.9688 41.52L43.6678 40.0312L43.626 40.0108L42.927 41.4995L42.9688 41.52ZM43.9597 27.6083H41.9366V27.6556H43.9597V27.6083ZM43.9365 23.3227V27.632H43.9829V23.3227H43.9365ZM41.9366 23.3464H43.9597V23.2991H41.9366V23.3464ZM41.9597 27.632V23.3227H41.9134V27.632H41.9597Z" fill="black"/>
<path d="M26.7847 19.6215H26.3469L26.9155 17.9016H27.4577L28.0263 19.6215H27.5886L27.1928 18.3349H27.1796L26.7847 19.6215ZM26.7262 18.9447H27.6412V19.2604H26.7262V18.9447ZM28.7096 19.3729V18.1569H29.0413V19.3729H28.7096ZM28.2793 18.9346V18.5953H29.4708V18.9346H28.2793Z" fill="#2E2E2E"/>
</g>
<defs>
<clipPath id="clip0_8302_18766">
<rect width="38" height="35" fill="white" transform="translate(11 13)"/>
</clipPath>
</defs>
</svg>
