<svg width="60" height="60" viewBox="0 0 60 60" fill="none" xmlns="http://www.w3.org/2000/svg">
<rect width="60" height="60" rx="5" fill="#F7F7F7"/>
<g clip-path="url(#clip0_8302_18799)">
<path d="M28.1139 48.9077C37.3607 48.9077 44.8567 47.7531 44.8567 46.3288C44.8567 44.9046 37.3607 43.75 28.1139 43.75C18.8671 43.75 11.3711 44.9046 11.3711 46.3288C11.3711 47.7531 18.8671 48.9077 28.1139 48.9077Z" fill="#2E2E2E"/>
<path fill-rule="evenodd" clip-rule="evenodd" d="M14.2817 43.0899V40.9622H15.2723V38.3832C15.2723 38.3832 16.381 37.613 17.1686 37.1889C17.9562 36.7649 18.7647 36.4459 18.7647 36.4459V38.3832H19.7983V40.9622H22.2068V38.3832H23.3194V34.978C23.3194 34.978 23.8979 34.8799 24.4552 34.8799C25.0125 34.8799 25.6395 34.8799 25.6395 34.8799V38.3832H26.9089V40.9622H29.2114V38.3832H30.3993V35.9778C30.3993 35.9778 31.0837 36.229 31.6202 36.4459C32.1567 36.6626 32.7452 36.9257 32.7452 36.9257V38.3832H33.7515V41.0703H36.2059V38.3832H37.3253V36.8213C37.3253 36.8213 37.8854 36.6984 38.4595 36.5724C39.0335 36.4464 39.6075 36.3205 39.6075 36.3205V38.3832H40.8187V41.0703H41.9453V43.0899H14.2817Z" fill="#00B840"/>
<path fill-rule="evenodd" clip-rule="evenodd" d="M30.2851 14.498C29.3208 14.498 28.5361 15.2854 28.5361 16.2531H29.2567L42.5282 22.9121V26.1988H41.3622V28.539H40.1962V37.8997H41.3622V40.2399H42.5282V43.7501H13.3779V40.2399H14.5439V37.8997H15.71V28.539H14.5439V26.1988H13.3779V22.9121L26.6495 16.2531H27.3701C27.3701 14.6401 28.6777 13.3279 30.2851 13.3279H33.2001V14.498H30.2851ZM19.2079 39.0698H15.7099V40.2399H19.2079V39.0698ZM22.7061 28.539V37.8997H21.5401V40.2399H20.3741V37.8997H19.208V28.539H20.3741V26.1988H21.5401V28.539H22.7061ZM29.7021 37.8997V28.539H28.5361V26.1988H27.3701V28.539H26.2041V37.8997H27.3701V40.2399H28.5361V37.8997H29.7021ZM36.6982 28.539V37.8997H35.5322V40.2399H34.3662V37.8997H33.2002V28.539H34.3662V26.1988H35.5322V28.539H36.6982ZM40.1961 40.2399V39.0698H36.6981V40.2399H40.1961ZM37.8641 37.8997V28.539H39.0301V37.8997H37.8641ZM29.702 27.3689H33.2001V26.1988H29.702V27.3689ZM32.034 28.539V37.8997H30.868V28.539H32.034ZM33.2001 40.2399V39.0698H29.702V40.2399H33.2001ZM26.204 27.3689H22.706V26.1988H26.204V27.3689ZM25.0379 37.8997V28.539H23.8719V37.8997H25.0379ZM26.204 39.0698V40.2399H22.706V39.0698H26.204ZM15.7099 27.3689H19.2079V26.1988H15.7099V27.3689ZM18.0419 28.539V37.8997H16.8758V28.539H18.0419ZM41.3621 42.5801V41.41H14.5439V42.5801H41.3621ZM40.1961 27.3689H36.6981V26.1988H40.1961V27.3689ZM35.5321 25.0287H41.3621V23.6352L28.9814 17.4232H28.536V21.5185H27.37V17.4232H26.9246L14.5439 23.6352V25.0287H20.374H21.54H27.37H28.536H34.3661H35.5321Z" fill="black"/>
<path d="M28.5363 16.253H28.4887V16.3007H28.5363V16.253ZM29.2569 16.253L29.2781 16.2103L29.2681 16.2052H29.2569V16.253ZM42.5284 22.912H42.576V22.8825L42.5497 22.8692L42.5284 22.912ZM42.5284 26.1987V26.2464H42.576V26.1987H42.5284ZM41.3624 26.1987V26.151H41.3148V26.1987H41.3624ZM41.3624 28.5389V28.5866H41.4099V28.5389H41.3624ZM40.1964 28.5389V28.4912H40.1488V28.5389H40.1964ZM40.1964 37.8996H40.1488V37.9473H40.1964V37.8996ZM41.3624 37.8996H41.4099V37.8519H41.3624V37.8996ZM41.3624 40.2398H41.3148V40.2875H41.3624V40.2398ZM42.5284 40.2398H42.576V40.1921H42.5284V40.2398ZM42.5284 43.75V43.7978H42.576V43.75H42.5284ZM13.3781 43.75H13.3306V43.7978H13.3781V43.75ZM13.3781 40.2398V40.1921H13.3306V40.2398H13.3781ZM14.5441 40.2398V40.2875H14.5917V40.2398H14.5441ZM14.5441 37.8996V37.8519H14.4966V37.8996H14.5441ZM15.7102 37.8996V37.9473H15.7577V37.8996H15.7102ZM15.7102 28.5389H15.7577V28.4912H15.7102V28.5389ZM14.5441 28.5389H14.4966V28.5866H14.5441V28.5389ZM14.5441 26.1987H14.5917V26.151H14.5441V26.1987ZM13.3781 26.1987H13.3306V26.2464H13.3781V26.1987ZM13.3781 22.912L13.3569 22.8692L13.3306 22.8825V22.912H13.3781ZM26.6497 16.253V16.2052H26.6385L26.6284 16.2103L26.6497 16.253ZM27.3703 16.253V16.3007H27.4178V16.253H27.3703ZM33.2003 13.3278H33.2479V13.28H33.2003V13.3278ZM33.2003 14.4978V14.5456H33.2479V14.4978H33.2003ZM15.7101 39.0697V39.022H15.6625V39.0697H15.7101ZM19.2081 39.0697H19.2557V39.022H19.2081V39.0697ZM15.7101 40.2398H15.6625V40.2875H15.7101V40.2398ZM19.2081 40.2398V40.2875H19.2557V40.2398H19.2081ZM22.7063 37.8996V37.9473H22.7538V37.8996H22.7063ZM22.7063 28.5389H22.7538V28.4912H22.7063V28.5389ZM21.5403 37.8996V37.8519H21.4927V37.8996H21.5403ZM21.5403 40.2398V40.2875H21.5878V40.2398H21.5403ZM20.3743 40.2398H20.3267V40.2875H20.3743V40.2398ZM20.3743 37.8996H20.4218V37.8519H20.3743V37.8996ZM19.2082 37.8996H19.1607V37.9473H19.2082V37.8996ZM19.2082 28.5389V28.4912H19.1607V28.5389H19.2082ZM20.3743 28.5389V28.5866H20.4218V28.5389H20.3743ZM20.3743 26.1987V26.151H20.3267V26.1987H20.3743ZM21.5403 26.1987H21.5878V26.151H21.5403V26.1987ZM21.5403 28.5389H21.4927V28.5866H21.5403V28.5389ZM29.7023 28.5389H29.7499V28.4912H29.7023V28.5389ZM29.7023 37.8996V37.9473H29.7499V37.8996H29.7023ZM28.5363 28.5389H28.4888V28.5866H28.5363V28.5389ZM28.5363 26.1987H28.5839V26.151H28.5363V26.1987ZM27.3703 26.1987V26.151H27.3228V26.1987H27.3703ZM27.3703 28.5389V28.5866H27.4179V28.5389H27.3703ZM26.2043 28.5389V28.4912H26.1567V28.5389H26.2043ZM26.2043 37.8996H26.1567V37.9473H26.2043V37.8996ZM27.3703 37.8996H27.4179V37.8519H27.3703V37.8996ZM27.3703 40.2398H27.3228V40.2875H27.3703V40.2398ZM28.5363 40.2398V40.2875H28.5839V40.2398H28.5363ZM28.5363 37.8996V37.8519H28.4888V37.8996H28.5363ZM36.6984 37.8996V37.9473H36.746V37.8996H36.6984ZM36.6984 28.5389H36.746V28.4912H36.6984V28.5389ZM35.5324 37.8996V37.8519H35.4848V37.8996H35.5324ZM35.5324 40.2398V40.2875H35.58V40.2398H35.5324ZM34.3664 40.2398H34.3188V40.2875H34.3664V40.2398ZM34.3664 37.8996H34.414V37.8519H34.3664V37.8996ZM33.2004 37.8996H33.1528V37.9473H33.2004V37.8996ZM33.2004 28.5389V28.4912H33.1528V28.5389H33.2004ZM34.3664 28.5389V28.5866H34.414V28.5389H34.3664ZM34.3664 26.1987V26.151H34.3188V26.1987H34.3664ZM35.5324 26.1987H35.58V26.151H35.5324V26.1987ZM35.5324 28.5389H35.4848V28.5866H35.5324V28.5389ZM40.1963 39.0697H40.2439V39.022H40.1963V39.0697ZM40.1963 40.2398V40.2875H40.2439V40.2398H40.1963ZM36.6983 39.0697V39.022H36.6508V39.0697H36.6983ZM36.6983 40.2398H36.6508V40.2875H36.6983V40.2398ZM37.8643 28.5389V28.4912H37.8167V28.5389H37.8643ZM37.8643 37.8996H37.8167V37.9473H37.8643V37.8996ZM39.0303 28.5389H39.0778V28.4912H39.0303V28.5389ZM39.0303 37.8996V37.9473H39.0778V37.8996H39.0303ZM33.2003 27.3688V27.4165H33.2478V27.3688H33.2003ZM29.7022 27.3688H29.6547V27.4165H29.7022V27.3688ZM33.2003 26.1987H33.2478V26.151H33.2003V26.1987ZM29.7022 26.1987V26.151H29.6547V26.1987H29.7022ZM32.0342 37.8996V37.9473H32.0818V37.8996H32.0342ZM32.0342 28.5389H32.0818V28.4912H32.0342V28.5389ZM30.8682 37.8996H30.8206V37.9473H30.8682V37.8996ZM30.8682 28.5389V28.4912H30.8206V28.5389H30.8682ZM33.2003 39.0697H33.2478V39.022H33.2003V39.0697ZM33.2003 40.2398V40.2875H33.2478V40.2398H33.2003ZM29.7022 39.0697V39.022H29.6547V39.0697H29.7022ZM29.7022 40.2398H29.6547V40.2875H29.7022V40.2398ZM22.7062 27.3688H22.6586V27.4165H22.7062V27.3688ZM26.2042 27.3688V27.4165H26.2517V27.3688H26.2042ZM22.7062 26.1987V26.151H22.6586V26.1987H22.7062ZM26.2042 26.1987H26.2517V26.151H26.2042V26.1987ZM25.0381 28.5389H25.0857V28.4912H25.0381V28.5389ZM25.0381 37.8996V37.9473H25.0857V37.8996H25.0381ZM23.8721 28.5389V28.4912H23.8246V28.5389H23.8721ZM23.8721 37.8996H23.8246V37.9473H23.8721V37.8996ZM26.2042 40.2398V40.2875H26.2517V40.2398H26.2042ZM26.2042 39.0697H26.2517V39.022H26.2042V39.0697ZM22.7062 40.2398H22.6586V40.2875H22.7062V40.2398ZM22.7062 39.0697V39.022H22.6586V39.0697H22.7062ZM19.2081 27.3688V27.4165H19.2557V27.3688H19.2081ZM15.7101 27.3688H15.6625V27.4165H15.7101V27.3688ZM19.2081 26.1987H19.2557V26.151H19.2081V26.1987ZM15.7101 26.1987V26.151H15.6625V26.1987H15.7101ZM18.0421 37.8996V37.9473H18.0896V37.8996H18.0421ZM18.0421 28.5389H18.0896V28.4912H18.0421V28.5389ZM16.876 37.8996H16.8285V37.9473H16.876V37.8996ZM16.876 28.5389V28.4912H16.8285V28.5389H16.876ZM41.3623 41.4099H41.4099V41.3621H41.3623V41.4099ZM41.3623 42.5799V42.6277H41.4099V42.5799H41.3623ZM14.5441 41.4099V41.3621H14.4965V41.4099H14.5441ZM14.5441 42.5799H14.4965V42.6277H14.5441V42.5799ZM36.6983 27.3688H36.6508V27.4165H36.6983V27.3688ZM40.1963 27.3688V27.4165H40.2439V27.3688H40.1963ZM36.6983 26.1987V26.151H36.6508V26.1987H36.6983ZM40.1963 26.1987H40.2439V26.151H40.1963V26.1987ZM41.3623 25.0286V25.0764H41.4099V25.0286H41.3623ZM41.3623 23.635H41.4099V23.6055L41.3836 23.5924L41.3623 23.635ZM28.9816 17.423L29.0029 17.3804L28.9929 17.3753H28.9816V17.423ZM28.5362 17.423V17.3753H28.4887V17.423H28.5362ZM28.5362 21.5184V21.5661H28.5838V21.5184H28.5362ZM27.3702 21.5184H27.3227V21.5661H27.3702V21.5184ZM27.3702 17.423H27.4178V17.3753H27.3702V17.423ZM26.9248 17.423V17.3753H26.9136L26.9035 17.3804L26.9248 17.423ZM14.5441 23.635L14.5228 23.5924L14.4965 23.6055V23.635H14.5441ZM14.5441 25.0286H14.4965V25.0764H14.5441V25.0286ZM28.5838 16.253C28.5838 15.3117 29.3472 14.5456 30.2853 14.5456V14.4501C29.2947 14.4501 28.4887 15.2589 28.4887 16.253H28.5838ZM29.2569 16.2052H28.5363V16.3007H29.2569V16.2052ZM42.5497 22.8692L29.2781 16.2103L29.2356 16.2957L42.5071 22.9546L42.5497 22.8692ZM42.576 26.1987V22.912H42.4808V26.1987H42.576ZM41.3624 26.2464H42.5284V26.151H41.3624V26.2464ZM41.4099 28.5389V26.1987H41.3148V28.5389H41.4099ZM40.1964 28.5866H41.3624V28.4912H40.1964V28.5866ZM40.2439 37.8996V28.5389H40.1488V37.8996H40.2439ZM41.3624 37.8519H40.1964V37.9473H41.3624V37.8519ZM41.4099 40.2398V37.8996H41.3148V40.2398H41.4099ZM42.5284 40.1921H41.3624V40.2875H42.5284V40.1921ZM42.576 43.75V40.2398H42.4808V43.75H42.576ZM13.3781 43.7978H42.5284V43.7023H13.3781V43.7978ZM13.3306 40.2398V43.75H13.4257V40.2398H13.3306ZM14.5441 40.1921H13.3781V40.2875H14.5441V40.1921ZM14.4966 37.8996V40.2398H14.5917V37.8996H14.4966ZM15.7102 37.8519H14.5441V37.9473H15.7102V37.8519ZM15.6626 28.5389V37.8996H15.7577V28.5389H15.6626ZM14.5441 28.5866H15.7102V28.4912H14.5441V28.5866ZM14.4966 26.1987V28.5389H14.5917V26.1987H14.4966ZM13.3781 26.2464H14.5441V26.151H13.3781V26.2464ZM13.3306 22.912V26.1987H13.4257V22.912H13.3306ZM26.6284 16.2103L13.3569 22.8692L13.3994 22.9546L26.6709 16.2957L26.6284 16.2103ZM27.3703 16.2052H26.6497V16.3007H27.3703V16.2052ZM30.2853 13.28C28.6517 13.28 27.3227 14.6137 27.3227 16.253H27.4178C27.4178 14.6664 28.7042 13.3755 30.2853 13.3755V13.28ZM33.2003 13.28H30.2853V13.3755H33.2003V13.28ZM33.2479 14.4978V13.3278H33.1527V14.4978H33.2479ZM30.2853 14.5456H33.2003V14.4501H30.2853V14.5456ZM15.7101 39.1174H19.2081V39.022H15.7101V39.1174ZM15.7577 40.2398V39.0697H15.6625V40.2398H15.7577ZM19.2081 40.1921H15.7101V40.2875H19.2081V40.1921ZM19.1605 39.0697V40.2398H19.2557V39.0697H19.1605ZM22.7538 37.8996V28.5389H22.6587V37.8996H22.7538ZM21.5403 37.9473H22.7063V37.8519H21.5403V37.9473ZM21.5878 40.2398V37.8996H21.4927V40.2398H21.5878ZM20.3743 40.2875H21.5403V40.1921H20.3743V40.2875ZM20.3267 37.8996V40.2398H20.4218V37.8996H20.3267ZM19.2082 37.9473H20.3743V37.8519H19.2082V37.9473ZM19.1607 28.5389V37.8996H19.2558V28.5389H19.1607ZM20.3743 28.4912H19.2082V28.5866H20.3743V28.4912ZM20.3267 26.1987V28.5389H20.4218V26.1987H20.3267ZM21.5403 26.151H20.3743V26.2464H21.5403V26.151ZM21.5878 28.5389V26.1987H21.4927V28.5389H21.5878ZM22.7063 28.4912H21.5403V28.5866H22.7063V28.4912ZM29.6548 28.5389V37.8996H29.7499V28.5389H29.6548ZM28.5363 28.5866H29.7023V28.4912H28.5363V28.5866ZM28.4888 26.1987V28.5389H28.5839V26.1987H28.4888ZM27.3703 26.2464H28.5363V26.151H27.3703V26.2464ZM27.4179 28.5389V26.1987H27.3228V28.5389H27.4179ZM26.2043 28.5866H27.3703V28.4912H26.2043V28.5866ZM26.2518 37.8996V28.5389H26.1567V37.8996H26.2518ZM27.3703 37.8519H26.2043V37.9473H27.3703V37.8519ZM27.4179 40.2398V37.8996H27.3228V40.2398H27.4179ZM28.5363 40.1921H27.3703V40.2875H28.5363V40.1921ZM28.4888 37.8996V40.2398H28.5839V37.8996H28.4888ZM29.7023 37.8519H28.5363V37.9473H29.7023V37.8519ZM36.746 37.8996V28.5389H36.6509V37.8996H36.746ZM35.5324 37.9473H36.6984V37.8519H35.5324V37.9473ZM35.58 40.2398V37.8996H35.4848V40.2398H35.58ZM34.3664 40.2875H35.5324V40.1921H34.3664V40.2875ZM34.3188 37.8996V40.2398H34.414V37.8996H34.3188ZM33.2004 37.9473H34.3664V37.8519H33.2004V37.9473ZM33.1528 28.5389V37.8996H33.2479V28.5389H33.1528ZM34.3664 28.4912H33.2004V28.5866H34.3664V28.4912ZM34.3188 26.1987V28.5389H34.414V26.1987H34.3188ZM35.5324 26.151H34.3664V26.2464H35.5324V26.151ZM35.58 28.5389V26.1987H35.4848V28.5389H35.58ZM36.6984 28.4912H35.5324V28.5866H36.6984V28.4912ZM40.1488 39.0697V40.2398H40.2439V39.0697H40.1488ZM36.6983 39.1174H40.1963V39.022H36.6983V39.1174ZM36.7459 40.2398V39.0697H36.6508V40.2398H36.7459ZM40.1963 40.1921H36.6983V40.2875H40.1963V40.1921ZM37.8167 28.5389V37.8996H37.9118V28.5389H37.8167ZM39.0303 28.4912H37.8643V28.5866H39.0303V28.4912ZM39.0778 37.8996V28.5389H38.9827V37.8996H39.0778ZM37.8643 37.9473H39.0303V37.8519H37.8643V37.9473ZM33.2003 27.3211H29.7022V27.4165H33.2003V27.3211ZM33.1527 26.1987V27.3688H33.2478V26.1987H33.1527ZM29.7022 26.2464H33.2003V26.151H29.7022V26.2464ZM29.7498 27.3688V26.1987H29.6547V27.3688H29.7498ZM32.0818 37.8996V28.5389H31.9866V37.8996H32.0818ZM30.8682 37.9473H32.0342V37.8519H30.8682V37.9473ZM30.8206 28.5389V37.8996H30.9158V28.5389H30.8206ZM32.0342 28.4912H30.8682V28.5866H32.0342V28.4912ZM33.1527 39.0697V40.2398H33.2478V39.0697H33.1527ZM29.7022 39.1174H33.2003V39.022H29.7022V39.1174ZM29.7498 40.2398V39.0697H29.6547V40.2398H29.7498ZM33.2003 40.1921H29.7022V40.2875H33.2003V40.1921ZM22.7062 27.4165H26.2042V27.3211H22.7062V27.4165ZM22.6586 26.1987V27.3688H22.7537V26.1987H22.6586ZM26.2042 26.151H22.7062V26.2464H26.2042V26.151ZM26.2517 27.3688V26.1987H26.1566V27.3688H26.2517ZM24.9906 28.5389V37.8996H25.0857V28.5389H24.9906ZM23.8721 28.5866H25.0381V28.4912H23.8721V28.5866ZM23.9197 37.8996V28.5389H23.8246V37.8996H23.9197ZM25.0381 37.8519H23.8721V37.9473H25.0381V37.8519ZM26.2517 40.2398V39.0697H26.1566V40.2398H26.2517ZM22.7062 40.2875H26.2042V40.1921H22.7062V40.2875ZM22.6586 39.0697V40.2398H22.7537V39.0697H22.6586ZM26.2042 39.022H22.7062V39.1174H26.2042V39.022ZM19.2081 27.3211H15.7101V27.4165H19.2081V27.3211ZM19.1605 26.1987V27.3688H19.2557V26.1987H19.1605ZM15.7101 26.2464H19.2081V26.151H15.7101V26.2464ZM15.7577 27.3688V26.1987H15.6625V27.3688H15.7577ZM18.0896 37.8996V28.5389H17.9945V37.8996H18.0896ZM16.876 37.9473H18.0421V37.8519H16.876V37.9473ZM16.8285 28.5389V37.8996H16.9236V28.5389H16.8285ZM18.0421 28.4912H16.876V28.5866H18.0421V28.4912ZM41.3148 41.4099V42.5799H41.4099V41.4099H41.3148ZM14.5441 41.4576H41.3623V41.3621H14.5441V41.4576ZM14.5917 42.5799V41.4099H14.4965V42.5799H14.5917ZM41.3623 42.5322H14.5441V42.6277H41.3623V42.5322ZM36.6983 27.4165H40.1963V27.3211H36.6983V27.4165ZM36.6508 26.1987V27.3688H36.7459V26.1987H36.6508ZM40.1963 26.151H36.6983V26.2464H40.1963V26.151ZM40.2439 27.3688V26.1987H40.1488V27.3688H40.2439ZM41.3623 24.9809H35.5323V25.0764H41.3623V24.9809ZM41.3148 23.635V25.0286H41.4099V23.635H41.3148ZM28.9604 17.4658L41.3411 23.6777L41.3836 23.5924L29.0029 17.3804L28.9604 17.4658ZM28.5362 17.4708H28.9816V17.3753H28.5362V17.4708ZM28.5838 21.5184V17.423H28.4887V21.5184H28.5838ZM27.3702 21.5661H28.5362V21.4706H27.3702V21.5661ZM27.3227 17.423V21.5184H27.4178V17.423H27.3227ZM26.9248 17.4708H27.3702V17.3753H26.9248V17.4708ZM14.5654 23.6777L26.9461 17.4658L26.9035 17.3804L14.5228 23.5924L14.5654 23.6777ZM14.5917 25.0286V23.635H14.4965V25.0286H14.5917ZM20.3742 24.9809H14.5441V25.0764H20.3742V24.9809ZM21.5402 24.9809H20.3742V25.0764H21.5402V24.9809ZM27.3702 24.9809H21.5402V25.0764H27.3702V24.9809ZM28.5362 24.9809H27.3702V25.0764H28.5362V24.9809ZM34.3663 24.9809H28.5362V25.0764H34.3663V24.9809ZM35.5323 24.9809H34.3663V25.0764H35.5323V24.9809Z" fill="black"/>
<path d="M37.8644 22.6885H18.0422V23.8586H37.8644V22.6885Z" fill="black" stroke="black" stroke-width="0.1"/>
<path fill-rule="evenodd" clip-rule="evenodd" d="M36.6982 13.9128C36.6982 10.3645 39.5754 7.47729 43.1113 7.47729C46.6472 7.47729 49.5244 10.3645 49.5244 13.9128C49.5244 17.4611 46.6472 20.3482 43.1113 20.3482C39.5754 20.3482 36.6982 17.4611 36.6982 13.9128ZM37.8642 13.9128C37.8642 16.8163 40.2178 19.1782 43.1112 19.1782C46.0046 19.1782 48.3582 16.8163 48.3582 13.9128C48.3582 11.0092 46.0046 8.64738 43.1112 8.64738C40.2178 8.64738 37.8642 11.0092 37.8642 13.9128Z" fill="black"/>
<path d="M43.1114 7.45337C39.5624 7.45337 36.6746 10.3512 36.6746 13.9127H36.7221C36.7221 10.3776 39.5886 7.5011 43.1114 7.5011V7.45337ZM49.5483 13.9127C49.5483 10.3512 46.6605 7.45337 43.1114 7.45337V7.5011C46.6342 7.5011 49.5007 10.3776 49.5007 13.9127H49.5483ZM43.1114 20.372C46.6605 20.372 49.5483 17.4742 49.5483 13.9127H49.5007C49.5007 17.4478 46.6342 20.3243 43.1114 20.3243V20.372ZM36.6746 13.9127C36.6746 17.4742 39.5624 20.372 43.1114 20.372V20.3243C39.5886 20.3243 36.7221 17.4478 36.7221 13.9127H36.6746ZM43.1113 19.1542C40.231 19.1542 37.888 16.8031 37.888 13.9127H37.8405C37.8405 16.8295 40.2047 19.202 43.1113 19.202V19.1542ZM48.3346 13.9127C48.3346 16.8031 45.9916 19.1542 43.1113 19.1542V19.202C46.0179 19.202 48.3821 16.8295 48.3821 13.9127H48.3346ZM43.1113 8.67118C45.9916 8.67118 48.3346 11.0223 48.3346 13.9127H48.3821C48.3821 10.996 46.0179 8.62346 43.1113 8.62346V8.67118ZM37.888 13.9127C37.888 11.0223 40.231 8.67118 43.1113 8.67118V8.62346C40.2047 8.62346 37.8405 10.996 37.8405 13.9127H37.888Z" fill="black"/>
<path d="M42.5686 12.3693H43.6387C43.9342 12.3693 44.1737 12.6007 44.1737 12.8863H45.2439C45.2439 12.0296 44.5252 11.3352 43.6387 11.3352V10.8181H42.5686V11.3352C41.682 11.3352 40.9634 12.0296 40.9634 12.8863C40.9634 13.743 41.682 14.4374 42.5686 14.4374H43.6387C43.9342 14.4374 44.1737 14.6689 44.1737 14.9545C44.1737 15.24 43.9342 15.4715 43.6387 15.4715H42.5686C42.2731 15.4715 42.0335 15.24 42.0335 14.9545H40.9634C40.9634 15.8112 41.682 16.5056 42.5686 16.5056V17.0227H43.6387V16.5056C44.5252 16.5056 45.2439 15.8112 45.2439 14.9545C45.2439 14.0978 44.5252 13.4034 43.6387 13.4034H42.5686C42.2731 13.4034 42.0335 13.1718 42.0335 12.8863C42.0335 12.6007 42.2731 12.3693 42.5686 12.3693Z" fill="black"/>
<path d="M35.5322 13.3279H34.3662V14.498H35.5322V13.3279Z" fill="black"/>
<path d="M46.0263 30.2938C46.0263 31.2614 45.2416 32.0489 44.2773 32.0489H43.6943V33.219H44.2773C45.8847 33.219 47.1923 31.9068 47.1923 30.2938V20.9331H46.0263V30.2938Z" fill="black"/>
<path d="M42.5283 32.0491H41.3623V33.2192H42.5283V32.0491Z" fill="black"/>
</g>
<defs>
<clipPath id="clip0_8302_18799">
<rect width="39" height="42" fill="white" transform="translate(11 7)"/>
</clipPath>
</defs>
</svg>
