<svg width="187" height="166" viewBox="0 0 187 166" fill="none" xmlns="http://www.w3.org/2000/svg">
<path d="M128.513 163.566C125.876 164.738 123.386 165.324 121.042 165.324C117.819 165.324 115.036 164.445 112.692 162.688C110.202 161.076 108.957 158.732 108.957 155.656C108.957 153.166 109.763 150.603 111.374 147.966C117.966 140.788 123.312 132.878 127.414 124.235C131.369 115.593 134.299 107.316 136.203 99.4062C137.961 91.4961 138.84 84.9775 138.84 79.8506C138.84 78.2393 138.693 76.4082 138.4 74.3574C138.254 73.625 136.569 72.5996 133.347 71.2812C130.124 70.1094 126.462 68.2783 122.36 65.7881C118.259 63.2979 114.67 59.709 111.594 55.0215C108.371 50.4805 106.76 44.4014 106.76 36.7842C106.76 26.6768 110.422 18.1807 117.746 11.2959C125.07 4.41113 133.933 0.96875 144.333 0.96875C150.339 0.96875 156.638 2.36035 163.229 5.14355C169.675 7.92676 175.095 12.9072 179.489 20.085C183.884 27.2627 186.081 37.3701 186.081 50.4072C186.081 61.6865 183.957 73.332 179.709 85.3438C175.314 97.3555 169.895 108.708 163.449 119.401C157.004 130.241 150.632 139.543 144.333 147.307C137.888 155.217 132.614 160.637 128.513 163.566ZM22.3848 163.566C19.748 164.738 17.2578 165.324 14.9141 165.324C11.6914 165.324 8.9082 164.445 6.56445 162.687C4.07422 161.076 2.8291 158.732 2.8291 155.656C2.8291 153.166 3.63477 150.603 5.24609 147.966C11.8379 140.788 17.1846 132.878 21.2861 124.235C25.2412 115.593 28.1709 107.316 30.0752 99.4062C31.833 91.4961 32.7119 84.9775 32.7119 79.8506C32.7119 78.2393 32.5654 76.4082 32.2725 74.3574C32.126 73.625 30.4414 72.5996 27.2188 71.2812C23.9961 70.1094 20.334 68.2783 16.2324 65.7881C12.1309 63.2979 8.54199 59.709 5.46582 55.0215C2.24316 50.4805 0.631836 44.4014 0.631836 36.7842C0.631836 26.6768 4.29395 18.1807 11.6182 11.2959C18.9424 4.41113 27.8047 0.96875 38.2051 0.96875C44.2109 0.96875 50.5098 2.36035 57.1016 5.14355C63.5469 7.92676 68.9668 12.9072 73.3613 20.085C77.7559 27.2627 79.9531 37.3701 79.9531 50.4072C79.9531 61.6865 77.8291 73.332 73.5811 85.3437C69.1865 97.3555 63.7666 108.708 57.3213 119.401C50.876 130.241 44.5039 139.543 38.2051 147.307C31.7598 155.217 26.4863 160.637 22.3848 163.566Z" fill="#21CB5C"/>
</svg>
