<svg width="38" height="38" viewBox="0 0 38 38" fill="none" xmlns="http://www.w3.org/2000/svg">
<path d="M38 19C38 8.50659 29.4934 0 19 0C8.50659 0 0 8.50659 0 19C0 29.4934 8.50659 38 19 38C29.4934 38 38 29.4934 38 19Z" fill="#00B840"/>
<path d="M11.5142 26.0388H14.5794V16.176H11.5142V26.0388Z" fill="white"/>
<path d="M11.2559 13.0397C11.2559 14.0098 12.0625 14.8182 13.0305 14.8182C14.0307 14.8182 14.8051 14.0422 14.8051 13.0397C14.8051 12.0696 13.9985 11.2612 13.0305 11.2612C12.0625 11.2612 11.2559 12.0696 11.2559 13.0397Z" fill="white"/>
<path d="M22.9684 26.0387H26.0336V20.6385C26.0336 17.987 25.4529 15.9497 22.3553 15.9497C20.8711 15.9497 19.8709 16.7582 19.4513 17.5342H19.4191V16.176H16.4829V26.0387H19.5482V21.1559C19.5482 19.8948 19.8064 18.6336 21.3874 18.6336C22.9362 18.6336 22.9684 20.1211 22.9684 21.2529V26.0387Z" fill="white"/>
</svg>
