<svg width="28" height="29" viewBox="0 0 28 29" fill="none" xmlns="http://www.w3.org/2000/svg">
<g clip-path="url(#clip0_8294_17704)">
<path d="M27.659 13.6898C27.659 6.17337 21.5657 0.0800781 14.0492 0.0800781C6.53275 0.0800781 0.439453 6.17337 0.439453 13.6898C0.439453 21.2063 6.53275 27.2996 14.0492 27.2996C21.5657 27.2996 27.659 21.2063 27.659 13.6898Z" fill="black"/>
<path d="M8.68652 18.7317H10.8822V11.667H8.68652V18.7317Z" fill="white"/>
<path d="M8.50195 9.42043C8.50195 10.1153 9.07976 10.6944 9.77312 10.6944C10.4896 10.6944 11.0443 10.1385 11.0443 9.42043C11.0443 8.72554 10.4665 8.14648 9.77312 8.14648C9.07976 8.14648 8.50195 8.72554 8.50195 9.42043Z" fill="white"/>
<path d="M16.8917 18.7317H19.0873V14.8635C19.0873 12.9642 18.6713 11.5049 16.4525 11.5049C15.3894 11.5049 14.6729 12.084 14.3724 12.6399H14.3493V11.667H12.2461V18.7317H14.4418V15.2341C14.4418 14.3308 14.6267 13.4274 15.7592 13.4274C16.8686 13.4274 16.8917 14.4929 16.8917 15.3036V18.7317Z" fill="white"/>
</g>
<defs>
<clipPath id="clip0_8294_17704">
<rect width="28" height="28" fill="white" transform="translate(0 0.0800781)"/>
</clipPath>
</defs>
</svg>
