<svg width="70" height="71" viewBox="0 0 70 71" fill="none" xmlns="http://www.w3.org/2000/svg">
<path d="M12.0195 22.9606C12.0195 16.8684 14.4396 11.0258 18.7474 6.71789C23.0552 2.41009 28.8979 -0.0100098 34.9901 -0.0100098C41.0823 -0.0100098 46.9249 2.41009 51.2327 6.71789C55.5406 11.0257 57.9607 16.8684 57.9607 22.9606H46.4754C46.4754 19.9145 45.2653 16.9932 43.1114 14.8393C40.9575 12.6853 38.0362 11.4753 34.9901 11.4753C31.944 11.4753 29.0227 12.6853 26.8688 14.8393C24.7148 16.9932 23.5048 19.9145 23.5048 22.9606H12.0195Z" fill="#00B840" fill-opacity="0.2"/>
<path d="M63.1823 22.9607H6.79987C3.33996 22.9607 0.535156 25.7655 0.535156 29.2254V64.7254C0.535156 68.1853 3.33996 70.9901 6.79987 70.9901H63.1823C66.6422 70.9901 69.447 68.1853 69.447 64.7254V29.2254C69.447 25.7655 66.6422 22.9607 63.1823 22.9607Z" fill="#00B840"/>
<circle cx="35.5" cy="46.5" r="6.5" fill="white"/>
</svg>
