<svg xmlns="http://www.w3.org/2000/svg" fill="none" viewBox="0 0 205 43">
<rect width="205" height="43" rx="5" fill="#00B840"/>
<g clip-path="url(#clip0_9426_19782)">
<path d="M24.4997 29.153L24.4997 28.153H24.4997V29.153ZM16.4997 29.153L16.4997 30.153H16.4997V29.153ZM13.833 26.4863L12.833 26.4863L13.833 26.4863ZM13.833 15.153L14.833 15.153L13.833 15.153ZM14.0147 13.3963L13.1237 12.9424L13.1237 12.9424L14.0147 13.3963ZM16.4997 12.4863L16.4997 13.4863L16.4997 12.4863ZM14.743 12.668L14.289 11.777L14.289 11.777L14.743 12.668ZM14.743 28.9713L14.289 29.8623L14.289 29.8623L14.743 28.9713ZM14.0147 28.243L14.9057 27.789L14.9057 27.789L14.0147 28.243ZM26.2563 28.9713L25.8023 28.0803L25.8023 28.0803L26.2563 28.9713ZM27.1663 26.4863L28.1663 26.4863V26.4863H27.1663ZM26.9847 28.243L26.0937 27.789L26.0937 27.789L26.9847 28.243ZM28.1663 17.4863C28.1663 16.934 27.7186 16.4863 27.1663 16.4863C26.6141 16.4863 26.1663 16.934 26.1663 17.4863H28.1663ZM22.1663 13.4863C22.7186 13.4863 23.1663 13.0386 23.1663 12.4863C23.1663 11.934 22.7186 11.4863 22.1663 11.4863L22.1663 13.4863ZM27.0241 17.3441L27.7312 16.637L27.7312 16.637L27.0241 17.3441ZM22.3086 12.6286L21.6015 13.3357L21.6015 13.3357L22.3086 12.6286ZM26.9652 17.4863L26.9652 18.4863L26.9652 17.4863ZM22.9997 17.4863L22.9997 16.4863L22.9997 17.4863ZM22.1663 16.653L23.1663 16.653V16.653H22.1663ZM22.1663 12.6875L21.1663 12.6875V12.6875H22.1663ZM17.1663 19.8197C16.6141 19.8197 16.1663 20.2674 16.1663 20.8197C16.1663 21.3719 16.6141 21.8197 17.1663 21.8197V19.8197ZM23.833 21.8197C24.3853 21.8197 24.833 21.3719 24.833 20.8197C24.833 20.2674 24.3853 19.8197 23.833 19.8197V21.8197ZM17.1663 16.4863C16.6141 16.4863 16.1663 16.934 16.1663 17.4863C16.1663 18.0386 16.6141 18.4863 17.1663 18.4863V16.4863ZM18.833 18.4863C19.3853 18.4863 19.833 18.0386 19.833 17.4863C19.833 16.934 19.3853 16.4863 18.833 16.4863V18.4863ZM17.1663 23.153C16.6141 23.153 16.1663 23.6007 16.1663 24.153C16.1663 24.7053 16.6141 25.153 17.1663 25.153V23.153ZM23.833 25.153C24.3853 25.153 24.833 24.7053 24.833 24.153C24.833 23.6007 24.3853 23.153 23.833 23.153V25.153ZM24.4997 28.153H16.4997V30.153H24.4997V28.153ZM14.833 26.4863L14.833 15.153L12.833 15.153L12.833 26.4863L14.833 26.4863ZM14.833 15.153C14.833 14.6698 14.8338 14.3675 14.8524 14.1398C14.87 13.9237 14.8986 13.8641 14.9057 13.8503L13.1237 12.9424C12.949 13.2851 12.8868 13.6371 12.859 13.9769C12.8322 14.305 12.833 14.7028 12.833 15.153L14.833 15.153ZM16.4997 11.4863C16.0495 11.4863 15.6517 11.4856 15.3236 11.5124C14.9838 11.5401 14.6318 11.6023 14.289 11.777L15.197 13.559C15.2108 13.552 15.2704 13.5234 15.4864 13.5057C15.7142 13.4871 16.0165 13.4863 16.4997 13.4863L16.4997 11.4863ZM14.9057 13.8503C14.9696 13.7249 15.0716 13.6229 15.197 13.559L14.289 11.777C13.7873 12.0326 13.3793 12.4406 13.1237 12.9424L14.9057 13.8503ZM16.4997 28.153C16.0165 28.153 15.7142 28.1522 15.4864 28.1336C15.2704 28.116 15.2108 28.0874 15.197 28.0803L14.289 29.8623C14.6318 30.037 14.9838 30.0992 15.3236 30.127C15.6517 30.1538 16.0495 30.153 16.4997 30.153L16.4997 28.153ZM12.833 26.4863C12.833 26.9365 12.8322 27.3343 12.859 27.6624C12.8868 28.0022 12.949 28.3542 13.1237 28.697L14.9057 27.789C14.8986 27.7752 14.87 27.7156 14.8524 27.4996C14.8338 27.2718 14.833 26.9695 14.833 26.4863L12.833 26.4863ZM15.197 28.0803C15.0716 28.0164 14.9696 27.9144 14.9057 27.789L13.1237 28.697C13.3793 29.1987 13.7873 29.6067 14.289 29.8623L15.197 28.0803ZM24.4997 30.153C24.9499 30.153 25.3477 30.1538 25.6758 30.127C26.0155 30.0992 26.3676 30.037 26.7103 29.8623L25.8023 28.0803C25.7885 28.0874 25.729 28.116 25.5129 28.1336C25.2852 28.1522 24.9829 28.153 24.4997 28.153L24.4997 30.153ZM26.1663 26.4863C26.1663 26.9695 26.1656 27.2718 26.147 27.4996C26.1293 27.7156 26.1007 27.7752 26.0937 27.789L27.8757 28.697C28.0503 28.3542 28.1126 28.0022 28.1403 27.6624C28.1671 27.3343 28.1663 26.9365 28.1663 26.4863L26.1663 26.4863ZM26.7103 29.8623C27.2121 29.6067 27.62 29.1987 27.8757 28.697L26.0937 27.789C26.0298 27.9144 25.9278 28.0164 25.8023 28.0803L26.7103 29.8623ZM26.1663 17.4863V26.4863H28.1663V17.4863H26.1663ZM16.4997 13.4863L22.1663 13.4863L22.1663 11.4863L16.4997 11.4863L16.4997 13.4863ZM27.7312 16.637L23.0157 11.9215L21.6015 13.3357L26.317 18.0512L27.7312 16.637ZM26.9652 16.4863L22.9997 16.4863L22.9997 18.4863L26.9652 18.4863L26.9652 16.4863ZM23.1663 16.653V12.6875H21.1663V16.653H23.1663ZM22.9997 16.4863C23.0917 16.4863 23.1663 16.5609 23.1663 16.653L21.1663 16.653C21.1663 17.6655 21.9872 18.4863 22.9997 18.4863L22.9997 16.4863ZM23.0157 11.9215C22.3332 11.239 21.1663 11.7224 21.1663 12.6875L23.1663 12.6875C23.1663 13.5042 22.179 13.9132 21.6015 13.3357L23.0157 11.9215ZM26.317 18.0512C25.7395 17.4737 26.1485 16.4863 26.9652 16.4863L26.9652 18.4863C27.9303 18.4863 28.4137 17.3194 27.7312 16.637L26.317 18.0512ZM17.1663 21.8197H23.833V19.8197H17.1663V21.8197ZM17.1663 18.4863H18.833V16.4863H17.1663V18.4863ZM17.1663 25.153H23.833V23.153H17.1663V25.153Z" fill="white"/>
</g>
<path d="M47.596 18.4676H45.8233C45.7551 18.0888 45.6282 17.7554 45.4426 17.4676C45.257 17.1797 45.0297 16.9354 44.7608 16.7346C44.4918 16.5338 44.1907 16.3823 43.8574 16.2801C43.5278 16.1778 43.1774 16.1266 42.8062 16.1266C42.1358 16.1266 41.5354 16.2952 41.0051 16.6323C40.4786 16.9694 40.0619 17.4638 39.7551 18.1153C39.4521 18.7668 39.3005 19.5622 39.3005 20.5016C39.3005 21.4486 39.4521 22.2479 39.7551 22.8994C40.0619 23.5509 40.4805 24.0433 41.0108 24.3766C41.5411 24.71 42.1377 24.8766 42.8005 24.8766C43.168 24.8766 43.5164 24.8274 43.846 24.7289C44.1793 24.6266 44.4805 24.477 44.7494 24.2801C45.0183 24.0831 45.2456 23.8426 45.4312 23.5585C45.6206 23.2706 45.7513 22.941 45.8233 22.5698L47.596 22.5755C47.5013 23.1475 47.3176 23.674 47.0449 24.1551C46.7759 24.6323 46.4293 25.0452 46.0051 25.3937C45.5846 25.7384 45.1036 26.0054 44.5619 26.1948C44.0202 26.3842 43.4293 26.4789 42.7892 26.4789C41.7816 26.4789 40.8839 26.2403 40.096 25.763C39.3081 25.2819 38.6869 24.5944 38.2324 23.7005C37.7816 22.8066 37.5562 21.7403 37.5562 20.5016C37.5562 19.2592 37.7835 18.1929 38.238 17.3028C38.6926 16.4088 39.3138 15.7232 40.1017 15.246C40.8896 14.7649 41.7854 14.5244 42.7892 14.5244C43.4066 14.5244 43.9824 14.6134 44.5164 14.7914C45.0543 14.9657 45.5373 15.2232 45.9653 15.5641C46.3933 15.9013 46.7475 16.3141 47.0278 16.8028C47.3081 17.2876 47.4975 17.8426 47.596 18.4676ZM51.9403 26.513C51.3872 26.513 50.8872 26.4107 50.4403 26.2062C49.9933 25.9979 49.6391 25.6967 49.3778 25.3028C49.1202 24.9088 48.9914 24.4259 48.9914 23.8539C48.9914 23.3615 49.0861 22.9562 49.2755 22.638C49.4649 22.3198 49.7206 22.0679 50.0425 21.8823C50.3645 21.6967 50.7243 21.5566 51.1221 21.4619C51.5198 21.3672 51.9251 21.2952 52.338 21.246C52.8607 21.1854 53.2849 21.1361 53.6107 21.0982C53.9365 21.0566 54.1732 20.9903 54.3209 20.8994C54.4687 20.8085 54.5425 20.6607 54.5425 20.4562V20.4164C54.5425 19.9202 54.4024 19.5357 54.1221 19.263C53.8456 18.9903 53.4327 18.8539 52.8834 18.8539C52.3115 18.8539 51.8607 18.9808 51.5312 19.2346C51.2054 19.4846 50.98 19.763 50.855 20.0698L49.2584 19.7062C49.4478 19.1759 49.7243 18.7479 50.088 18.4221C50.4554 18.0926 50.8778 17.8539 51.355 17.7062C51.8323 17.5547 52.3342 17.4789 52.8607 17.4789C53.2092 17.4789 53.5785 17.5206 53.9687 17.6039C54.3626 17.6835 54.73 17.8312 55.0709 18.0471C55.4156 18.263 55.6978 18.5717 55.9175 18.9732C56.1372 19.371 56.2471 19.888 56.2471 20.5244V26.3198H54.588V25.1266H54.5198C54.4099 25.3463 54.2452 25.5622 54.0255 25.7744C53.8058 25.9865 53.5236 26.1626 53.1789 26.3028C52.8342 26.4429 52.4213 26.513 51.9403 26.513ZM52.3096 25.1494C52.7793 25.1494 53.1808 25.0566 53.5141 24.871C53.8512 24.6854 54.1069 24.4429 54.2812 24.1437C54.4592 23.8407 54.5482 23.5168 54.5482 23.1721V22.0471C54.4876 22.1077 54.3702 22.1645 54.1959 22.2176C54.0255 22.2668 53.8304 22.3104 53.6107 22.3482C53.391 22.3823 53.177 22.4145 52.9687 22.4448C52.7603 22.4713 52.5861 22.4941 52.4459 22.513C52.1164 22.5547 51.8153 22.6247 51.5425 22.7232C51.2736 22.8217 51.0577 22.9638 50.8948 23.1494C50.7357 23.3312 50.6562 23.5736 50.6562 23.8766C50.6562 24.2971 50.8115 24.6153 51.1221 24.8312C51.4327 25.0433 51.8285 25.1494 52.3096 25.1494ZM58.3499 29.5926V17.5926H60.0089V19.0073H60.151C60.2495 18.8255 60.3915 18.6153 60.5771 18.3766C60.7627 18.138 61.0203 17.9297 61.3499 17.7516C61.6794 17.5698 62.115 17.4789 62.6567 17.4789C63.3612 17.4789 63.99 17.6569 64.543 18.013C65.0961 18.3691 65.5298 18.8823 65.8442 19.5528C66.1624 20.2232 66.3214 21.0301 66.3214 21.9732C66.3214 22.9164 66.1642 23.7251 65.8499 24.3994C65.5355 25.0698 65.1036 25.5869 64.5544 25.9505C64.0052 26.3104 63.3783 26.4903 62.6737 26.4903C62.1434 26.4903 61.7097 26.4013 61.3726 26.2232C61.0392 26.0452 60.7779 25.8369 60.5885 25.5982C60.3991 25.3596 60.2533 25.1475 60.151 24.9619H60.0487V29.5926H58.3499ZM60.0146 21.9562C60.0146 22.5698 60.1036 23.1077 60.2817 23.5698C60.4597 24.0319 60.7173 24.3937 61.0544 24.6551C61.3915 24.9126 61.8044 25.0414 62.293 25.0414C62.8006 25.0414 63.2249 24.9069 63.5658 24.638C63.9067 24.3653 64.1642 23.996 64.3385 23.5301C64.5165 23.0641 64.6055 22.5395 64.6055 21.9562C64.6055 21.3804 64.5184 20.8634 64.3442 20.4051C64.1737 19.9467 63.9161 19.585 63.5714 19.3198C63.2305 19.0547 62.8044 18.9221 62.293 18.9221C61.8006 18.9221 61.3839 19.049 61.043 19.3028C60.7059 19.5566 60.4502 19.9107 60.276 20.3653C60.1017 20.8198 60.0146 21.3501 60.0146 21.9562ZM70.6046 26.513C70.0516 26.513 69.5516 26.4107 69.1046 26.2062C68.6577 25.9979 68.3035 25.6967 68.0421 25.3028C67.7846 24.9088 67.6558 24.4259 67.6558 23.8539C67.6558 23.3615 67.7505 22.9562 67.9399 22.638C68.1292 22.3198 68.3849 22.0679 68.7069 21.8823C69.0289 21.6967 69.3887 21.5566 69.7864 21.4619C70.1842 21.3672 70.5895 21.2952 71.0024 21.246C71.5251 21.1854 71.9493 21.1361 72.2751 21.0982C72.6008 21.0566 72.8376 20.9903 72.9853 20.8994C73.133 20.8085 73.2069 20.6607 73.2069 20.4562V20.4164C73.2069 19.9202 73.0667 19.5357 72.7864 19.263C72.5099 18.9903 72.0971 18.8539 71.5478 18.8539C70.9758 18.8539 70.5251 18.9808 70.1955 19.2346C69.8698 19.4846 69.6444 19.763 69.5194 20.0698L67.9228 19.7062C68.1122 19.1759 68.3887 18.7479 68.7524 18.4221C69.1198 18.0926 69.5421 17.8539 70.0194 17.7062C70.4967 17.5547 70.9986 17.4789 71.5251 17.4789C71.8736 17.4789 72.2429 17.5206 72.633 17.6039C73.027 17.6835 73.3944 17.8312 73.7353 18.0471C74.08 18.263 74.3622 18.5717 74.5819 18.9732C74.8016 19.371 74.9114 19.888 74.9114 20.5244V26.3198H73.2524V25.1266H73.1842C73.0743 25.3463 72.9096 25.5622 72.6899 25.7744C72.4702 25.9865 72.188 26.1626 71.8433 26.3028C71.4986 26.4429 71.0857 26.513 70.6046 26.513ZM70.9739 25.1494C71.4436 25.1494 71.8452 25.0566 72.1785 24.871C72.5156 24.6854 72.7713 24.4429 72.9455 24.1437C73.1236 23.8407 73.2126 23.5168 73.2126 23.1721V22.0471C73.152 22.1077 73.0346 22.1645 72.8603 22.2176C72.6899 22.2668 72.4948 22.3104 72.2751 22.3482C72.0554 22.3823 71.8414 22.4145 71.633 22.4448C71.4247 22.4713 71.2505 22.4941 71.1103 22.513C70.7808 22.5547 70.4796 22.6247 70.2069 22.7232C69.938 22.8217 69.7221 22.9638 69.5592 23.1494C69.4001 23.3312 69.3205 23.5736 69.3205 23.8766C69.3205 24.2971 69.4758 24.6153 69.7864 24.8312C70.0971 25.0433 70.4929 25.1494 70.9739 25.1494ZM77.1506 26.3198V14.6835H78.8495V19.0073H78.9517C79.0502 18.8255 79.1923 18.6153 79.3779 18.3766C79.5635 18.138 79.821 17.9297 80.1506 17.7516C80.4801 17.5698 80.9157 17.4789 81.4574 17.4789C82.162 17.4789 82.7907 17.6569 83.3438 18.013C83.8968 18.3691 84.3305 18.8823 84.6449 19.5528C84.9631 20.2232 85.1222 21.0301 85.1222 21.9732C85.1222 22.9164 84.965 23.7251 84.6506 24.3994C84.3362 25.0698 83.9044 25.5869 83.3551 25.9505C82.8059 26.3104 82.179 26.4903 81.4745 26.4903C80.9442 26.4903 80.5104 26.4013 80.1733 26.2232C79.84 26.0452 79.5786 25.8369 79.3892 25.5982C79.1998 25.3596 79.054 25.1475 78.9517 24.9619H78.8097V26.3198H77.1506ZM78.8154 21.9562C78.8154 22.5698 78.9044 23.1077 79.0824 23.5698C79.2604 24.0319 79.518 24.3937 79.8551 24.6551C80.1923 24.9126 80.6051 25.0414 81.0938 25.0414C81.6014 25.0414 82.0256 24.9069 82.3665 24.638C82.7074 24.3653 82.965 23.996 83.1392 23.5301C83.3173 23.0641 83.4063 22.5395 83.4063 21.9562C83.4063 21.3804 83.3192 20.8634 83.1449 20.4051C82.9745 19.9467 82.7169 19.585 82.3722 19.3198C82.0313 19.0547 81.6051 18.9221 81.0938 18.9221C80.6014 18.9221 80.1847 19.049 79.8438 19.3028C79.5067 19.5566 79.251 19.9107 79.0767 20.3653C78.9025 20.8198 78.8154 21.3501 78.8154 21.9562ZM86.8699 26.3198V17.5926H88.5687V26.3198H86.8699ZM87.7278 16.246C87.4324 16.246 87.1786 16.1475 86.9664 15.9505C86.7581 15.7497 86.6539 15.5111 86.6539 15.2346C86.6539 14.9543 86.7581 14.7157 86.9664 14.5187C87.1786 14.3179 87.4324 14.2176 87.7278 14.2176C88.0233 14.2176 88.2752 14.3179 88.4835 14.5187C88.6956 14.7157 88.8017 14.9543 88.8017 15.2346C88.8017 15.5111 88.6956 15.7497 88.4835 15.9505C88.2752 16.1475 88.0233 16.246 87.7278 16.246ZM92.3931 14.6835V26.3198H90.6942V14.6835H92.3931ZM94.5186 26.3198V17.5926H96.2175V26.3198H94.5186ZM95.3766 16.246C95.0811 16.246 94.8273 16.1475 94.6152 15.9505C94.4069 15.7497 94.3027 15.5111 94.3027 15.2346C94.3027 14.9543 94.4069 14.7157 94.6152 14.5187C94.8273 14.3179 95.0811 14.2176 95.3766 14.2176C95.672 14.2176 95.9239 14.3179 96.1322 14.5187C96.3444 14.7157 96.4504 14.9543 96.4504 15.2346C96.4504 15.5111 96.3444 15.7497 96.1322 15.9505C95.9239 16.1475 95.672 16.246 95.3766 16.246ZM102.417 17.5926V18.9562H97.6498V17.5926H102.417ZM98.9282 15.5016H100.627V23.7573C100.627 24.0869 100.676 24.335 100.775 24.5016C100.873 24.6645 101 24.7763 101.155 24.8369C101.315 24.8937 101.487 24.9221 101.673 24.9221C101.809 24.9221 101.928 24.9126 102.03 24.8937C102.133 24.8747 102.212 24.8596 102.269 24.8482L102.576 26.2516C102.477 26.2895 102.337 26.3274 102.155 26.3653C101.974 26.4069 101.746 26.4297 101.474 26.4335C101.027 26.441 100.61 26.3615 100.224 26.1948C99.8373 26.0282 99.5248 25.7706 99.2862 25.4221C99.0475 25.0736 98.9282 24.6361 98.9282 24.1096V15.5016ZM105.21 29.5926C104.956 29.5926 104.725 29.5717 104.517 29.5301C104.308 29.4922 104.153 29.4505 104.051 29.4051L104.46 28.013C104.771 28.0963 105.047 28.1323 105.29 28.121C105.532 28.1096 105.746 28.0187 105.932 27.8482C106.121 27.6778 106.288 27.3994 106.432 27.013L106.642 26.4335L103.449 17.5926H105.267L107.477 24.3653H107.568L109.778 17.5926H111.602L108.005 27.4846C107.839 27.9391 107.627 28.3236 107.369 28.638C107.111 28.9562 106.805 29.1948 106.449 29.3539C106.093 29.513 105.68 29.5926 105.21 29.5926ZM123.596 17.7403C123.535 17.2024 123.285 16.7857 122.846 16.4903C122.407 16.191 121.854 16.0414 121.187 16.0414C120.71 16.0414 120.297 16.1172 119.948 16.2687C119.6 16.4164 119.329 16.621 119.136 16.8823C118.946 17.1399 118.852 17.4335 118.852 17.763C118.852 18.0395 118.916 18.2782 119.045 18.4789C119.177 18.6797 119.35 18.8482 119.562 18.9846C119.778 19.1172 120.009 19.2289 120.255 19.3198C120.501 19.4069 120.738 19.4789 120.965 19.5357L122.102 19.8312C122.473 19.9221 122.854 20.0452 123.244 20.2005C123.634 20.3558 123.996 20.5604 124.329 20.8141C124.662 21.0679 124.931 21.3823 125.136 21.7573C125.344 22.1323 125.448 22.5812 125.448 23.1039C125.448 23.763 125.278 24.3482 124.937 24.8596C124.6 25.371 124.109 25.7744 123.465 26.0698C122.825 26.3653 122.05 26.513 121.141 26.513C120.27 26.513 119.516 26.3747 118.88 26.0982C118.244 25.8217 117.746 25.4297 117.386 24.9221C117.026 24.4107 116.827 23.8047 116.789 23.1039H118.55C118.585 23.5244 118.721 23.8747 118.96 24.1551C119.202 24.4316 119.511 24.638 119.886 24.7744C120.264 24.9069 120.679 24.9732 121.13 24.9732C121.626 24.9732 122.068 24.8956 122.454 24.7403C122.844 24.5812 123.151 24.3615 123.374 24.0812C123.598 23.7971 123.71 23.4657 123.71 23.0869C123.71 22.7422 123.611 22.46 123.414 22.2403C123.221 22.0206 122.958 21.8388 122.624 21.6948C122.295 21.5509 121.922 21.424 121.505 21.3141L120.13 20.9391C119.198 20.6854 118.46 20.3122 117.914 19.8198C117.372 19.3274 117.102 18.6759 117.102 17.8653C117.102 17.1948 117.283 16.6096 117.647 16.1096C118.011 15.6096 118.503 15.2213 119.124 14.9448C119.746 14.6645 120.446 14.5244 121.227 14.5244C122.014 14.5244 122.71 14.6626 123.312 14.9391C123.918 15.2157 124.395 15.5963 124.744 16.0812C125.092 16.5622 125.274 17.1153 125.289 17.7403H123.596ZM131.324 17.5926V18.9562H126.557V17.5926H131.324ZM127.835 15.5016H129.534V23.7573C129.534 24.0869 129.583 24.335 129.682 24.5016C129.78 24.6645 129.907 24.7763 130.062 24.8369C130.221 24.8937 130.394 24.9221 130.579 24.9221C130.716 24.9221 130.835 24.9126 130.937 24.8937C131.04 24.8747 131.119 24.8596 131.176 24.8482L131.483 26.2516C131.384 26.2895 131.244 26.3274 131.062 26.3653C130.881 26.4069 130.653 26.4297 130.381 26.4335C129.934 26.441 129.517 26.3615 129.131 26.1948C128.744 26.0282 128.432 25.7706 128.193 25.4221C127.954 25.0736 127.835 24.6361 127.835 24.1096V15.5016ZM135.583 26.513C135.03 26.513 134.53 26.4107 134.083 26.2062C133.636 25.9979 133.282 25.6967 133.02 25.3028C132.763 24.9088 132.634 24.4259 132.634 23.8539C132.634 23.3615 132.729 22.9562 132.918 22.638C133.107 22.3198 133.363 22.0679 133.685 21.8823C134.007 21.6967 134.367 21.5566 134.765 21.4619C135.162 21.3672 135.568 21.2952 135.98 21.246C136.503 21.1854 136.927 21.1361 137.253 21.0982C137.579 21.0566 137.816 20.9903 137.963 20.8994C138.111 20.8085 138.185 20.6607 138.185 20.4562V20.4164C138.185 19.9202 138.045 19.5357 137.765 19.263C137.488 18.9903 137.075 18.8539 136.526 18.8539C135.954 18.8539 135.503 18.9808 135.174 19.2346C134.848 19.4846 134.623 19.763 134.498 20.0698L132.901 19.7062C133.09 19.1759 133.367 18.7479 133.73 18.4221C134.098 18.0926 134.52 17.8539 134.998 17.7062C135.475 17.5547 135.977 17.4789 136.503 17.4789C136.852 17.4789 137.221 17.5206 137.611 17.6039C138.005 17.6835 138.373 17.8312 138.713 18.0471C139.058 18.263 139.34 18.5717 139.56 18.9732C139.78 19.371 139.89 19.888 139.89 20.5244V26.3198H138.23V25.1266H138.162C138.052 25.3463 137.888 25.5622 137.668 25.7744C137.448 25.9865 137.166 26.1626 136.821 26.3028C136.477 26.4429 136.064 26.513 135.583 26.513ZM135.952 25.1494C136.422 25.1494 136.823 25.0566 137.157 24.871C137.494 24.6854 137.749 24.4429 137.924 24.1437C138.102 23.8407 138.191 23.5168 138.191 23.1721V22.0471C138.13 22.1077 138.013 22.1645 137.838 22.2176C137.668 22.2668 137.473 22.3104 137.253 22.3482C137.034 22.3823 136.819 22.4145 136.611 22.4448C136.403 22.4713 136.229 22.4941 136.088 22.513C135.759 22.5547 135.458 22.6247 135.185 22.7232C134.916 22.8217 134.7 22.9638 134.537 23.1494C134.378 23.3312 134.299 23.5736 134.299 23.8766C134.299 24.2971 134.454 24.6153 134.765 24.8312C135.075 25.0433 135.471 25.1494 135.952 25.1494ZM146.066 17.5926V18.9562H141.299V17.5926H146.066ZM142.578 15.5016H144.276V23.7573C144.276 24.0869 144.326 24.335 144.424 24.5016C144.523 24.6645 144.65 24.7763 144.805 24.8369C144.964 24.8937 145.136 24.9221 145.322 24.9221C145.458 24.9221 145.578 24.9126 145.68 24.8937C145.782 24.8747 145.862 24.8596 145.918 24.8482L146.225 26.2516C146.127 26.2895 145.987 26.3274 145.805 26.3653C145.623 26.4069 145.396 26.4297 145.123 26.4335C144.676 26.441 144.259 26.3615 143.873 26.1948C143.487 26.0282 143.174 25.7706 142.936 25.4221C142.697 25.0736 142.578 24.6361 142.578 24.1096V15.5016ZM151.453 26.496C150.593 26.496 149.853 26.3122 149.232 25.9448C148.614 25.5736 148.137 25.0528 147.8 24.3823C147.466 23.7081 147.3 22.9183 147.3 22.013C147.3 21.1191 147.466 20.3312 147.8 19.6494C148.137 18.9676 148.607 18.4354 149.209 18.0528C149.815 17.6702 150.523 17.4789 151.334 17.4789C151.826 17.4789 152.303 17.5604 152.766 17.7232C153.228 17.8861 153.642 18.1418 154.01 18.4903C154.377 18.8388 154.667 19.2914 154.879 19.8482C155.091 20.4013 155.197 21.0736 155.197 21.8653V22.4676H148.26V21.1948H153.533C153.533 20.7479 153.442 20.352 153.26 20.0073C153.078 19.6588 152.822 19.3842 152.493 19.1835C152.167 18.9827 151.785 18.8823 151.345 18.8823C150.868 18.8823 150.451 18.9997 150.095 19.2346C149.743 19.4657 149.47 19.7687 149.277 20.1437C149.088 20.5149 148.993 20.9183 148.993 21.3539V22.3482C148.993 22.9316 149.095 23.4278 149.3 23.8369C149.508 24.246 149.798 24.5585 150.169 24.7744C150.54 24.9865 150.974 25.0926 151.47 25.0926C151.792 25.0926 152.086 25.0471 152.351 24.9562C152.616 24.8615 152.845 24.7213 153.038 24.5357C153.232 24.3501 153.379 24.121 153.482 23.8482L155.089 24.138C154.961 24.6115 154.73 25.0263 154.396 25.3823C154.067 25.7346 153.652 26.0092 153.152 26.2062C152.656 26.3994 152.089 26.496 151.453 26.496ZM156.922 26.3198V17.5926H158.553V19.013H158.661C158.843 18.5319 159.14 18.1569 159.553 17.888C159.966 17.6153 160.46 17.4789 161.036 17.4789C161.619 17.4789 162.108 17.6153 162.502 17.888C162.9 18.1607 163.193 18.5357 163.383 19.013H163.473C163.682 18.5471 164.013 18.1759 164.468 17.8994C164.922 17.6191 165.464 17.4789 166.093 17.4789C166.884 17.4789 167.53 17.727 168.03 18.2232C168.534 18.7194 168.786 19.4676 168.786 20.4676V26.3198H167.087V20.6266C167.087 20.0357 166.926 19.6077 166.604 19.3426C166.282 19.0774 165.898 18.9448 165.451 18.9448C164.898 18.9448 164.468 19.1153 164.161 19.4562C163.854 19.7933 163.701 20.227 163.701 20.7573V26.3198H162.008V20.5187C162.008 20.0452 161.86 19.6645 161.564 19.3766C161.269 19.0888 160.884 18.9448 160.411 18.9448C160.089 18.9448 159.792 19.0301 159.519 19.2005C159.25 19.3672 159.032 19.6001 158.866 19.8994C158.703 20.1986 158.621 20.5452 158.621 20.9391V26.3198H156.922ZM174.664 26.496C173.804 26.496 173.064 26.3122 172.443 25.9448C171.825 25.5736 171.348 25.0528 171.011 24.3823C170.678 23.7081 170.511 22.9183 170.511 22.013C170.511 21.1191 170.678 20.3312 171.011 19.6494C171.348 18.9676 171.818 18.4354 172.42 18.0528C173.026 17.6702 173.734 17.4789 174.545 17.4789C175.037 17.4789 175.515 17.5604 175.977 17.7232C176.439 17.8861 176.854 18.1418 177.221 18.4903C177.589 18.8388 177.878 19.2914 178.09 19.8482C178.303 20.4013 178.409 21.0736 178.409 21.8653V22.4676H171.471V21.1948H176.744C176.744 20.7479 176.653 20.352 176.471 20.0073C176.289 19.6588 176.034 19.3842 175.704 19.1835C175.378 18.9827 174.996 18.8823 174.556 18.8823C174.079 18.8823 173.662 18.9997 173.306 19.2346C172.954 19.4657 172.681 19.7687 172.488 20.1437C172.299 20.5149 172.204 20.9183 172.204 21.3539V22.3482C172.204 22.9316 172.306 23.4278 172.511 23.8369C172.719 24.246 173.009 24.5585 173.38 24.7744C173.751 24.9865 174.185 25.0926 174.681 25.0926C175.003 25.0926 175.297 25.0471 175.562 24.9562C175.827 24.8615 176.056 24.7213 176.25 24.5357C176.443 24.3501 176.59 24.121 176.693 23.8482L178.301 24.138C178.172 24.6115 177.941 25.0263 177.608 25.3823C177.278 25.7346 176.863 26.0092 176.363 26.2062C175.867 26.3994 175.301 26.496 174.664 26.496ZM181.832 21.138V26.3198H180.134V17.5926H181.764V19.013H181.872C182.073 18.5509 182.387 18.1797 182.815 17.8994C183.247 17.6191 183.791 17.4789 184.446 17.4789C185.041 17.4789 185.562 17.6039 186.009 17.8539C186.456 18.1001 186.802 18.4676 187.048 18.9562C187.295 19.4448 187.418 20.049 187.418 20.7687V26.3198H185.719V20.9732C185.719 20.3407 185.554 19.8463 185.225 19.4903C184.895 19.1304 184.442 18.9505 183.867 18.9505C183.473 18.9505 183.122 19.0357 182.815 19.2062C182.512 19.3766 182.272 19.6266 182.094 19.9562C181.92 20.2819 181.832 20.6759 181.832 21.138ZM193.61 17.5926V18.9562H188.843V17.5926H193.61ZM190.121 15.5016H191.82V23.7573C191.82 24.0869 191.869 24.335 191.968 24.5016C192.066 24.6645 192.193 24.7763 192.349 24.8369C192.508 24.8937 192.68 24.9221 192.866 24.9221C193.002 24.9221 193.121 24.9126 193.224 24.8937C193.326 24.8747 193.405 24.8596 193.462 24.8482L193.769 26.2516C193.671 26.2895 193.53 26.3274 193.349 26.3653C193.167 26.4069 192.94 26.4297 192.667 26.4335C192.22 26.441 191.803 26.3615 191.417 26.1948C191.03 26.0282 190.718 25.7706 190.479 25.4221C190.241 25.0736 190.121 24.6361 190.121 24.1096V15.5016Z" fill="white"/>
<defs>
<clipPath id="clip0_9426_19782">
<rect width="20" height="20" fill="white" transform="translate(10.5 10.8198)"/>
</clipPath>
</defs>
</svg>