<svg xmlns="http://www.w3.org/2000/svg" fill="none" viewBox="0 0 192 42">
<rect width="192" height="42" rx="5" fill="#244A32"/>
<path d="M16.0015 25.3198V13.6835H20.1493C21.0508 13.6835 21.7989 13.8388 22.3936 14.1494C22.9921 14.46 23.439 14.8899 23.7345 15.4391C24.0299 15.9846 24.1777 16.6153 24.1777 17.3312C24.1777 18.0433 24.028 18.6702 23.7288 19.2119C23.4333 19.7497 22.9864 20.1683 22.3879 20.4676C21.7932 20.7668 21.0451 20.9164 20.1436 20.9164H17.0015V19.4051H19.9845C20.5527 19.4051 21.0148 19.3236 21.3708 19.1607C21.7307 18.9979 21.994 18.7611 22.1606 18.4505C22.3273 18.1399 22.4106 17.7668 22.4106 17.3312C22.4106 16.8918 22.3254 16.5111 22.1549 16.1891C21.9883 15.8672 21.725 15.621 21.3652 15.4505C21.0091 15.2763 20.5413 15.1891 19.9618 15.1891H17.7572V25.3198H16.0015ZM21.7458 20.0698L24.6208 25.3198H22.6208L19.8027 20.0698H21.7458ZM29.6697 25.496C28.8098 25.496 28.0693 25.3122 27.4481 24.9448C26.8306 24.5736 26.3534 24.0528 26.0162 23.3823C25.6829 22.7081 25.5162 21.9183 25.5162 21.013C25.5162 20.1191 25.6829 19.3312 26.0162 18.6494C26.3534 17.9676 26.8231 17.4354 27.4253 17.0528C28.0314 16.6702 28.7397 16.4789 29.5503 16.4789C30.0428 16.4789 30.52 16.5604 30.9822 16.7232C31.4443 16.8861 31.859 17.1418 32.2265 17.4903C32.5939 17.8388 32.8837 18.2914 33.0958 18.8482C33.3079 19.4013 33.414 20.0736 33.414 20.8653V21.4676H26.4765V20.1948H31.7492C31.7492 19.7479 31.6583 19.352 31.4765 19.0073C31.2947 18.6588 31.039 18.3842 30.7094 18.1835C30.3837 17.9827 30.0011 17.8823 29.5617 17.8823C29.0844 17.8823 28.6678 17.9997 28.3117 18.2346C27.9594 18.4657 27.6867 18.7687 27.4935 19.1437C27.3041 19.5149 27.2094 19.9183 27.2094 20.3539V21.3482C27.2094 21.9316 27.3117 22.4278 27.5162 22.8369C27.7246 23.246 28.0144 23.5585 28.3856 23.7744C28.7568 23.9865 29.1905 24.0926 29.6867 24.0926C30.0087 24.0926 30.3022 24.0471 30.5674 23.9562C30.8325 23.8615 31.0617 23.7213 31.2549 23.5357C31.4481 23.3501 31.5958 23.121 31.6981 22.8482L33.306 23.138C33.1772 23.6115 32.9462 24.0263 32.6128 24.3823C32.2833 24.7346 31.8685 25.0092 31.3685 25.2062C30.8723 25.3994 30.306 25.496 29.6697 25.496ZM37.6787 25.513C37.1257 25.513 36.6257 25.4107 36.1787 25.2062C35.7317 24.9979 35.3776 24.6967 35.1162 24.3028C34.8586 23.9088 34.7298 23.4259 34.7298 22.8539C34.7298 22.3615 34.8245 21.9562 35.0139 21.638C35.2033 21.3198 35.459 21.0679 35.781 20.8823C36.1029 20.6967 36.4628 20.5566 36.8605 20.4619C37.2582 20.3672 37.6635 20.2952 38.0764 20.246C38.5991 20.1854 39.0234 20.1361 39.3491 20.0982C39.6749 20.0566 39.9116 19.9903 40.0594 19.8994C40.2071 19.8085 40.281 19.6607 40.281 19.4562V19.4164C40.281 18.9202 40.1408 18.5357 39.8605 18.263C39.584 17.9903 39.1711 17.8539 38.6219 17.8539C38.0499 17.8539 37.5991 17.9808 37.2696 18.2346C36.9438 18.4846 36.7185 18.763 36.5935 19.0698L34.9969 18.7062C35.1863 18.1759 35.4628 17.7479 35.8264 17.4221C36.1938 17.0926 36.6162 16.8539 37.0935 16.7062C37.5707 16.5547 38.0726 16.4789 38.5991 16.4789C38.9476 16.4789 39.3169 16.5206 39.7071 16.6039C40.101 16.6835 40.4685 16.8312 40.8094 17.0471C41.1541 17.263 41.4363 17.5717 41.656 17.9732C41.8757 18.371 41.9855 18.888 41.9855 19.5244V25.3198H40.3264V24.1266H40.2582C40.1484 24.3463 39.9836 24.5622 39.7639 24.7744C39.5442 24.9865 39.262 25.1626 38.9173 25.3028C38.5726 25.4429 38.1598 25.513 37.6787 25.513ZM38.048 24.1494C38.5177 24.1494 38.9192 24.0566 39.2526 23.871C39.5897 23.6854 39.8454 23.4429 40.0196 23.1437C40.1976 22.8407 40.2866 22.5168 40.2866 22.1721V21.0471C40.226 21.1077 40.1086 21.1645 39.9344 21.2176C39.7639 21.2668 39.5688 21.3104 39.3491 21.3482C39.1294 21.3823 38.9154 21.4145 38.7071 21.4448C38.4988 21.4713 38.3245 21.4941 38.1844 21.513C37.8548 21.5547 37.5537 21.6247 37.281 21.7232C37.012 21.8217 36.7961 21.9638 36.6332 22.1494C36.4741 22.3312 36.3946 22.5736 36.3946 22.8766C36.3946 23.2971 36.5499 23.6153 36.8605 23.8312C37.1711 24.0433 37.5669 24.1494 38.048 24.1494ZM47.3553 25.4903C46.6508 25.4903 46.022 25.3104 45.469 24.9505C44.9197 24.5869 44.4879 24.0698 44.1735 23.3994C43.8629 22.7251 43.7076 21.9164 43.7076 20.9732C43.7076 20.0301 43.8648 19.2232 44.1792 18.5528C44.4974 17.8823 44.933 17.3691 45.486 17.013C46.0391 16.6569 46.6659 16.4789 47.3667 16.4789C47.9084 16.4789 48.344 16.5698 48.6735 16.7516C49.0069 16.9297 49.2644 17.138 49.4462 17.3766C49.6319 17.6153 49.7758 17.8255 49.8781 18.0073H49.9803V13.6835H51.6792V25.3198H50.0201V23.9619H49.8781C49.7758 24.1475 49.6281 24.3596 49.4349 24.5982C49.2455 24.8369 48.9841 25.0452 48.6508 25.2232C48.3175 25.4013 47.8856 25.4903 47.3553 25.4903ZM47.7303 24.0414C48.219 24.0414 48.6319 23.9126 48.969 23.6551C49.3099 23.3937 49.5675 23.0319 49.7417 22.5698C49.9197 22.1077 50.0087 21.5698 50.0087 20.9562C50.0087 20.3501 49.9216 19.8198 49.7474 19.3653C49.5731 18.9107 49.3175 18.5566 48.9803 18.3028C48.6432 18.049 48.2266 17.9221 47.7303 17.9221C47.219 17.9221 46.7928 18.0547 46.4519 18.3198C46.111 18.585 45.8534 18.9467 45.6792 19.4051C45.5087 19.8634 45.4235 20.3804 45.4235 20.9562C45.4235 21.5395 45.5106 22.0641 45.6849 22.5301C45.8591 22.996 46.1167 23.3653 46.4576 23.638C46.8023 23.9069 47.2266 24.0414 47.7303 24.0414ZM64.5012 16.7403C64.4406 16.2024 64.1906 15.7857 63.7512 15.4903C63.3119 15.191 62.7588 15.0414 62.0922 15.0414C61.6149 15.0414 61.202 15.1172 60.8535 15.2687C60.505 15.4164 60.2342 15.621 60.041 15.8823C59.8516 16.1399 59.7569 16.4335 59.7569 16.763C59.7569 17.0395 59.8213 17.2782 59.9501 17.4789C60.0827 17.6797 60.255 17.8482 60.4672 17.9846C60.6831 18.1172 60.9141 18.2289 61.1603 18.3198C61.4066 18.4069 61.6433 18.4789 61.8706 18.5357L63.0069 18.8312C63.3781 18.9221 63.7588 19.0452 64.149 19.2005C64.5391 19.3558 64.9009 19.5604 65.2342 19.8141C65.5675 20.0679 65.8365 20.3823 66.041 20.7573C66.2494 21.1323 66.3535 21.5812 66.3535 22.1039C66.3535 22.763 66.1831 23.3482 65.8422 23.8596C65.505 24.371 65.0145 24.7744 64.3706 25.0698C63.7304 25.3653 62.9558 25.513 62.0467 25.513C61.1755 25.513 60.4217 25.3747 59.7853 25.0982C59.149 24.8217 58.6509 24.4297 58.291 23.9221C57.9312 23.4107 57.7323 22.8047 57.6944 22.1039H59.4558C59.4899 22.5244 59.6262 22.8747 59.8649 23.1551C60.1073 23.4316 60.416 23.638 60.791 23.7744C61.1698 23.9069 61.5846 23.9732 62.0353 23.9732C62.5316 23.9732 62.9728 23.8956 63.3592 23.7403C63.7494 23.5812 64.0562 23.3615 64.2797 23.0812C64.5031 22.7971 64.6149 22.4657 64.6149 22.0869C64.6149 21.7422 64.5164 21.46 64.3194 21.2403C64.1262 21.0206 63.863 20.8388 63.5297 20.6948C63.2001 20.5509 62.827 20.424 62.4103 20.3141L61.0353 19.9391C60.1035 19.6854 59.3649 19.3122 58.8194 18.8198C58.2778 18.3274 58.0069 17.6759 58.0069 16.8653C58.0069 16.1948 58.1887 15.6096 58.5524 15.1096C58.916 14.6096 59.4084 14.2213 60.0297 13.9448C60.6509 13.6645 61.3516 13.5244 62.1319 13.5244C62.9198 13.5244 63.6149 13.6626 64.2172 13.9391C64.8232 14.2157 65.3005 14.5963 65.649 15.0812C65.9975 15.5622 66.1793 16.1153 66.1944 16.7403H64.5012ZM73.6836 21.7005V16.5926H75.3881V25.3198H73.7177V23.8085H73.6268C73.426 24.2744 73.104 24.6626 72.6609 24.9732C72.2215 25.2801 71.6741 25.4335 71.0188 25.4335C70.4582 25.4335 69.962 25.3104 69.5302 25.0641C69.1021 24.8141 68.765 24.4448 68.5188 23.9562C68.2764 23.4676 68.1552 22.8634 68.1552 22.1437V16.5926H69.854V21.9391C69.854 22.5338 70.0188 23.0073 70.3484 23.3596C70.6779 23.7119 71.1059 23.888 71.6324 23.888C71.9506 23.888 72.2669 23.8085 72.5813 23.6494C72.8995 23.4903 73.1627 23.2497 73.3711 22.9278C73.5832 22.6058 73.6874 22.1967 73.6836 21.7005ZM81.1869 25.496C80.3422 25.496 79.615 25.3047 79.0051 24.9221C78.3991 24.5357 77.9331 24.0035 77.6074 23.3255C77.2816 22.6475 77.1187 21.871 77.1187 20.996C77.1187 20.1096 77.2854 19.3274 77.6187 18.6494C77.9521 17.9676 78.4218 17.4354 79.0278 17.0528C79.6339 16.6702 80.3479 16.4789 81.1699 16.4789C81.8328 16.4789 82.4237 16.602 82.9426 16.8482C83.4616 17.0907 83.8801 17.4316 84.1983 17.871C84.5203 18.3104 84.7116 18.8236 84.7722 19.4107H83.1187C83.0278 19.0016 82.8195 18.6494 82.4937 18.3539C82.1718 18.0585 81.74 17.9107 81.1983 17.9107C80.7248 17.9107 80.31 18.0357 79.954 18.2857C79.6017 18.5319 79.3271 18.8842 79.1301 19.3426C78.9331 19.7971 78.8347 20.335 78.8347 20.9562C78.8347 21.5926 78.9312 22.1418 79.1244 22.6039C79.3176 23.066 79.5903 23.424 79.9426 23.6778C80.2987 23.9316 80.7172 24.0585 81.1983 24.0585C81.5203 24.0585 81.8119 23.9997 82.0733 23.8823C82.3384 23.7611 82.56 23.5888 82.7381 23.3653C82.9199 23.1418 83.0468 22.8729 83.1187 22.5585H84.7722C84.7116 23.1229 84.5278 23.6266 84.221 24.0698C83.9142 24.513 83.5032 24.8615 82.9881 25.1153C82.4767 25.3691 81.8763 25.496 81.1869 25.496ZM90.1051 25.496C89.2604 25.496 88.5331 25.3047 87.9232 24.9221C87.3172 24.5357 86.8513 24.0035 86.5255 23.3255C86.1998 22.6475 86.0369 21.871 86.0369 20.996C86.0369 20.1096 86.2035 19.3274 86.5369 18.6494C86.8702 17.9676 87.3399 17.4354 87.946 17.0528C88.552 16.6702 89.266 16.4789 90.088 16.4789C90.7509 16.4789 91.3418 16.602 91.8607 16.8482C92.3797 17.0907 92.7982 17.4316 93.1164 17.871C93.4384 18.3104 93.6297 18.8236 93.6903 19.4107H92.0369C91.946 19.0016 91.7376 18.6494 91.4119 18.3539C91.0899 18.0585 90.6581 17.9107 90.1164 17.9107C89.6429 17.9107 89.2282 18.0357 88.8721 18.2857C88.5198 18.5319 88.2452 18.8842 88.0482 19.3426C87.8513 19.7971 87.7528 20.335 87.7528 20.9562C87.7528 21.5926 87.8494 22.1418 88.0426 22.6039C88.2357 23.066 88.5085 23.424 88.8607 23.6778C89.2168 23.9316 89.6354 24.0585 90.1164 24.0585C90.4384 24.0585 90.7301 23.9997 90.9914 23.8823C91.2566 23.7611 91.4782 23.5888 91.6562 23.3653C91.838 23.1418 91.9649 22.8729 92.0369 22.5585H93.6903C93.6297 23.1229 93.446 23.6266 93.1391 24.0698C92.8323 24.513 92.4213 24.8615 91.9062 25.1153C91.3948 25.3691 90.7944 25.496 90.1051 25.496ZM99.1084 25.496C98.2486 25.496 97.508 25.3122 96.8868 24.9448C96.2694 24.5736 95.7921 24.0528 95.455 23.3823C95.1217 22.7081 94.955 21.9183 94.955 21.013C94.955 20.1191 95.1217 19.3312 95.455 18.6494C95.7921 17.9676 96.2618 17.4354 96.8641 17.0528C97.4701 16.6702 98.1785 16.4789 98.9891 16.4789C99.4815 16.4789 99.9588 16.5604 100.421 16.7232C100.883 16.8861 101.298 17.1418 101.665 17.4903C102.033 17.8388 102.322 18.2914 102.535 18.8482C102.747 19.4013 102.853 20.0736 102.853 20.8653V21.4676H95.9152V20.1948H101.188C101.188 19.7479 101.097 19.352 100.915 19.0073C100.733 18.6588 100.478 18.3842 100.148 18.1835C99.8224 17.9827 99.4398 17.8823 99.0004 17.8823C98.5232 17.8823 98.1065 17.9997 97.7504 18.2346C97.3982 18.4657 97.1254 18.7687 96.9323 19.1437C96.7429 19.5149 96.6482 19.9183 96.6482 20.3539V21.3482C96.6482 21.9316 96.7504 22.4278 96.955 22.8369C97.1633 23.246 97.4531 23.5585 97.8243 23.7744C98.1955 23.9865 98.6292 24.0926 99.1254 24.0926C99.4474 24.0926 99.741 24.0471 100.006 23.9562C100.271 23.8615 100.5 23.7213 100.694 23.5357C100.887 23.3501 101.035 23.121 101.137 22.8482L102.745 23.138C102.616 23.6115 102.385 24.0263 102.052 24.3823C101.722 24.7346 101.307 25.0092 100.807 25.2062C100.311 25.3994 99.7448 25.496 99.1084 25.496ZM111.117 18.7232L109.578 18.996C109.513 18.799 109.411 18.6115 109.271 18.4335C109.134 18.2554 108.949 18.1096 108.714 17.996C108.479 17.8823 108.186 17.8255 107.833 17.8255C107.352 17.8255 106.951 17.9335 106.629 18.1494C106.307 18.3615 106.146 18.6361 106.146 18.9732C106.146 19.2649 106.254 19.4997 106.47 19.6778C106.686 19.8558 107.034 20.0016 107.515 20.1153L108.902 20.4335C109.705 20.6191 110.303 20.9051 110.697 21.2914C111.091 21.6778 111.288 22.1797 111.288 22.7971C111.288 23.3198 111.136 23.7857 110.833 24.1948C110.534 24.6001 110.116 24.9183 109.578 25.1494C109.044 25.3804 108.424 25.496 107.72 25.496C106.742 25.496 105.945 25.2876 105.328 24.871C104.71 24.4505 104.331 23.8539 104.191 23.0812L105.833 22.8312C105.936 23.2592 106.146 23.5831 106.464 23.8028C106.782 24.0187 107.197 24.1266 107.708 24.1266C108.265 24.1266 108.71 24.0111 109.044 23.7801C109.377 23.5452 109.544 23.2592 109.544 22.9221C109.544 22.6494 109.441 22.4202 109.237 22.2346C109.036 22.049 108.727 21.9088 108.311 21.8141L106.833 21.4903C106.019 21.3047 105.417 21.0092 105.027 20.6039C104.64 20.1986 104.447 19.6854 104.447 19.0641C104.447 18.549 104.591 18.0982 104.879 17.7119C105.167 17.3255 105.564 17.0244 106.072 16.8085C106.58 16.5888 107.161 16.4789 107.816 16.4789C108.759 16.4789 109.502 16.6835 110.044 17.0926C110.585 17.4979 110.943 18.0414 111.117 18.7232ZM119.536 18.7232L117.996 18.996C117.931 18.799 117.829 18.6115 117.689 18.4335C117.553 18.2554 117.367 18.1096 117.132 17.996C116.897 17.8823 116.604 17.8255 116.251 17.8255C115.77 17.8255 115.369 17.9335 115.047 18.1494C114.725 18.3615 114.564 18.6361 114.564 18.9732C114.564 19.2649 114.672 19.4997 114.888 19.6778C115.104 19.8558 115.452 20.0016 115.933 20.1153L117.32 20.4335C118.123 20.6191 118.721 20.9051 119.115 21.2914C119.509 21.6778 119.706 22.1797 119.706 22.7971C119.706 23.3198 119.555 23.7857 119.251 24.1948C118.952 24.6001 118.534 24.9183 117.996 25.1494C117.462 25.3804 116.842 25.496 116.138 25.496C115.161 25.496 114.363 25.2876 113.746 24.871C113.128 24.4505 112.75 23.8539 112.609 23.0812L114.251 22.8312C114.354 23.2592 114.564 23.5831 114.882 23.8028C115.2 24.0187 115.615 24.1266 116.126 24.1266C116.683 24.1266 117.128 24.0111 117.462 23.7801C117.795 23.5452 117.962 23.2592 117.962 22.9221C117.962 22.6494 117.859 22.4202 117.655 22.2346C117.454 22.049 117.145 21.9088 116.729 21.8141L115.251 21.4903C114.437 21.3047 113.835 21.0092 113.445 20.6039C113.058 20.1986 112.865 19.6854 112.865 19.0641C112.865 18.549 113.009 18.0982 113.297 17.7119C113.585 17.3255 113.983 17.0244 114.49 16.8085C114.998 16.5888 115.579 16.4789 116.234 16.4789C117.178 16.4789 117.92 16.6835 118.462 17.0926C119.003 17.4979 119.361 18.0414 119.536 18.7232ZM131.971 16.7403C131.911 16.2024 131.661 15.7857 131.221 15.4903C130.782 15.191 130.229 15.0414 129.562 15.0414C129.085 15.0414 128.672 15.1172 128.324 15.2687C127.975 15.4164 127.704 15.621 127.511 15.8823C127.322 16.1399 127.227 16.4335 127.227 16.763C127.227 17.0395 127.291 17.2782 127.42 17.4789C127.553 17.6797 127.725 17.8482 127.937 17.9846C128.153 18.1172 128.384 18.2289 128.63 18.3198C128.877 18.4069 129.113 18.4789 129.341 18.5357L130.477 18.8312C130.848 18.9221 131.229 19.0452 131.619 19.2005C132.009 19.3558 132.371 19.5604 132.704 19.8141C133.038 20.0679 133.306 20.3823 133.511 20.7573C133.719 21.1323 133.824 21.5812 133.824 22.1039C133.824 22.763 133.653 23.3482 133.312 23.8596C132.975 24.371 132.485 24.7744 131.841 25.0698C131.2 25.3653 130.426 25.513 129.517 25.513C128.645 25.513 127.892 25.3747 127.255 25.0982C126.619 24.8217 126.121 24.4297 125.761 23.9221C125.401 23.4107 125.202 22.8047 125.164 22.1039H126.926C126.96 22.5244 127.096 22.8747 127.335 23.1551C127.577 23.4316 127.886 23.638 128.261 23.7744C128.64 23.9069 129.055 23.9732 129.505 23.9732C130.002 23.9732 130.443 23.8956 130.829 23.7403C131.219 23.5812 131.526 23.3615 131.75 23.0812C131.973 22.7971 132.085 22.4657 132.085 22.0869C132.085 21.7422 131.986 21.46 131.789 21.2403C131.596 21.0206 131.333 20.8388 131 20.6948C130.67 20.5509 130.297 20.424 129.88 20.3141L128.505 19.9391C127.574 19.6854 126.835 19.3122 126.289 18.8198C125.748 18.3274 125.477 17.6759 125.477 16.8653C125.477 16.1948 125.659 15.6096 126.022 15.1096C126.386 14.6096 126.878 14.2213 127.5 13.9448C128.121 13.6645 128.822 13.5244 129.602 13.5244C130.39 13.5244 131.085 13.6626 131.687 13.9391C132.293 14.2157 132.77 14.5963 133.119 15.0812C133.467 15.5622 133.649 16.1153 133.664 16.7403H131.971ZM139.699 16.5926V17.9562H134.932V16.5926H139.699ZM136.21 14.5016H137.909V22.7573C137.909 23.0869 137.959 23.335 138.057 23.5016C138.155 23.6645 138.282 23.7763 138.438 23.8369C138.597 23.8937 138.769 23.9221 138.955 23.9221C139.091 23.9221 139.21 23.9126 139.313 23.8937C139.415 23.8747 139.494 23.8596 139.551 23.8482L139.858 25.2516C139.76 25.2895 139.619 25.3274 139.438 25.3653C139.256 25.4069 139.029 25.4297 138.756 25.4335C138.309 25.441 137.892 25.3615 137.506 25.1948C137.119 25.0282 136.807 24.7706 136.568 24.4221C136.33 24.0736 136.21 23.6361 136.21 23.1096V14.5016ZM145.001 25.496C144.182 25.496 143.468 25.3085 142.859 24.9335C142.249 24.5585 141.775 24.0338 141.438 23.3596C141.101 22.6854 140.932 21.8975 140.932 20.996C140.932 20.0907 141.101 19.299 141.438 18.621C141.775 17.9429 142.249 17.4164 142.859 17.0414C143.468 16.6664 144.182 16.4789 145.001 16.4789C145.819 16.4789 146.533 16.6664 147.143 17.0414C147.753 17.4164 148.226 17.9429 148.563 18.621C148.9 19.299 149.069 20.0907 149.069 20.996C149.069 21.8975 148.9 22.6854 148.563 23.3596C148.226 24.0338 147.753 24.5585 147.143 24.9335C146.533 25.3085 145.819 25.496 145.001 25.496ZM145.006 24.0698C145.537 24.0698 145.976 23.9297 146.325 23.6494C146.673 23.3691 146.931 22.996 147.097 22.5301C147.268 22.0641 147.353 21.5509 147.353 20.9903C147.353 20.4335 147.268 19.9221 147.097 19.4562C146.931 18.9865 146.673 18.6096 146.325 18.3255C145.976 18.0414 145.537 17.8994 145.006 17.8994C144.472 17.8994 144.029 18.0414 143.677 18.3255C143.328 18.6096 143.069 18.9865 142.898 19.4562C142.732 19.9221 142.648 20.4335 142.648 20.9903C142.648 21.5509 142.732 22.0641 142.898 22.5301C143.069 22.996 143.328 23.3691 143.677 23.6494C144.029 23.9297 144.472 24.0698 145.006 24.0698ZM150.805 25.3198V16.5926H152.447V17.9789H152.538C152.697 17.5092 152.978 17.1399 153.379 16.871C153.784 16.5982 154.243 16.4619 154.754 16.4619C154.86 16.4619 154.985 16.4657 155.129 16.4732C155.277 16.4808 155.392 16.4903 155.476 16.5016V18.1266C155.407 18.1077 155.286 18.0869 155.112 18.0641C154.938 18.0376 154.763 18.0244 154.589 18.0244C154.188 18.0244 153.83 18.1096 153.515 18.2801C153.205 18.4467 152.959 18.6797 152.777 18.9789C152.595 19.2744 152.504 19.6115 152.504 19.9903V25.3198H150.805ZM156.786 25.3198V16.5926H158.485V25.3198H156.786ZM157.644 15.246C157.348 15.246 157.094 15.1475 156.882 14.9505C156.674 14.7497 156.57 14.5111 156.57 14.2346C156.57 13.9543 156.674 13.7157 156.882 13.5187C157.094 13.3179 157.348 13.2176 157.644 13.2176C157.939 13.2176 158.191 13.3179 158.399 13.5187C158.612 13.7157 158.718 13.9543 158.718 14.2346C158.718 14.5111 158.612 14.7497 158.399 14.9505C158.191 15.1475 157.939 15.246 157.644 15.246ZM164.372 25.496C163.512 25.496 162.771 25.3122 162.15 24.9448C161.533 24.5736 161.055 24.0528 160.718 23.3823C160.385 22.7081 160.218 21.9183 160.218 21.013C160.218 20.1191 160.385 19.3312 160.718 18.6494C161.055 17.9676 161.525 17.4354 162.127 17.0528C162.733 16.6702 163.442 16.4789 164.252 16.4789C164.745 16.4789 165.222 16.5604 165.684 16.7232C166.146 16.8861 166.561 17.1418 166.928 17.4903C167.296 17.8388 167.586 18.2914 167.798 18.8482C168.01 19.4013 168.116 20.0736 168.116 20.8653V21.4676H161.178V20.1948H166.451C166.451 19.7479 166.36 19.352 166.178 19.0073C165.997 18.6588 165.741 18.3842 165.411 18.1835C165.086 17.9827 164.703 17.8823 164.264 17.8823C163.786 17.8823 163.37 17.9997 163.014 18.2346C162.661 18.4657 162.389 18.7687 162.195 19.1437C162.006 19.5149 161.911 19.9183 161.911 20.3539V21.3482C161.911 21.9316 162.014 22.4278 162.218 22.8369C162.426 23.246 162.716 23.5585 163.087 23.7744C163.459 23.9865 163.892 24.0926 164.389 24.0926C164.711 24.0926 165.004 24.0471 165.269 23.9562C165.534 23.8615 165.764 23.7213 165.957 23.5357C166.15 23.3501 166.298 23.121 166.4 22.8482L168.008 23.138C167.879 23.6115 167.648 24.0263 167.315 24.3823C166.985 24.7346 166.57 25.0092 166.07 25.2062C165.574 25.3994 165.008 25.496 164.372 25.496ZM176.381 18.7232L174.841 18.996C174.776 18.799 174.674 18.6115 174.534 18.4335C174.398 18.2554 174.212 18.1096 173.977 17.996C173.742 17.8823 173.449 17.8255 173.096 17.8255C172.615 17.8255 172.214 17.9335 171.892 18.1494C171.57 18.3615 171.409 18.6361 171.409 18.9732C171.409 19.2649 171.517 19.4997 171.733 19.6778C171.949 19.8558 172.297 20.0016 172.778 20.1153L174.165 20.4335C174.968 20.6191 175.566 20.9051 175.96 21.2914C176.354 21.6778 176.551 22.1797 176.551 22.7971C176.551 23.3198 176.4 23.7857 176.096 24.1948C175.797 24.6001 175.379 24.9183 174.841 25.1494C174.307 25.3804 173.687 25.496 172.983 25.496C172.006 25.496 171.208 25.2876 170.591 24.871C169.973 24.4505 169.595 23.8539 169.454 23.0812L171.096 22.8312C171.199 23.2592 171.409 23.5831 171.727 23.8028C172.045 24.0187 172.46 24.1266 172.971 24.1266C173.528 24.1266 173.973 24.0111 174.307 23.7801C174.64 23.5452 174.807 23.2592 174.807 22.9221C174.807 22.6494 174.704 22.4202 174.5 22.2346C174.299 22.049 173.99 21.9088 173.574 21.8141L172.096 21.4903C171.282 21.3047 170.68 21.0092 170.29 20.6039C169.903 20.1986 169.71 19.6854 169.71 19.0641C169.71 18.549 169.854 18.0982 170.142 17.7119C170.43 17.3255 170.828 17.0244 171.335 16.8085C171.843 16.5888 172.424 16.4789 173.079 16.4789C174.023 16.4789 174.765 16.6835 175.307 17.0926C175.848 17.4979 176.206 18.0414 176.381 18.7232Z" fill="white"/>
</svg>