<svg width="176" height="158" viewBox="0 0 176 158" fill="none" xmlns="http://www.w3.org/2000/svg">
<path d="M128.25 0.883789C143.655 0.883789 158.91 3.90962 173.142 9.79036C187.374 15.6711 200.307 24.2897 211.2 35.155C222.094 46.0202 230.735 58.919 236.631 73.1142C242.527 87.3095 245.56 102.525 245.56 117.89C245.56 133.256 242.527 148.471 236.631 162.666C230.735 176.861 222.094 189.76 211.2 200.626C200.307 211.491 187.374 220.109 173.142 225.99C158.91 231.871 143.655 234.897 128.25 234.897V0.883789Z" fill="#3F674E"/>
<path d="M53.6083 0.883789C83.2154 0.883789 107.217 24.8851 107.217 54.4921C107.217 84.0992 83.2154 108.1 53.6083 108.1C24.0013 108.1 0 84.0992 0 54.4921C0 24.8851 24.0013 0.883789 53.6083 0.883789Z" fill="#3F674E"/>
</svg>
