<svg width="138" height="103" viewBox="0 0 138 103" fill="none" xmlns="http://www.w3.org/2000/svg">
<g clip-path="url(#clip0_8299_19510)">
<g clip-path="url(#clip1_8299_19510)">
<path d="M29.5 57C40.2696 57 49 48.2696 49 37.5C49 26.7304 40.2696 18 29.5 18C18.7304 18 10 26.7304 10 37.5C10 48.2696 18.7304 57 29.5 57Z" fill="#244A32"/>
<path d="M29.5 96C40.2696 96 49 87.2696 49 76.5C49 65.7304 40.2696 57 29.5 57C18.7304 57 10 65.7304 10 76.5C10 87.2696 18.7304 96 29.5 96Z" fill="#00B840" fill-opacity="0.2"/>
<path d="M69 57C80.0457 57 89 48.2696 89 37.5C89 26.7304 80.0457 18 69 18C57.9543 18 49 26.7304 49 37.5C49 48.2696 57.9543 57 69 57Z" fill="#00B840" fill-opacity="0.5"/>
<path d="M69 96C80.0457 96 89 87.2696 89 76.5C89 65.7304 80.0457 57 69 57C57.9543 57 49 65.7304 49 76.5C49 87.2696 57.9543 96 69 96Z" fill="#00B840" fill-opacity="0.5"/>
<path d="M108.5 57C119.27 57 128 48.2696 128 37.5C128 26.7304 119.27 18 108.5 18C97.7304 18 89 26.7304 89 37.5C89 48.2696 97.7304 57 108.5 57Z" fill="#00B840" fill-opacity="0.2"/>
<path d="M108.5 96C119.27 96 128 87.2696 128 76.5C128 65.7304 119.27 57 108.5 57C97.7304 57 89 65.7304 89 76.5C89 87.2696 97.7304 96 108.5 96Z" fill="#244A32"/>
</g>
</g>
<defs>
<clipPath id="clip0_8299_19510">
<rect width="138" height="103" fill="white"/>
</clipPath>
<clipPath id="clip1_8299_19510">
<rect width="138" height="103" fill="white"/>
</clipPath>
</defs>
</svg>
