<svg width="267" height="267" viewBox="0 0 267 267" fill="none" xmlns="http://www.w3.org/2000/svg">
<path d="M184.811 34.389H206.301C208.683 34.389 210.604 32.4672 210.604 30.0861C210.604 27.7171 208.683 25.7832 206.301 25.7832H184.811C182.43 25.7832 180.508 27.705 180.508 30.0861C180.508 32.4552 182.43 34.389 184.811 34.389Z" fill="#00B840"/>
<path d="M92.961 51.8894C77.5258 58.0659 71.9295 71.7726 69.9111 81.0313L63.2147 74.335C61.5346 72.6549 58.815 72.6549 57.1351 74.335C55.455 76.0151 55.455 78.7347 57.1351 80.4146L70.032 93.3116C70.8539 94.1335 71.9539 94.5686 73.0659 94.5686C73.6098 94.5686 74.1779 94.4598 74.6976 94.2423C76.3052 93.5775 77.3568 92.0183 77.3568 90.29C77.3568 89.3593 77.6831 67.2762 96.14 59.8911C98.3399 59.0087 99.4156 56.5066 98.5332 54.3069C97.6509 52.107 95.1246 51.0433 92.949 51.9136L92.961 51.8894Z" fill="#00B840"/>
<path d="M92.961 103.453C77.5258 109.629 71.9295 123.336 69.9111 132.595L63.2147 125.898C61.5346 124.218 58.815 124.218 57.1351 125.898C55.455 127.578 55.455 130.298 57.1351 131.978L70.032 144.875C70.8539 145.697 71.9539 146.132 73.0659 146.132C73.6098 146.132 74.1779 146.023 74.6976 145.805C76.3052 145.141 77.3568 143.581 77.3568 141.853C77.3568 140.922 77.6831 118.839 96.14 111.454C98.3399 110.572 99.4156 108.07 98.5332 105.87C97.6509 103.67 95.1246 102.607 92.949 103.477L92.961 103.453Z" fill="#00B840"/>
<path d="M113.001 211.849L111.937 212.913C112.952 201.998 122.054 193.404 133.222 193.404C135.604 193.404 137.525 191.483 137.525 189.101C137.525 186.732 135.603 184.799 133.222 184.799C117.207 184.799 104.117 197.393 103.222 213.191L101.881 211.849C100.201 210.169 97.481 210.169 95.8011 211.849C94.121 213.53 94.121 216.249 95.8011 217.929L104.395 226.523C105.229 227.357 106.329 227.78 107.429 227.78C108.529 227.78 109.629 227.357 110.463 226.523L119.056 217.929C120.736 216.249 120.736 213.529 119.056 211.849C117.376 210.17 114.657 210.169 112.977 211.849L113.001 211.849Z" fill="#00B840"/>
<path d="M155.986 203.256L147.392 211.85C145.712 213.53 145.712 216.249 147.392 217.929C149.072 219.609 151.792 219.609 153.472 217.929L154.535 216.866C153.52 227.78 144.419 236.374 133.25 236.374C130.869 236.374 128.947 238.296 128.947 240.677C128.947 243.046 130.869 244.98 133.25 244.98C149.266 244.98 162.356 232.385 163.25 216.587L164.592 217.929C165.426 218.763 166.526 219.186 167.626 219.186C168.726 219.186 169.825 218.763 170.66 217.929C172.34 216.249 172.34 213.529 170.66 211.849L162.066 203.256C160.386 201.576 157.666 201.576 155.986 203.256Z" fill="#00B840"/>
<path d="M210.595 64.4707H111.748C109.367 64.4707 107.445 66.3925 107.445 68.7736C107.445 71.1427 109.367 73.0765 111.748 73.0765H210.595C212.976 73.0765 214.898 71.1547 214.898 68.7736C214.898 66.4046 212.976 64.4707 210.595 64.4707Z" fill="#00B840"/>
<path d="M111.748 90.2523H159.02C161.401 90.2523 163.322 88.3305 163.322 85.9494C163.322 83.5803 161.401 81.6465 159.02 81.6465H111.748C109.367 81.6465 107.445 83.5683 107.445 85.9494C107.445 88.3184 109.367 90.2523 111.748 90.2523Z" fill="#00B840"/>
<path d="M210.595 116.046H111.748C109.367 116.046 107.445 117.968 107.445 120.349C107.445 122.718 109.367 124.652 111.748 124.652H210.595C212.976 124.652 214.898 122.73 214.898 120.349C214.898 117.98 212.976 116.046 210.595 116.046Z" fill="#00B840"/>
<path d="M159.02 133.235H111.748C109.367 133.235 107.445 135.157 107.445 137.538C107.445 139.907 109.367 141.841 111.748 141.841H159.02C161.401 141.841 163.322 139.919 163.322 137.538C163.322 135.169 161.401 133.235 159.02 133.235Z" fill="#00B840"/>
<path d="M244.968 42.9814H232.071V21.4907C232.071 9.64549 222.425 0 210.58 0L55.8784 0.0120856C44.0332 0.0120856 34.3877 9.65758 34.3877 21.5028V42.9935H21.4907C9.64549 42.9935 0 52.639 0 64.4842V176.216C0 188.061 9.64549 197.706 21.4907 197.706H34.3877C34.3877 209.552 44.0332 219.197 55.8784 219.197H81.8775C84.0773 245.619 106.245 266.468 133.236 266.468C160.228 266.468 182.395 245.618 184.595 219.197H210.594C222.439 219.197 232.085 209.552 232.085 197.706H244.982C256.827 197.706 266.473 188.061 266.473 176.216V64.4842C266.473 52.639 256.827 42.9935 244.982 42.9935L244.968 42.9814ZM244.968 51.5752C252.075 51.5752 257.865 57.3528 257.865 64.4721V68.775H232.083V51.5872H244.98L244.968 51.5752ZM8.60489 64.4721C8.60489 57.3649 14.3825 51.5752 21.5019 51.5752H34.3988V68.763H8.61726V64.4601L8.60489 64.4721ZM21.5019 189.1C14.3946 189.1 8.60489 183.323 8.60489 176.204V77.3567H34.3864V189.088H21.4895L21.5019 189.1ZM133.233 257.865C109.543 257.865 90.2506 238.586 90.2506 214.882C90.2506 191.179 109.529 171.899 133.233 171.899C156.924 171.899 176.216 191.178 176.216 214.882C176.216 238.585 156.937 257.865 133.233 257.865ZM223.487 197.696C223.487 204.804 217.71 210.593 210.59 210.593H184.591C182.391 184.171 160.224 163.322 133.232 163.322C106.241 163.322 84.0735 184.172 81.8734 210.593H55.8744C48.7671 210.593 42.9774 204.816 42.9774 197.696V34.3895H171.91C174.291 34.3895 176.213 32.4677 176.213 30.0866C176.213 27.7176 174.291 25.7837 171.91 25.7837L42.9774 25.7958V21.4929C42.9774 14.3856 48.755 8.59593 55.8744 8.59593H210.588C217.696 8.59593 223.485 14.3736 223.485 21.4929V25.7958H219.182C216.801 25.7958 214.88 27.7176 214.88 30.0987C214.88 32.4677 216.801 34.4016 219.182 34.4016H223.485V197.708L223.487 197.696ZM257.862 176.218C257.862 183.325 252.084 189.115 244.965 189.115H232.068V77.3833H257.849V176.23L257.862 176.218Z" fill="#00B840"/>
</svg>
