<svg width="277" height="238" viewBox="0 0 277 238" fill="none" xmlns="http://www.w3.org/2000/svg">
<path d="M317 165.639C317 183.764 312.901 201.712 304.935 218.458C296.969 235.204 285.294 250.42 270.575 263.236C255.857 276.053 238.384 286.22 219.155 293.156C199.926 300.093 179.314 303.663 158.5 303.663V165.639H317Z" fill="#72BFCD"/>
<path d="M0 138.034C0 119.909 4.08867 101.96 12.0324 85.215C19.9764 68.4699 31.6197 53.2542 46.2982 40.4373C60.9764 27.6204 78.4021 17.4535 97.58 10.5164C116.758 3.57932 137.313 0.0100098 158.071 0.0100098C178.829 0.0100098 199.385 3.57932 218.562 10.5164C237.739 17.4535 255.165 27.6204 269.844 40.4373C284.522 53.2542 296.166 68.4699 304.11 85.215C312.055 101.96 316.143 119.909 316.143 138.034H0Z" fill="#72BFCD"/>
</svg>
