<svg width="60" height="60" viewBox="0 0 60 60" fill="none" xmlns="http://www.w3.org/2000/svg">
<rect width="60" height="60" rx="5" fill="#F7F7F7"/>
<rect x="0.5" y="0.5" width="59" height="59" rx="4.5" stroke="white"/>
<path d="M24.992 8C24.6573 8 24.386 8.27035 24.386 8.60385V9.81153C24.386 10.145 24.6573 10.4154 24.992 10.4154C25.3268 10.4154 25.5981 10.145 25.5981 9.81153V8.60385C25.5981 8.27035 25.3268 8 24.992 8Z" fill="black"/>
<path d="M34.6888 8.60376C34.3541 8.60376 34.0828 8.87411 34.0828 9.2076V10.4153C34.0828 10.7488 34.3541 11.0191 34.6888 11.0191C35.0236 11.0191 35.2949 10.7488 35.2949 10.4153V9.2076C35.2949 8.87411 35.0236 8.60376 34.6888 8.60376Z" fill="black"/>
<path d="M18.3253 21.8884C17.9906 21.8884 17.7192 22.1588 17.7192 22.4923V27.323C17.7192 27.6565 17.9906 27.9268 18.3253 27.9268C18.66 27.9268 18.9313 27.6565 18.9313 27.323V22.4923C18.9313 22.1588 18.66 21.8884 18.3253 21.8884Z" fill="black"/>
<path d="M18.3253 18.2654C17.9906 18.2654 17.7192 18.5357 17.7192 18.8692V20.0769C17.7192 20.4104 17.9906 20.6807 18.3253 20.6807C18.66 20.6807 18.9313 20.4104 18.9313 20.0769V18.8692C18.9313 18.5357 18.66 18.2654 18.3253 18.2654Z" fill="black"/>
<path d="M41.3556 16.4539C41.0209 16.4539 40.7495 16.7242 40.7495 17.0577V21.8884C40.7495 22.2219 41.0209 22.4923 41.3556 22.4923C41.6903 22.4923 41.9616 22.2219 41.9616 21.8884V17.0577C41.9616 16.7242 41.6903 16.4539 41.3556 16.4539Z" fill="black"/>
<path d="M41.3556 12.8306C41.0209 12.8306 40.7495 13.1009 40.7495 13.4344V14.6421C40.7495 14.9756 41.0209 15.246 41.3556 15.246C41.6903 15.246 41.9616 14.9756 41.9616 14.6421V13.4344C41.9616 13.1009 41.6903 12.8306 41.3556 12.8306Z" fill="black"/>
<path fill-rule="evenodd" clip-rule="evenodd" d="M13.5398 37.5884L18.9314 41.2115L29.217 43.5744L35.2951 41.8153V39.392C35.2951 39.392 33.9382 40.6298 29.342 40.0408C24.7459 39.4517 24.992 38.6467 20.8044 37.1C16.6168 35.5533 13.5398 37.5884 13.5398 37.5884Z" fill="#00B840"/>
<path fill-rule="evenodd" clip-rule="evenodd" d="M40.1436 31.55H46.8103C47.145 31.55 47.4164 31.8204 47.4164 32.1539V43.6269C47.4164 43.9604 47.145 44.2308 46.8103 44.2308H40.1436C39.3757 44.2271 38.6929 43.7431 38.4376 43.0216H35.4035C35.2122 43.0196 35.0336 42.9257 34.9239 42.7694L29.6482 43.9772C29.3759 44.0385 29.0932 44.0385 28.8209 43.9772L18.7967 41.6961C18.7275 41.6803 18.6617 41.6527 18.602 41.6146L11.8694 37.2737C11.3615 36.9504 11.0537 36.3918 11.0527 35.7913V34.4817C11.0523 33.9244 11.3174 33.4 11.7671 33.0687C12.2325 32.7213 12.8355 32.6138 13.3929 32.7789L22.6603 35.4871C22.8519 34.879 23.3104 34.3906 23.9065 34.1594L28.652 32.2837C28.9992 32.1464 29.38 32.1169 29.7444 32.1992L34.8005 33.3427C34.8106 33.0181 35.0767 32.7596 35.4027 32.7577H38.4368C38.6927 32.0365 39.3758 31.5531 40.1436 31.55ZM29.3769 42.8027L34.6512 41.595L34.689 34.5556L29.4784 33.3782C29.3521 33.3494 29.2199 33.3597 29.0996 33.4076L24.3542 35.2848C24.0119 35.4138 23.784 35.7385 23.7799 36.103C23.7799 36.5883 24.1989 36.9846 24.7133 36.9846H29.2345C29.5692 36.9846 29.8405 37.255 29.8405 37.5885C29.8405 37.922 29.5692 38.1923 29.2345 38.1923H24.7133C23.794 38.1972 22.9733 37.6193 22.6708 36.7544L13.0496 33.9382C12.8587 33.88 12.6514 33.9165 12.4921 34.0363C12.349 34.1395 12.2644 34.305 12.2648 34.4809V35.7905C12.2647 35.9813 12.3621 36.1591 12.5231 36.2623L19.1671 40.5458L29.0913 42.8027C29.1852 42.8245 29.2829 42.8245 29.3769 42.8027ZM38.3254 41.8154H35.9012V33.9654H38.3254V41.8154ZM40.1436 43.0231H46.2042V32.7577H40.1436C39.8088 32.7577 39.5375 33.0281 39.5375 33.3616V42.4192C39.5375 42.7527 39.8088 43.0231 40.1436 43.0231Z" fill="black"/>
<path d="M38.4374 43.0214L38.5119 42.9952L38.4933 42.9427H38.4374V43.0214ZM35.4033 43.0214L35.4025 43.1H35.4033V43.0214ZM34.9238 42.7692L34.9885 42.7242L34.958 42.6807L34.9061 42.6926L34.9238 42.7692ZM22.6602 35.4869L22.6379 35.5624L22.7123 35.5841L22.7355 35.5105L22.6602 35.4869ZM34.8003 33.3425L34.7828 33.4192L34.8762 33.4403L34.8792 33.3449L34.8003 33.3425ZM38.4367 32.7575V32.8362H38.4925L38.5111 32.7837L38.4367 32.7575ZM34.651 41.5948L34.6687 41.6714L34.7296 41.6575L34.7299 41.5952L34.651 41.5948ZM34.6889 34.5554L34.7678 34.5559L34.7682 34.4927L34.7063 34.4788L34.6889 34.5554ZM24.354 35.2846L24.3819 35.3582L24.3832 35.3577L24.354 35.2846ZM23.7798 36.1028L23.7008 36.1019V36.1028H23.7798ZM22.6707 36.7542L22.7453 36.7284L22.7319 36.6901L22.6929 36.6788L22.6707 36.7542ZM13.0495 33.938L13.0264 34.0133L13.0272 34.0135L13.0495 33.938ZM12.4919 34.0361L12.5382 34.0999L12.5395 34.0989L12.4919 34.0361ZM19.1669 40.5456L19.124 40.6116L19.1357 40.6192L19.1493 40.6223L19.1669 40.5456ZM35.901 41.8152H35.8221V41.8938H35.901V41.8152ZM38.3252 41.8152V41.8938H38.4042V41.8152H38.3252ZM35.901 33.9652V33.8865H35.8221V33.9652H35.901ZM38.3252 33.9652H38.4042V33.8865H38.3252V33.9652ZM46.204 43.0229V43.1015H46.283V43.0229H46.204ZM46.204 32.7575H46.283V32.6789H46.204V32.7575ZM46.8102 31.4712H40.1435V31.6285H46.8102V31.4712ZM47.4952 32.1537C47.4952 31.7768 47.1885 31.4712 46.8102 31.4712V31.6285C47.1013 31.6285 47.3373 31.8636 47.3373 32.1537H47.4952ZM47.4952 43.6267V32.1537H47.3373V43.6267H47.4952ZM46.8102 44.3092C47.1885 44.3092 47.4952 44.0036 47.4952 43.6267H47.3373C47.3373 43.9168 47.1013 44.1519 46.8102 44.1519V44.3092ZM40.1431 44.3092H46.8102V44.1519H40.1435L40.1431 44.3092ZM38.363 43.0475C38.6294 43.8004 39.3418 44.3054 40.1431 44.3092L40.1435 44.1519C39.409 44.1484 38.7561 43.6854 38.5119 42.9952L38.363 43.0475ZM35.4033 43.1H38.4374V42.9427H35.4033V43.1ZM34.8591 42.8143C34.9833 42.9914 35.1857 43.0978 35.4025 43.1L35.4042 42.9427C35.2383 42.941 35.0835 42.8596 34.9885 42.7242L34.8591 42.8143ZM29.6655 44.0537L34.9415 42.8459L34.9061 42.6926L29.6304 43.9003L29.6655 44.0537ZM28.8032 44.0536C29.087 44.1176 29.3817 44.1176 29.6655 44.0537L29.6304 43.9003C29.3695 43.9591 29.0991 43.959 28.8382 43.9002L28.8032 44.0536ZM18.7789 41.7726L28.8032 44.0536L28.8382 43.9002L18.8141 41.6192L18.7789 41.7726ZM18.5589 41.6804C18.6263 41.7235 18.7009 41.7548 18.7789 41.7726L18.8141 41.6192C18.7538 41.6055 18.6965 41.5814 18.6444 41.5482L18.5589 41.6804ZM11.8264 37.3395L18.5589 41.6804L18.6444 41.5482L11.9121 37.2075L11.8264 37.3395ZM10.9736 35.7911C10.9747 36.4183 11.2958 37.0018 11.8264 37.3395L11.9121 37.2075C11.4269 36.8987 11.1325 36.3646 11.1315 35.791L10.9736 35.7911ZM10.9736 34.4815V35.7911L11.1315 35.791V34.4815H10.9736ZM11.72 33.0052C11.2502 33.3514 10.9732 33.8993 10.9736 34.4815H11.1315C11.1311 33.9492 11.3844 33.4482 11.8139 33.1317L11.72 33.0052ZM13.4152 32.7032C12.8339 32.5311 12.2054 32.6429 11.72 33.0052L11.8139 33.1317C12.2593 32.7992 12.8368 32.6961 13.3702 32.8541L13.4152 32.7032ZM22.6824 35.4114L13.4152 32.7032L13.3702 32.8541L22.6379 35.5624L22.6824 35.4114ZM23.8777 34.0859C23.2593 34.3258 22.7837 34.8325 22.5848 35.4633L22.7355 35.5105C22.9199 34.9252 23.3612 34.455 23.935 34.2325L23.8777 34.0859ZM28.6227 32.2104L23.8777 34.0859L23.935 34.2325L28.681 32.3566L28.6227 32.2104ZM29.7617 32.1223C29.3818 32.0365 28.9847 32.0672 28.6227 32.2104L28.681 32.3566C29.0134 32.2251 29.3779 32.1969 29.7268 32.2757L29.7617 32.1223ZM34.8178 33.2658L29.7617 32.1223L29.7268 32.2757L34.7828 33.4192L34.8178 33.2658ZM35.4026 32.6789C35.0342 32.681 34.7329 32.9731 34.7214 33.3401L34.8792 33.3449C34.8881 33.0626 35.1195 32.8378 35.4031 32.8362L35.4026 32.6789ZM38.4367 32.6789H35.4026L35.4031 32.8362H38.4367V32.6789ZM40.1435 31.4712C39.3423 31.4744 38.6293 31.9787 38.3623 32.7313L38.5111 32.7837C38.756 32.0938 39.4091 31.6314 40.1435 31.6285V31.4712ZM34.6333 41.5181L29.3591 42.7258L29.3944 42.8791L34.6687 41.6714L34.6333 41.5181ZM34.6099 34.555L34.5721 41.5943L34.7299 41.5952L34.7678 34.5559L34.6099 34.555ZM29.4606 33.4546L34.6714 34.6322L34.7063 34.4788L29.4957 33.3013L29.4606 33.4546ZM29.1286 33.4805C29.2341 33.4385 29.35 33.4294 29.4606 33.4546L29.4957 33.3013C29.3537 33.2689 29.2054 33.2805 29.0702 33.3344L29.1286 33.4805ZM24.3832 35.3577L29.1286 33.4805L29.0702 33.3344L24.3249 35.2115L24.3832 35.3577ZM23.8587 36.1037C23.8625 35.7716 24.0702 35.4757 24.3819 35.3582L24.3261 35.211C23.9535 35.3514 23.7053 35.705 23.7008 36.1019L23.8587 36.1037ZM24.7131 36.9058C24.2383 36.9058 23.8587 36.5408 23.8587 36.1028H23.7008C23.7008 36.6355 24.1591 37.0631 24.7131 37.0631V36.9058ZM29.2343 36.9058H24.7131V37.0631H29.2343V36.9058ZM29.9193 37.5883C29.9193 37.2113 29.6126 36.9058 29.2343 36.9058V37.0631C29.5254 37.0631 29.7614 37.2982 29.7614 37.5883H29.9193ZM29.2343 38.2707C29.6126 38.2707 29.9193 37.9652 29.9193 37.5883H29.7614C29.7614 37.8783 29.5254 38.1134 29.2343 38.1134V38.2707ZM24.7131 38.2707H29.2343V38.1134H24.7131V38.2707ZM22.5962 36.7801C22.9097 37.6768 23.7601 38.2758 24.7131 38.2707V38.1134C23.8276 38.1182 23.0366 37.5615 22.7453 36.7284L22.5962 36.7801ZM13.0272 34.0135L22.6484 36.8297L22.6929 36.6788L13.0717 33.8626L13.0272 34.0135ZM12.5395 34.0989C12.6786 33.9942 12.8597 33.9625 13.0264 34.0133L13.0726 33.8628C12.8575 33.7972 12.6239 33.8383 12.4443 33.9734L12.5395 34.0989ZM12.3436 34.4807C12.3432 34.3301 12.4157 34.1882 12.5382 34.0999L12.4456 33.9724C12.282 34.0904 12.1852 34.2797 12.1857 34.4809L12.3436 34.4807ZM12.3436 35.7903V34.4807L12.1857 34.4809V35.7903H12.3436ZM12.5659 36.1961C12.4274 36.1073 12.3435 35.9544 12.3436 35.7903H12.1857C12.1856 36.0078 12.2966 36.2105 12.4802 36.3283L12.5659 36.1961ZM19.2098 40.4795L12.5659 36.1961L12.4802 36.3283L19.124 40.6116L19.2098 40.4795ZM29.1091 42.7259L19.1845 40.4689L19.1493 40.6223L29.0736 42.8791L29.1091 42.7259ZM29.3591 42.7258C29.2769 42.7449 29.1912 42.745 29.1091 42.7259L29.0736 42.8791C29.1794 42.9038 29.2886 42.9038 29.3944 42.8791L29.3591 42.7258ZM35.901 41.8938H38.3252V41.7365H35.901V41.8938ZM35.8221 33.9652V41.8152H35.9799V33.9652H35.8221ZM38.3252 33.8865H35.901V34.0438H38.3252V33.8865ZM38.4042 41.8152V33.9652H38.2463V41.8152H38.4042ZM46.204 42.9442H40.1434V43.1015H46.204V42.9442ZM46.1251 32.7575V43.0229H46.283V32.7575H46.1251ZM40.1434 32.8362H46.204V32.6789H40.1434V32.8362ZM39.6163 33.3614C39.6163 33.0713 39.8523 32.8362 40.1434 32.8362V32.6789C39.7651 32.6789 39.4584 32.9844 39.4584 33.3614H39.6163ZM39.6163 42.419V33.3614H39.4584V42.419H39.6163ZM40.1434 42.9442C39.8523 42.9442 39.6163 42.7091 39.6163 42.419H39.4584C39.4584 42.796 39.7651 43.1015 40.1434 43.1015V42.9442Z" fill="black"/>
<path d="M43.8881 40.6074H42.07C41.7352 40.6074 41.4639 40.8778 41.4639 41.2113C41.4639 41.5448 41.7352 41.8151 42.07 41.8151H43.8881C44.2229 41.8151 44.4942 41.5448 44.4942 41.2113C44.4942 40.8778 44.2229 40.6074 43.8881 40.6074Z" fill="black"/>
<path d="M30.019 50.8986C40.2516 50.8986 48.5468 49.63 48.5468 48.0651C48.5468 46.5003 40.2516 45.2317 30.019 45.2317C19.7864 45.2317 11.4912 46.5003 11.4912 48.0651C11.4912 49.63 19.7864 50.8986 30.019 50.8986Z" fill="#2E2E2E"/>
<path d="M22.5987 20.0172C24.5249 19.5656 27.8334 19.2721 27.0176 21.7105C25.9978 24.7586 26.3377 24.0812 27.0176 25.4359C27.5614 26.5196 27.2442 27.6937 27.0176 28.1452M24.9781 15.9532C25.9978 15.7274 28.3772 15.5468 29.7368 16.6305C31.4364 17.9852 31.0965 20.0172 35.8553 17.3078M37.2149 21.3718C37.2149 25.4868 33.8669 28.8226 29.7368 28.8226C25.6068 28.8226 22.2588 25.4868 22.2588 21.3718C22.2588 17.2569 25.6068 13.9211 29.7368 13.9211C33.8669 13.9211 37.2149 17.2569 37.2149 21.3718ZM31.3189 21.5744C33.6983 21.2358 34.4956 21.0332 33.8158 22.7265C33.1846 24.2988 31.3189 27.4447 29.9593 24.2838C29.6194 23.4935 29.4154 21.8454 31.3189 21.5744Z" stroke="black" stroke-width="2" stroke-linecap="round"/>
</svg>
