<svg width="14" height="13" viewBox="0 0 14 13" fill="none" xmlns="http://www.w3.org/2000/svg">
<path d="M12.3082 12.7169C12.5035 12.9122 12.8201 12.9122 13.0153 12.7169C13.2106 12.5217 13.2106 12.2051 13.0153 12.0098L12.3082 12.7169ZM10.103 5.50064C10.103 7.87763 8.17603 9.80456 5.79904 9.80456V10.8046C8.72831 10.8046 11.103 8.42991 11.103 5.50064H10.103ZM5.79904 9.80456C3.42205 9.80456 1.49512 7.87763 1.49512 5.50064H0.495117C0.495117 8.42991 2.86976 10.8046 5.79904 10.8046V9.80456ZM1.49512 5.50064C1.49512 3.12365 3.42205 1.19672 5.79904 1.19672V0.196716C2.86976 0.196716 0.495117 2.57136 0.495117 5.50064H1.49512ZM5.79904 1.19672C8.17603 1.19672 10.103 3.12365 10.103 5.50064H11.103C11.103 2.57136 8.72831 0.196716 5.79904 0.196716V1.19672ZM8.87686 9.28556L12.3082 12.7169L13.0153 12.0098L9.58397 8.57846L8.87686 9.28556Z" fill="white" fill-opacity="0.9"/>
</svg>
