<svg width="14" height="13" viewBox="0 0 14 13" fill="none" xmlns="http://www.w3.org/2000/svg">
<path d="M12.4796 12.7169C12.6749 12.9122 12.9915 12.9122 13.1867 12.7169C13.382 12.5217 13.382 12.2051 13.1867 12.0098L12.4796 12.7169ZM10.2743 5.50064C10.2743 7.87763 8.34742 9.80456 5.97043 9.80456V10.8046C8.8997 10.8046 11.2743 8.42991 11.2743 5.50064H10.2743ZM5.97043 9.80456C3.59344 9.80456 1.6665 7.87763 1.6665 5.50064H0.666504C0.666504 8.42991 3.04115 10.8046 5.97043 10.8046V9.80456ZM1.6665 5.50064C1.6665 3.12365 3.59344 1.19672 5.97043 1.19672V0.196716C3.04115 0.196716 0.666504 2.57136 0.666504 5.50064H1.6665ZM5.97043 1.19672C8.34742 1.19672 10.2743 3.12365 10.2743 5.50064H11.2743C11.2743 2.57136 8.8997 0.196716 5.97043 0.196716V1.19672ZM9.04824 9.28556L12.4796 12.7169L13.1867 12.0098L9.75535 8.57846L9.04824 9.28556Z" fill="black"/>
</svg>
