<svg width="79" height="33" viewBox="0 0 79 33" fill="none" xmlns="http://www.w3.org/2000/svg">
<rect x="0.5" y="0.830078" width="69" height="32" rx="5" fill="#244A32"/>
<g clip-path="url(#clip0_9879_32538)">
<path d="M20.0046 14.9199C19.9549 14.4547 19.7454 14.0925 19.3761 13.8333C19.0103 13.574 18.5344 13.4444 17.9485 13.4444C17.5366 13.4444 17.1832 13.5066 16.8885 13.6309C16.5938 13.7551 16.3683 13.9238 16.212 14.1369C16.0558 14.35 15.9759 14.5932 15.9723 14.8667C15.9723 15.0939 16.0238 15.291 16.1268 15.4579C16.2333 15.6248 16.3771 15.7669 16.5582 15.8841C16.7393 15.9977 16.94 16.0936 17.1602 16.1717C17.3803 16.2498 17.6023 16.3155 17.826 16.3688L18.8487 16.6245C19.2607 16.7203 19.6566 16.85 20.0366 17.0133C20.4201 17.1767 20.7628 17.3826 21.0646 17.6312C21.37 17.8798 21.6115 18.1799 21.7891 18.5314C21.9666 18.883 22.0554 19.2949 22.0554 19.7672C22.0554 20.4064 21.892 20.9693 21.5653 21.4558C21.2386 21.9387 20.7663 22.3169 20.1484 22.5904C19.5341 22.8603 18.7901 22.9952 17.9165 22.9952C17.0678 22.9952 16.331 22.8638 15.706 22.601C15.0845 22.3382 14.598 21.9547 14.2464 21.4505C13.8984 20.9462 13.7102 20.3319 13.6818 19.6074H15.6261C15.6545 19.9874 15.7717 20.3034 15.9776 20.5556C16.1836 20.8077 16.4517 20.9959 16.782 21.1202C17.1158 21.2445 17.4886 21.3066 17.9006 21.3066C18.3303 21.3066 18.7067 21.2427 19.0298 21.1149C19.3565 20.9835 19.6122 20.8024 19.7969 20.5716C19.9815 20.3372 20.0756 20.0637 20.0792 19.7512C20.0756 19.4672 19.9922 19.2328 19.8288 19.0481C19.6655 18.8599 19.4364 18.7037 19.1417 18.5794C18.8505 18.4515 18.5096 18.3379 18.119 18.2385L16.8778 17.9189C15.9794 17.688 15.2692 17.3382 14.7472 16.8695C14.2287 16.3972 13.9695 15.7704 13.9695 14.9892C13.9695 14.3464 14.1435 13.7836 14.4915 13.3006C14.843 12.8176 15.3207 12.443 15.9244 12.1767C16.5281 11.9068 17.2116 11.7718 17.9751 11.7718C18.7493 11.7718 19.4276 11.9068 20.0099 12.1767C20.5959 12.443 21.0558 12.8141 21.3896 13.2899C21.7234 13.7623 21.8956 14.3056 21.9062 14.9199H20.0046ZM27.8176 14.6483V16.1397H23.1141V14.6483H27.8176ZM24.2753 12.688H26.2036V20.3691C26.2036 20.6284 26.2426 20.8272 26.3208 20.9657C26.4024 21.1007 26.509 21.193 26.6404 21.2427C26.7718 21.2924 26.9173 21.3173 27.0771 21.3173C27.1979 21.3173 27.308 21.3084 27.4074 21.2907C27.5104 21.2729 27.5885 21.2569 27.6418 21.2427L27.9667 22.7502C27.8637 22.7857 27.7164 22.8248 27.5246 22.8674C27.3364 22.91 27.1056 22.9348 26.8321 22.9419C26.3492 22.9561 25.9142 22.8833 25.5271 22.7235C25.14 22.5602 24.8328 22.3081 24.6056 21.9672C24.3818 21.6262 24.2718 21.2001 24.2753 20.6887V12.688ZM32.9645 22.9899C32.1442 22.9899 31.4357 22.8194 30.8391 22.4785C30.2461 22.1341 29.7898 21.6475 29.4702 21.019C29.1506 20.3869 28.9908 19.6429 28.9908 18.7871C28.9908 17.9455 29.1506 17.2069 29.4702 16.5712C29.7933 15.932 30.2443 15.4348 30.8232 15.0797C31.402 14.7211 32.082 14.5417 32.8633 14.5417C33.3675 14.5417 33.8434 14.6234 34.2908 14.7868C34.7418 14.9466 35.1396 15.1951 35.484 15.5325C35.832 15.8699 36.1055 16.2995 36.3043 16.8216C36.5032 17.34 36.6026 17.9579 36.6026 18.6752V19.2665H29.8963V17.9668H34.7543C34.7507 17.5975 34.6708 17.269 34.5146 16.9814C34.3583 16.6902 34.1399 16.4611 33.8594 16.2942C33.5824 16.1273 33.2592 16.0439 32.8899 16.0439C32.4957 16.0439 32.1495 16.1397 31.8512 16.3315C31.5529 16.5197 31.3203 16.7683 31.1534 17.0772C30.9901 17.3826 30.9066 17.7182 30.9031 18.084V19.2186C30.9031 19.6944 30.9901 20.1028 31.1641 20.4437C31.3381 20.7811 31.5813 21.0403 31.8938 21.2214C32.2063 21.399 32.5721 21.4877 32.9911 21.4877C33.2717 21.4877 33.5256 21.4487 33.7528 21.3706C33.9801 21.2889 34.1772 21.1699 34.3441 21.0137C34.511 20.8574 34.6371 20.6639 34.7223 20.4331L36.5227 20.6355C36.4091 21.1113 36.1925 21.5268 35.8729 21.8819C35.5568 22.2335 35.152 22.5069 34.6584 22.7022C34.1648 22.894 33.6001 22.9899 32.9645 22.9899ZM38.2339 25.8983V14.6483H40.1302V16.0012H40.2421C40.3415 15.8024 40.4818 15.5911 40.6629 15.3674C40.844 15.1401 41.089 14.9466 41.398 14.7868C41.7069 14.6234 42.1011 14.5417 42.5805 14.5417C43.2126 14.5417 43.7826 14.7033 44.2904 15.0265C44.8018 15.3461 45.2066 15.8201 45.5049 16.4487C45.8067 17.0737 45.9577 17.8407 45.9577 18.7498C45.9577 19.6483 45.8103 20.4118 45.5155 21.0403C45.2208 21.6689 44.8195 22.1483 44.3117 22.4785C43.8039 22.8088 43.2286 22.9739 42.5858 22.9739C42.1171 22.9739 41.7282 22.8958 41.4193 22.7395C41.1104 22.5833 40.8618 22.3951 40.6736 22.1749C40.4889 21.9512 40.3451 21.7399 40.2421 21.541H40.1622V25.8983H38.2339ZM40.1249 18.7392C40.1249 19.2683 40.1995 19.7317 40.3486 20.1294C40.5013 20.5272 40.7197 20.8379 41.0038 21.0616C41.2915 21.2818 41.6395 21.3919 42.0479 21.3919C42.474 21.3919 42.8309 21.2782 43.1185 21.051C43.4062 20.8201 43.6228 20.5059 43.7684 20.1081C43.9175 19.7069 43.9921 19.2505 43.9921 18.7392C43.9921 18.2314 43.9193 17.7804 43.7737 17.3862C43.6281 16.992 43.4115 16.6831 43.1238 16.4593C42.8362 16.2356 42.4775 16.1238 42.0479 16.1238C41.6359 16.1238 41.2861 16.2321 40.9985 16.4487C40.7108 16.6653 40.4925 16.9689 40.3433 17.3596C40.1977 17.7502 40.1249 18.21 40.1249 18.7392ZM55.7455 11.921V22.8301H53.7693V13.8439H53.7053L51.1539 15.4739V13.6628L53.8651 11.921H55.7455Z" fill="white"/>
</g>
<defs>
<clipPath id="clip0_9879_32538">
<rect width="67" height="20" fill="white" transform="translate(12 6.83008)"/>
</clipPath>
</defs>
</svg>
