<svg width="295" height="295" viewBox="0 0 295 295" fill="none" xmlns="http://www.w3.org/2000/svg">
<path d="M147.003 -0.00976562C65.8868 -0.00976841 0 66.004 0 147.188C0 228.372 65.8868 294.329 147.003 294.329C228.12 294.329 294.078 228.372 294.078 147.188C294.078 66.004 228.12 -0.00977119 147.003 -0.00976562ZM147.003 14.7201C220.173 14.7201 279.375 73.9568 279.375 147.188C279.375 220.42 220.173 279.599 147.003 279.599C73.833 279.599 14.7032 220.42 14.7032 147.188C14.7032 73.9568 73.833 14.7201 147.003 14.7201ZM147.333 29.4356C145.897 29.3929 144.479 29.7726 143.255 30.5277L32.9816 96.7331C32.0991 97.2007 31.321 97.8433 30.6948 98.6217C30.0686 99.4002 29.6074 100.298 29.3393 101.261C29.0712 102.223 29.0019 103.231 29.1355 104.221C29.2691 105.211 29.6029 106.164 30.1165 107.021C30.6301 107.878 31.3127 108.622 32.1228 109.206C32.9328 109.79 33.8533 110.203 34.8281 110.42C35.8029 110.637 36.8116 110.652 37.7926 110.466C38.7736 110.279 39.7064 109.895 40.5342 109.336L44.1095 107.195V213.02C44.102 214.971 44.8693 216.846 46.2426 218.231C47.6158 219.616 49.4826 220.399 51.4323 220.406H242.574C243.544 220.41 244.505 220.222 245.402 219.852C246.3 219.482 247.115 218.938 247.801 218.251C248.487 217.565 249.03 216.749 249.4 215.851C249.769 214.953 249.958 213.991 249.954 213.02V107.195L253.529 109.336C254.357 109.895 255.29 110.279 256.271 110.466C257.252 110.652 258.26 110.636 259.235 110.42C260.21 110.203 261.13 109.79 261.94 109.206C262.75 108.621 263.433 107.878 263.947 107.021C264.46 106.164 264.794 105.211 264.928 104.221C265.061 103.231 264.992 102.223 264.724 101.261C264.456 100.298 263.995 99.4002 263.369 98.6218C262.742 97.8433 261.964 97.2007 261.082 96.7331L150.808 30.5278C149.76 29.8778 148.565 29.5022 147.333 29.4356ZM147.003 45.4013L235.251 98.3713V205.691H58.8271V98.357L147.003 45.4013ZM95.4989 95.6409C79.3349 95.6409 66.15 108.909 66.15 125.086C66.15 133.901 70.1488 141.75 76.3302 147.16C70.1488 152.569 66.15 160.417 66.15 169.233C66.15 185.41 79.3349 198.678 95.4989 198.678H198.45C214.614 198.678 227.871 185.41 227.871 169.233C227.871 160.419 223.856 152.569 217.662 147.16C223.856 141.75 227.871 133.9 227.871 125.086C227.871 108.909 214.614 95.6409 198.45 95.6409H95.4989ZM95.4989 110.356H198.45C206.723 110.356 213.153 116.807 213.153 125.086C213.153 133.366 206.723 139.802 198.45 139.802H95.4989C87.2262 139.802 80.7957 133.366 80.7957 125.086C80.7957 116.807 87.2262 110.356 95.4989 110.356ZM169.072 117.743C168.111 117.743 167.158 117.933 166.27 118.303C165.382 118.673 164.574 119.214 163.894 119.898C163.214 120.581 162.675 121.392 162.307 122.285C161.939 123.178 161.749 124.134 161.749 125.101C161.749 126.067 161.939 127.024 162.307 127.916C162.675 128.809 163.214 129.62 163.894 130.304C164.574 130.987 165.382 131.529 166.27 131.898C167.158 132.268 168.111 132.458 169.072 132.458C170.034 132.458 170.986 132.268 171.875 131.898C172.763 131.529 173.57 130.987 174.25 130.304C174.93 129.62 175.47 128.809 175.838 127.916C176.206 127.024 176.395 126.067 176.395 125.101C176.395 124.134 176.206 123.178 175.838 122.285C175.47 121.392 174.93 120.581 174.25 119.898C173.57 119.214 172.763 118.673 171.875 118.303C170.986 117.933 170.034 117.743 169.072 117.743ZM191.127 117.743C190.165 117.743 189.213 117.933 188.325 118.303C187.436 118.673 186.629 119.214 185.949 119.898C185.269 120.581 184.73 121.392 184.362 122.285C183.994 123.178 183.804 124.134 183.804 125.101C183.804 126.067 183.994 127.024 184.362 127.916C184.73 128.809 185.269 129.62 185.949 130.304C186.629 130.987 187.436 131.529 188.325 131.898C189.213 132.268 190.165 132.458 191.127 132.458C192.089 132.458 193.041 132.268 193.929 131.898C194.818 131.529 195.625 130.987 196.305 130.304C196.985 129.62 197.524 128.809 197.893 127.916C198.261 127.024 198.45 126.067 198.45 125.101C198.45 124.134 198.261 123.178 197.893 122.285C197.525 121.392 196.985 120.581 196.305 119.898C195.625 119.214 194.818 118.673 193.929 118.303C193.041 117.933 192.089 117.743 191.127 117.743ZM102.176 117.758C100.256 117.893 98.4664 118.774 97.1885 120.214C95.9107 121.653 95.2467 123.536 95.3387 125.46C95.4306 127.383 96.2713 129.194 97.6806 130.505C99.0899 131.816 100.956 132.522 102.879 132.473H132.3C134.222 132.431 136.05 131.637 137.394 130.261C138.738 128.886 139.491 127.039 139.491 125.115C139.491 123.192 138.738 121.344 137.394 119.969C136.05 118.594 134.222 117.8 132.3 117.758H102.879C102.645 117.746 102.41 117.746 102.176 117.758ZM95.4989 154.518H198.45C206.723 154.518 213.153 160.953 213.153 169.233C213.153 177.513 206.723 183.963 198.45 183.963H95.4989C87.2262 183.963 80.7957 177.513 80.7957 169.233C80.7957 160.953 87.2262 154.518 95.4989 154.518ZM169.072 161.889C168.111 161.889 167.158 162.08 166.27 162.449C165.382 162.819 164.574 163.361 163.894 164.044C163.214 164.727 162.675 165.539 162.307 166.431C161.939 167.324 161.749 168.281 161.749 169.247C161.749 170.213 161.939 171.17 162.307 172.063C162.675 172.956 163.214 173.767 163.894 174.45C164.574 175.133 165.382 175.675 166.27 176.045C167.158 176.415 168.111 176.605 169.072 176.605C170.034 176.605 170.986 176.415 171.875 176.045C172.763 175.675 173.57 175.133 174.25 174.45C174.93 173.767 175.47 172.956 175.838 172.063C176.206 171.17 176.395 170.213 176.395 169.247C176.395 168.281 176.206 167.324 175.838 166.431C175.47 165.539 174.93 164.727 174.25 164.044C173.57 163.361 172.763 162.819 171.875 162.449C170.986 162.08 170.034 161.889 169.072 161.889ZM191.127 161.889C190.165 161.889 189.213 162.08 188.325 162.449C187.436 162.819 186.629 163.361 185.949 164.044C185.269 164.727 184.73 165.539 184.362 166.431C183.994 167.324 183.804 168.281 183.804 169.247C183.804 170.213 183.994 171.17 184.362 172.063C184.73 172.956 185.269 173.767 185.949 174.45C186.629 175.133 187.436 175.675 188.325 176.045C189.213 176.415 190.165 176.605 191.127 176.605C192.089 176.605 193.041 176.415 193.929 176.045C194.818 175.675 195.625 175.133 196.305 174.45C196.985 173.767 197.525 172.956 197.893 172.063C198.261 171.17 198.45 170.213 198.45 169.247C198.45 168.281 198.261 167.324 197.893 166.431C197.524 165.539 196.985 164.727 196.305 164.044C195.625 163.361 194.818 162.819 193.929 162.449C193.041 162.08 192.089 161.889 191.127 161.889ZM102.176 161.904C100.226 162.001 98.3951 162.868 97.0838 164.314C95.7725 165.761 95.0883 167.669 95.1815 169.62C95.2747 171.572 96.1376 173.406 97.5809 174.721C99.0241 176.036 100.93 176.724 102.879 176.634H132.3C134.249 176.631 136.118 175.853 137.495 174.472C138.872 173.091 139.646 171.22 139.646 169.269C139.646 167.318 138.872 165.447 137.495 164.066C136.118 162.685 134.249 161.907 132.3 161.904H102.879C102.645 161.893 102.41 161.893 102.176 161.904Z" fill="#00B840"/>
</svg>
