<svg width="244" height="199" viewBox="0 0 244 199" fill="none" xmlns="http://www.w3.org/2000/svg">
<path d="M0 143.681H144.446V288.143C125.477 288.143 106.694 284.407 89.1687 277.147C71.6439 269.886 55.7203 259.245 42.3073 245.83C28.8941 232.415 18.2545 216.49 10.9952 198.964C3.73623 181.438 0 162.652 0 143.681Z" fill="#7C98BB"/>
<path d="M172.554 0C191.523 0 210.307 3.72574 227.831 10.9668C245.355 18.2078 261.279 28.82 274.692 42.1985C288.105 55.577 298.745 71.4595 306.005 88.9382C313.265 106.417 317 125.152 317 144.072C317 162.991 313.265 181.726 306.005 199.205C298.745 216.683 288.105 232.566 274.692 245.944C261.279 259.323 245.355 269.935 227.831 277.176C210.307 284.417 191.523 288.143 172.554 288.143V0Z" fill="#7C98BB"/>
<path d="M85.496 0C117.19 0 142.884 25.6963 142.884 57.3943C142.884 89.0923 117.19 114.789 85.496 114.789C53.8015 114.789 28.108 89.0923 28.108 57.3943C28.108 25.6963 53.8015 0 85.496 0Z" fill="#7C98BB"/>
</svg>
