<svg width="60" height="60" viewBox="0 0 60 60" fill="none" xmlns="http://www.w3.org/2000/svg">
<rect width="60" height="60" rx="5" fill="#F7F7F7"/>
<rect x="0.5" y="0.5" width="59" height="59" rx="4.5" stroke="white"/>
<g clip-path="url(#clip0_8302_18859)">
<path d="M38.1616 43.7012C43.8797 43.7012 48.5152 41.0752 48.5152 37.8358C48.5152 34.5965 43.8797 31.9705 38.1616 31.9705C32.4435 31.9705 27.8081 34.5965 27.8081 37.8358C27.8081 41.0752 32.4435 43.7012 38.1616 43.7012Z" fill="#00B840"/>
<path d="M26.5396 29.9804C29.6198 29.2473 34.9105 28.7707 33.6059 32.7298C31.9753 37.6787 32.5188 36.579 33.6059 38.7785C34.4756 40.5381 33.9683 42.4443 33.6059 43.1775M30.3445 23.3818C31.9753 23.0153 35.7802 22.722 37.9544 24.4816C40.6722 26.6811 40.1287 29.9804 47.7385 25.5813M49.9128 32.1799C49.9128 38.8611 44.5588 44.2773 37.9544 44.2773C31.35 44.2773 25.9961 38.8611 25.9961 32.1799C25.9961 25.4987 31.35 20.0825 37.9544 20.0825C44.5588 20.0825 49.9128 25.4987 49.9128 32.1799ZM40.4843 32.5088C44.2893 31.9589 45.5643 31.63 44.4771 34.3795C43.4678 36.9322 40.4843 42.0401 38.3101 36.9078C37.7665 35.6248 37.4404 32.9487 40.4843 32.5088Z" stroke="#2E2E2E" stroke-width="1.5" stroke-linecap="round"/>
<path fill-rule="evenodd" clip-rule="evenodd" d="M22.3865 40.061L22.5719 40.3734C22.6953 40.5815 22.6628 40.8478 22.4931 41.0192L21.0155 42.5139C20.8461 42.6856 20.5828 42.7185 20.3771 42.5937L20.0684 42.4061L19.9811 42.7597C19.9229 42.9949 19.714 43.1598 19.4743 43.1598H17.3845C17.1448 43.1598 16.936 42.9949 16.8777 42.7597L16.7904 42.4061L16.4817 42.5937C16.276 42.7185 16.0127 42.6856 15.8432 42.5139L14.3657 41.0192C14.196 40.8478 14.1635 40.5815 14.2868 40.3734L14.4723 40.061L14.1228 39.9728C13.8903 39.9139 13.7273 39.7025 13.7273 39.4601V37.346C13.7273 37.1035 13.8903 36.8922 14.1228 36.8333L14.4723 36.745L14.2868 36.4327C14.1635 36.2246 14.196 35.9583 14.3657 35.7868L15.8432 34.2921C16.0127 34.1204 16.276 34.0875 16.4817 34.2123L16.7904 34.3999L16.8777 34.0464C16.936 33.8112 17.1448 33.6462 17.3845 33.6462H19.4743C19.714 33.6462 19.9229 33.8112 19.9811 34.0464L20.0684 34.3999L20.3771 34.2123C20.5828 34.0875 20.8461 34.1204 21.0155 34.2921L22.4931 35.7868C22.6628 35.9583 22.6953 36.2246 22.5719 36.4327L22.3865 36.745L22.736 36.8333C22.9685 36.8922 23.1315 37.1035 23.1315 37.346V39.4601C23.1315 39.7025 22.9685 39.9139 22.736 39.9728L22.3865 40.061ZM21.4487 39.2058L22.0866 39.0473L22.0814 37.7587L21.4435 37.6002C21.2829 37.5595 21.151 37.4442 21.0877 37.2895C21.0245 37.1347 21.0375 36.9588 21.1227 36.8153L21.4608 36.245L20.56 35.3339L19.9963 35.6758C19.8544 35.762 19.6804 35.7751 19.5274 35.711C19.3745 35.6469 19.2606 35.5133 19.2205 35.3507L19.0637 34.7059H17.79L17.6332 35.3507C17.5931 35.5133 17.4792 35.6469 17.3263 35.711C17.1733 35.7751 16.9993 35.762 16.8574 35.6758L16.2937 35.3339L15.3929 36.245L15.731 36.8153C15.8162 36.9588 15.8292 37.1347 15.7659 37.2895C15.7027 37.4442 15.5707 37.5595 15.4102 37.6002L14.7723 37.7587V39.0473L15.4102 39.2085C15.5707 39.2492 15.7027 39.3645 15.7659 39.5192C15.8292 39.674 15.8162 39.8498 15.731 39.9934L15.3929 40.5637L16.2963 41.4749L16.86 41.1329C17.0019 41.0466 17.1757 41.0335 17.3287 41.0975C17.4817 41.1615 17.5956 41.295 17.6358 41.4574L17.7926 42.1027H19.0663L19.2257 41.4547C19.2659 41.2924 19.3799 41.1588 19.5328 41.0948C19.6858 41.0309 19.8596 41.044 20.0015 41.1303L20.5653 41.4722L21.466 40.561L21.1279 39.9908C21.0427 39.8472 21.0297 39.6713 21.093 39.5166C21.1562 39.3618 21.2882 39.2466 21.4487 39.2058Z" fill="#2E2E2E"/>
<path fill-rule="evenodd" clip-rule="evenodd" d="M46.4065 15.7615L46.592 16.0738C46.7153 16.2819 46.6828 16.5482 46.5131 16.7197L45.0356 18.2144C44.8661 18.3861 44.6028 18.419 44.3971 18.2942L44.0884 18.1065L44.0011 18.4601C43.9429 18.6953 43.734 18.8602 43.4943 18.8602H41.4045C41.1649 18.8602 40.956 18.6953 40.8977 18.4601L40.8105 18.1065L40.5017 18.2942C40.296 18.419 40.0328 18.3861 39.8632 18.2144L38.3858 16.7197C38.216 16.5482 38.1835 16.2819 38.3069 16.0738L38.4923 15.7615L38.1428 15.6732C37.9104 15.6143 37.7473 15.403 37.7473 15.1605V13.0464C37.7473 12.804 37.9104 12.5926 38.1428 12.5337L38.4923 12.4455L38.3069 12.1331C38.1835 11.925 38.216 11.6587 38.3858 11.4872L39.8632 9.99254C40.0328 9.82084 40.296 9.78793 40.5017 9.91273L40.8105 10.1004L40.8977 9.74678C40.956 9.51162 41.1649 9.34669 41.4045 9.34668H43.4943C43.734 9.34669 43.9429 9.51162 44.0011 9.74678L44.0884 10.1004L44.3971 9.91273C44.6028 9.78793 44.8661 9.82084 45.0356 9.99254L46.5131 11.4872C46.6828 11.6587 46.7153 11.925 46.592 12.1331L46.4065 12.4455L46.756 12.5337C46.9885 12.5926 47.1515 12.804 47.1515 13.0464V15.1605C47.1515 15.403 46.9885 15.6143 46.756 15.6732L46.4065 15.7615ZM45.4687 14.9063L46.1066 14.7477L46.1015 13.4592L45.4635 13.3006C45.303 13.2599 45.171 13.1446 45.1078 12.9899C45.0445 12.8352 45.0575 12.6593 45.1427 12.5157L45.4808 11.9455L44.58 11.0343L44.0163 11.3762C43.8744 11.4625 43.7004 11.4755 43.5474 11.4114C43.3945 11.3473 43.2806 11.2137 43.2405 11.0512L43.0837 10.4064H41.81L41.6532 11.0512C41.6131 11.2137 41.4992 11.3473 41.3463 11.4114C41.1933 11.4755 41.0194 11.4625 40.8774 11.3762L40.3137 11.0343L39.413 11.9455L39.751 12.5157C39.8362 12.6593 39.8492 12.8352 39.786 12.9899C39.7227 13.1446 39.5908 13.2599 39.4302 13.3006L38.7923 13.4592V14.7477L39.4302 14.909C39.5908 14.9497 39.7227 15.0649 39.786 15.2196C39.8492 15.3744 39.8362 15.5503 39.751 15.6938L39.413 16.2641L40.3163 17.1753L40.88 16.8333C41.0219 16.7471 41.1958 16.734 41.3487 16.798C41.5017 16.8619 41.6156 16.9954 41.6559 17.1578L41.8126 17.8032H43.0864L43.2457 17.1552C43.2859 16.9928 43.3999 16.8593 43.5529 16.7953C43.7058 16.7313 43.8797 16.7444 44.0215 16.8307L44.5853 17.1726L45.486 16.2614L45.148 15.6911C45.0627 15.5476 45.0497 15.3717 45.113 15.217C45.1762 15.0623 45.3082 14.947 45.4687 14.9063Z" fill="#2E2E2E"/>
<path d="M26.8469 42.1189H22.4243V43.176H27.1264C27.3011 43.176 27.4642 43.0878 27.5611 42.9408L28.606 41.3552L27.7366 40.7686L26.8469 42.1189Z" fill="#1E1F24"/>
<path d="M29.8152 49.8244C38.4716 49.8244 45.4889 48.6412 45.4889 47.1817C45.4889 45.7222 38.4716 44.5391 29.8152 44.5391C21.1589 44.5391 14.1416 45.7222 14.1416 47.1817C14.1416 48.6412 21.1589 49.8244 29.8152 49.8244Z" fill="#2E2E2E"/>
<path d="M42.51 15.3927C43.1804 15.3927 43.7239 14.8429 43.7239 14.1647C43.7239 13.4866 43.1804 12.9368 42.51 12.9368C41.8396 12.9368 41.2961 13.4866 41.2961 14.1647C41.2961 14.8429 41.8396 15.3927 42.51 15.3927Z" fill="#3F674E" stroke="#2E2E2E"/>
<path d="M18.49 39.6923C19.1604 39.6923 19.7039 39.1425 19.7039 38.4643C19.7039 37.7861 19.1604 37.2363 18.49 37.2363C17.8196 37.2363 17.2761 37.7861 17.2761 38.4643C17.2761 39.1425 17.8196 39.6923 18.49 39.6923Z" fill="#00B840" stroke="#2E2E2E"/>
<path d="M26.9796 20.2395H24.9089V21.4964H26.9796V20.2395Z" fill="#2E2E2E"/>
<path fill-rule="evenodd" clip-rule="evenodd" d="M11.2424 24.8481C11.2424 24.8481 13.8248 17.8609 20.3839 21.9865C26.9429 26.112 26.7727 21.916 26.7727 21.916L25.1162 26.3156C25.1162 26.3156 24.7812 26.951 24.4949 27.1535C24.2087 27.356 23.2525 27.782 23.2525 27.782C23.2525 27.782 23.5544 28.3419 23.0455 27.9908C22.5365 27.6398 21.803 28.4104 21.803 28.4104V28.8294L14.1414 27.9908L11.2424 24.8481Z" fill="#00B840"/>
<path d="M17.8687 12.6984V14.7932H19.1111V12.6984H17.8687Z" fill="#2E2E2E"/>
<path d="M17.8687 17.3063V21.9148H19.1111V17.3063H17.8687Z" fill="#2E2E2E"/>
<path d="M22.4242 20.6577H17.8687V21.9146H22.4242V20.6577Z" fill="#2E2E2E"/>
<path d="M17.8687 26.5241V28.6189H19.1111V26.5241H17.8687Z" fill="#2E2E2E"/>
<path d="M18.6968 28.7416C23.1096 28.7416 26.6869 25.1227 26.6869 20.6586C26.6869 16.1945 23.1096 12.5757 18.6968 12.5757C14.2841 12.5757 10.7068 16.1945 10.7068 20.6586C10.7068 25.1227 14.2841 28.7416 18.6968 28.7416Z" stroke="#2E2E2E" stroke-width="1.5"/>
<path d="M12.485 20.2395H10.4143V21.4964H12.485V20.2395Z" fill="#2E2E2E"/>
<path d="M32.4661 15.8503H36.8887V14.7932H32.1866C32.012 14.7932 31.8489 14.8815 31.7519 15.0284L30.707 16.614L31.5764 17.2007L32.4661 15.8503Z" fill="#1E1F24"/>
</g>
<defs>
<clipPath id="clip0_8302_18859">
<rect width="41" height="41" fill="white" transform="translate(10 9)"/>
</clipPath>
</defs>
</svg>
