<svg width="28" height="29" viewBox="0 0 28 29" fill="none" xmlns="http://www.w3.org/2000/svg">
<g clip-path="url(#clip0_8294_17710)">
<path d="M27.8777 13.6898C27.8777 6.17337 21.7844 0.0800781 14.268 0.0800781C6.7515 0.0800781 0.658203 6.17337 0.658203 13.6898C0.658203 21.2063 6.7515 27.2996 14.268 27.2996C21.7844 27.2996 27.8777 21.2063 27.8777 13.6898Z" fill="black"/>
<path d="M19.6754 11.5401C19.5368 10.6664 19.121 10.0615 18.1506 9.92704C16.6258 9.65821 14.2693 9.6582 14.2693 9.6582C14.2693 9.6582 11.9128 9.65821 10.388 9.92704C9.4177 10.0615 8.93254 10.6664 8.86323 11.5401C8.72461 12.4138 8.72461 13.6907 8.72461 13.6907C8.72461 13.6907 8.72461 14.9677 8.86323 15.8414C9.00185 16.7151 9.4177 17.32 10.388 17.4544C11.9128 17.7233 14.2693 17.7233 14.2693 17.7233C14.2693 17.7233 16.6258 17.7233 18.1506 17.4544C19.121 17.2528 19.5368 16.7151 19.6754 15.8414C19.814 14.9677 19.814 13.6907 19.814 13.6907C19.814 13.6907 19.814 12.4138 19.6754 11.5401ZM12.8831 15.707V11.6745L16.3486 13.6907L12.8831 15.707Z" fill="white"/>
</g>
<defs>
<clipPath id="clip0_8294_17710">
<rect width="28" height="28" fill="white" transform="translate(0 0.0800781)"/>
</clipPath>
</defs>
</svg>
